<svg width="45" height="38" viewBox="0 0 45 38" fill="none" xmlns="http://www.w3.org/2000/svg">
<path d="M0.736 8.45172H13.9912C14.1865 8.45172 14.3738 8.52593 14.5119 8.65801C14.65 8.79009 14.7276 8.96924 14.7276 9.15603V21.1293H16.2004V11.269C16.2017 10.8309 16.3102 10.3992 16.5172 10.0085C16.7242 9.6177 17.024 9.27873 17.3926 9.01869C17.0987 8.65437 16.9385 8.20757 16.9368 7.74741V7.19805C16.7061 7.00156 16.5212 6.76075 16.3943 6.49134C16.2674 6.22193 16.2014 5.92996 16.2004 5.63448V2.81724C16.2004 2.07006 16.5107 1.35349 17.0631 0.825151C17.6156 0.296815 18.3648 0 19.146 0H22.0916C22.8728 0 23.622 0.296815 24.1744 0.825151C24.7269 1.35349 25.0372 2.07006 25.0372 2.81724V4.22586C25.0371 4.39247 24.9753 4.55367 24.8628 4.68082C24.7502 4.80796 24.5941 4.89282 24.4223 4.92031L23.5644 5.05695V7.0431C23.5626 7.4824 23.4531 7.91517 23.2446 8.30661C23.0362 8.69805 22.7346 9.03724 22.3641 9.2969C22.5233 9.42461 22.671 9.56478 22.8059 9.71596L25.4709 12.7741L29.3245 14.0031L31.9594 12.1141C32.0868 12.0227 32.2419 11.9733 32.4012 11.9733H34.6104C35.3916 11.9733 36.1408 12.2701 36.6932 12.7984C37.2457 13.3268 37.556 14.0433 37.556 14.7905C37.556 15.5377 37.2457 16.2543 36.6932 16.7826C36.1408 17.3109 35.3916 17.6078 34.6104 17.6078H33.0065L37.246 23.9796L39.7946 23.9677C40.9592 23.9699 42.0753 24.4139 42.8981 25.2021C43.7209 25.9904 44.1832 27.0586 44.1836 28.1724C44.1836 28.3592 44.106 28.5383 43.9679 28.6704C43.8298 28.8025 43.6425 28.8767 43.4472 28.8767H42.6298C43.3631 29.5614 43.8663 30.4396 44.0753 31.3991C44.2843 32.3587 44.1894 33.356 43.803 34.2638C43.4165 35.1715 42.7559 35.9485 41.9055 36.4955C41.0551 37.0425 40.0536 37.3346 39.0288 37.3346C38.004 37.3346 37.0025 37.0425 36.1521 36.4955C35.3017 35.9485 34.6411 35.1715 34.2546 34.2638C33.8681 33.356 33.7733 32.3587 33.9823 31.3991C34.1913 30.4396 34.6945 29.5614 35.4278 28.8767H34.4263L33.1376 30.5199V31.694C33.1376 32.2543 32.9048 32.7918 32.4905 33.188C32.0762 33.5843 31.5143 33.8069 30.9284 33.8069H18.9089C18.5464 34.8488 17.845 35.7526 16.9073 36.3862C15.9695 37.0197 14.8445 37.3499 13.6966 37.3284C12.2921 37.3624 10.9308 36.8626 9.91084 35.9385C8.89085 35.0144 8.2953 33.7414 8.25464 32.3983C8.25515 31.6641 8.43601 30.9404 8.78264 30.2853H6.6272C6.43189 30.2853 6.24459 30.2111 6.10649 30.0791C5.96838 29.947 5.8908 29.7678 5.8908 29.581V23.9465C5.89082 23.825 5.92373 23.7056 5.98631 23.5998C6.0489 23.494 6.13903 23.4055 6.24796 23.343L7.65079 22.5379H0.736C0.540695 22.5379 0.35339 22.4637 0.215286 22.3316C0.0771866 22.1996 -0.000400543 22.0204 -0.000400543 21.8336V9.15603C-0.000400543 8.96924 0.0771866 8.79009 0.215286 8.65801C0.35339 8.52593 0.540695 8.45172 0.736 8.45172ZM36.0832 14.7905C36.0832 14.4169 35.928 14.0586 35.6518 13.7945C35.3756 13.5303 35.001 13.3819 34.6104 13.3819V16.1991C35.001 16.1991 35.3756 16.0507 35.6518 15.7866C35.928 15.5224 36.0832 15.1641 36.0832 14.7905ZM6.6272 9.86034V11.269H8.1V9.86034H6.6272ZM28.8488 17.4845L23.3855 16.178C23.2561 16.147 23.138 16.083 23.0438 15.9928L22.0916 15.0821V18.3121H24.3008C25.082 18.3121 25.8312 18.6089 26.3836 19.1372C26.9361 19.6656 27.2464 20.3821 27.2464 21.1293V26.8638C27.7362 26.9862 28.1846 27.2275 28.5482 27.5644C28.9117 27.9012 29.1782 28.3223 29.3216 28.7866L30.8901 25.2594L28.8488 17.4845ZM26.51 28.1724H24.3008V29.581H27.9828C27.9828 29.2074 27.8276 28.8491 27.5514 28.585C27.2752 28.3208 26.9006 28.1724 26.51 28.1724ZM24.3008 21.8336V26.7638H25.7736V21.1293C25.7736 20.7557 25.6184 20.3974 25.3422 20.1333C25.066 19.8691 24.6914 19.7207 24.3008 19.7207H17.6732V21.1293H23.5644C23.7597 21.1293 23.947 21.2035 24.0851 21.3356C24.2232 21.4677 24.3008 21.6468 24.3008 21.8336ZM23.5644 2.81724C23.5644 2.44365 23.4092 2.08536 23.133 1.8212C22.8568 1.55703 22.4822 1.40862 22.0916 1.40862H19.146C18.7554 1.40862 18.3808 1.55703 18.1046 1.8212C17.8284 2.08536 17.6732 2.44365 17.6732 2.81724V5.63448C17.6732 5.82128 17.7508 6.00042 17.8889 6.1325C18.027 6.26459 18.2143 6.33879 18.4096 6.33879C18.6049 6.33879 18.7922 6.26459 18.9303 6.1325C19.0684 6.00042 19.146 5.82128 19.146 5.63448V4.93017C19.146 4.76356 19.2079 4.60236 19.3204 4.47521C19.433 4.34807 19.5891 4.26321 19.7609 4.23572L23.5644 3.62931V2.81724ZM20.6188 8.45172C21.0094 8.45172 21.384 8.30331 21.6602 8.03915C21.9364 7.77498 22.0916 7.41669 22.0916 7.0431V5.29219L20.6188 5.52672V5.63448C20.6188 6.19487 20.386 6.7323 19.9717 7.12855C19.5574 7.5248 18.9955 7.74741 18.4096 7.74741C18.4096 7.93421 18.4872 8.11335 18.6253 8.24543C18.7634 8.37752 18.9507 8.45172 19.146 8.45172H20.6188ZM24.8045 14.0503C24.6745 14.0088 24.5593 13.9334 24.4716 13.8327L21.6733 10.621C21.4667 10.3831 21.2078 10.1916 20.9151 10.0602C20.6224 9.92871 20.303 9.86048 19.9796 9.86034H19.146C18.7554 9.86034 18.3808 10.0088 18.1046 10.2729C17.8284 10.5371 17.6732 10.8954 17.6732 11.269V18.3121H20.6188V13.3819C20.6188 13.2426 20.662 13.1065 20.743 12.9907C20.8239 12.8749 20.9389 12.7846 21.0734 12.7313C21.2079 12.678 21.356 12.6641 21.4988 12.6913C21.6416 12.7184 21.7728 12.7855 21.8758 12.8839L23.9377 14.856L28.7192 16.0012V15.2969L24.8045 14.0503ZM33.1376 13.3819H32.6464L30.192 15.1427V16.1991H33.1376V13.3819ZM35.3468 32.3983C35.3468 33.0948 35.5627 33.7756 35.9673 34.3547C36.3719 34.9339 36.947 35.3852 37.6198 35.6518C38.2926 35.9183 39.0329 35.988 39.7471 35.8522C40.4614 35.7163 41.1174 35.3809 41.6324 34.8884C42.1473 34.3959 42.498 33.7684 42.64 33.0853C42.7821 32.4022 42.7092 31.6941 42.4305 31.0506C42.1518 30.4071 41.6799 29.8572 41.0744 29.4702C40.4689 29.0833 39.757 28.8767 39.0288 28.8767C38.6339 28.8815 38.2424 28.9477 37.8697 29.0725L40.0347 32.6553L38.76 33.3597L36.5943 29.7761C36.2037 30.1035 35.8905 30.5067 35.6754 30.9588C35.4603 31.4109 35.3483 31.9016 35.3468 32.3983ZM42.6173 27.4681C42.4517 26.8663 42.0816 26.3343 41.5654 25.9556C41.0491 25.5769 40.4158 25.3731 39.7652 25.3763L37.1576 25.3883L35.5309 27.4681H42.6173ZM18.143 30.2853H13.9912V31.694C13.9912 31.8808 14.0688 32.0599 14.2069 32.192C14.345 32.3241 14.5323 32.3983 14.7276 32.3983H20.7941L18.143 30.2853ZM9.72744 32.3983C9.76809 33.3678 10.2084 34.2825 10.9522 34.9424C11.696 35.6023 12.6827 35.9537 13.6966 35.9198C14.4486 35.9337 15.1892 35.7424 15.8315 35.3681C16.4739 34.9939 16.9914 34.4523 17.3234 33.8069H14.7276C14.1417 33.8069 13.5798 33.5843 13.1655 33.188C12.7512 32.7918 12.5184 32.2543 12.5184 31.694V30.2853H10.5478C10.0238 30.8759 9.73343 31.6238 9.72744 32.3983ZM7.3636 24.3452V24.6509H8.8364V26.0595H7.3636V28.8767H18.4096C18.5818 28.8768 18.7486 28.9346 18.8809 29.0401L23.0946 32.3983H30.9284C31.1237 32.3983 31.311 32.3241 31.4491 32.192C31.5872 32.0599 31.6648 31.8808 31.6648 31.694V30.2853C31.6648 30.1329 31.7165 29.9847 31.8121 29.8628L35.9249 24.6178L31.2605 17.6078H30.3997L32.3791 25.1439C32.4181 25.2928 32.4052 25.4499 32.3423 25.5911L30.1331 30.56C30.0767 30.6873 29.9824 30.7959 29.8619 30.8723C29.7415 30.9487 29.6001 30.9895 29.4556 30.9896H23.5644C23.3691 30.9896 23.1818 30.9154 23.0437 30.7834C22.9056 30.6513 22.828 30.4721 22.828 30.2853V26.0595H15.464V24.6509H22.828V22.5379H10.5132L7.3636 24.3452ZM1.4724 21.1293H13.2548V9.86034H9.5728V11.9733C9.5728 12.1601 9.49522 12.3392 9.35711 12.4713C9.21901 12.6034 9.0317 12.6776 8.8364 12.6776H5.8908C5.6955 12.6776 5.50819 12.6034 5.37009 12.4713C5.23198 12.3392 5.1544 12.1601 5.1544 11.9733V9.86034H1.4724V21.1293Z" fill="black"/>
<path d="M10.3095 24.6504H13.9915V26.059H10.3095V24.6504Z" fill="black"/>
<path d="M9.98172 15.6126L12.1909 17.0212L11.3735 18.1932L10.3094 17.5142V19.7201H8.83662V17.5142L7.77252 18.1932L6.95511 17.0212L9.16431 15.6126C9.28533 15.5353 9.42754 15.4941 9.57302 15.4941C9.71849 15.4941 9.86071 15.5353 9.98172 15.6126Z" fill="black"/>
<path d="M2.9451 15.4941H5.1543V16.9028H2.9451V15.4941Z" fill="black"/>
<path d="M2.9451 18.3125H5.1543V19.7211H2.9451V18.3125Z" fill="black"/>
</svg>
