<svg width="55" height="42" viewBox="0 0 55 42" fill="none" xmlns="http://www.w3.org/2000/svg">
<g filter="url(#filter0_f_1708_3932)">
<path d="M32.071 33.3957L30.0372 32.0989V20.602H39.6807C40.1923 20.602 40.6829 20.4077 41.0446 20.0617C41.4063 19.7158 41.6095 19.2466 41.6095 18.7574V16.9127C41.6095 16.4235 41.4063 15.9543 41.0446 15.6083C40.6829 15.2624 40.1923 15.068 39.6807 15.068H36.7385C36.5133 12.9523 35.5317 10.9758 33.9594 9.47204C32.3871 7.96829 30.3205 7.02946 28.1084 6.81404V5.84467H29.0728C29.3286 5.84467 29.5739 5.7475 29.7547 5.57452C29.9356 5.40155 30.0372 5.16695 30.0372 4.92233C30.0372 4.67772 29.9356 4.44312 29.7547 4.27015C29.5739 4.09717 29.3286 4 29.0728 4H25.2154C24.9596 4 24.7143 4.09717 24.5335 4.27015C24.3526 4.44312 24.251 4.67772 24.251 4.92233C24.251 5.16695 24.3526 5.40155 24.5335 5.57452C24.7143 5.7475 24.9596 5.84467 25.2154 5.84467H26.1797V6.81404C23.9677 7.02946 21.901 7.96829 20.3288 9.47204C18.7565 10.9758 17.7749 12.9523 17.5497 15.068H13.6431C13.1315 15.068 12.641 15.2624 12.2793 15.6083C11.9176 15.9543 11.7144 16.4235 11.7144 16.9127V18.7574C11.7144 19.2466 11.9176 19.7158 12.2793 20.0617C12.641 20.4077 13.1315 20.602 13.6431 20.602H24.251V32.0989L22.2172 33.3957C21.9529 33.5641 21.7362 33.7923 21.5863 34.0601C21.4365 34.3278 21.358 34.6268 21.3579 34.9305V35.3594C21.3579 35.8486 21.5611 36.3178 21.9228 36.6638C22.2846 37.0097 22.7751 37.2041 23.2867 37.2041H31.0015C31.5131 37.2041 32.0036 37.0097 32.3653 36.6638C32.727 36.3178 32.9302 35.8486 32.9302 35.3594V34.9305C32.9302 34.6268 32.8517 34.3278 32.7018 34.0601C32.5519 33.7923 32.3352 33.5641 32.071 33.3957ZM27.1441 8.61167C29.0217 8.61466 30.8338 9.27177 32.2415 10.4601C33.6492 11.6484 34.5561 13.2865 34.7924 15.068H19.4958C19.7321 13.2865 20.6389 11.6484 22.0466 10.4601C23.4544 9.27177 25.2665 8.61466 27.1441 8.61167ZM13.6431 18.7574V16.9127H39.6807V18.7574H13.6431ZM31.0015 35.3594H23.2867V34.9305L25.3205 33.6337C25.5847 33.4653 25.8014 33.2371 25.9513 32.9694C26.1012 32.7016 26.1797 32.4026 26.1797 32.0989V20.602H28.1084V32.0989C28.1085 32.4026 28.187 32.7016 28.3369 32.9694C28.4867 33.2371 28.7034 33.4653 28.9677 33.6337L31.0015 34.9305V35.3594Z" fill="#7B7B7B"/>
<path d="M48.7207 26.5043L50.2714 15.3136C50.308 15.0534 50.2862 14.7887 50.2073 14.5372C50.1284 14.2857 49.9942 14.0532 49.8138 13.8552C49.6334 13.6573 49.411 13.4985 49.1612 13.3894C48.9115 13.2803 48.6403 13.2235 48.3658 13.2227H47.3185C46.8951 13.2238 46.4838 13.3581 46.1481 13.605C45.8124 13.8519 45.571 14.1975 45.4611 14.5886L42.9663 23.5002H37.022C36.3824 23.5005 35.7611 23.7045 35.2561 24.0799C34.7511 24.4553 34.3912 24.9809 34.2331 25.5736L33.9563 26.5965C33.8834 26.8664 33.8754 27.1485 33.9329 27.4218C33.9904 27.695 34.1118 27.9523 34.2882 28.1742C34.4645 28.3961 34.6911 28.5769 34.951 28.703C35.2109 28.8291 35.4973 28.8973 35.7886 28.9024L33.9255 36.0615C33.8949 36.1791 33.8889 36.3014 33.9077 36.4212C33.9265 36.541 33.9699 36.6562 34.0353 36.76C34.1006 36.8638 34.1868 36.9543 34.2887 37.0262C34.3907 37.0982 34.5065 37.1502 34.6295 37.1794C34.7046 37.1965 34.7817 37.2046 34.859 37.2034C35.0741 37.2033 35.283 37.1345 35.4525 37.0078C35.622 36.8811 35.7424 36.7039 35.7944 36.5042L37.7733 28.9024H45.6598L47.4198 36.4812C47.4673 36.6858 47.5864 36.8689 47.7573 37.0002C47.9282 37.1315 48.1408 37.2031 48.36 37.2034C48.4307 37.2033 48.5012 37.1958 48.5702 37.1812C48.6939 37.155 48.811 37.1058 48.9148 37.0363C49.0185 36.9668 49.107 36.8785 49.175 36.7763C49.2431 36.6741 49.2894 36.5601 49.3114 36.4408C49.3334 36.3215 49.3306 36.1992 49.3031 36.0809L47.5152 28.3877C47.8409 28.17 48.1161 27.8904 48.3235 27.5663C48.5309 27.2422 48.6661 26.8807 48.7207 26.5043ZM35.8233 27.0577L36.0992 26.0348C36.1508 25.8383 36.2696 25.6638 36.4365 25.539C36.6035 25.4143 36.8092 25.3463 37.0211 25.3458H43.706C43.9183 25.3459 44.1246 25.2789 44.2931 25.1553C44.4615 25.0317 44.5826 24.8585 44.6376 24.6624L47.3185 15.0673H48.36L46.8093 26.258C46.7785 26.4778 46.6659 26.6796 46.4921 26.8265C46.3184 26.9734 46.0951 27.0554 45.8633 27.0577H35.8233Z" fill="#7B7B7B"/>
<path d="M19.9886 28.1894C20.1699 27.9669 20.2952 27.7076 20.3549 27.4314C20.4146 27.1551 20.4071 26.8695 20.3329 26.5965L20.057 25.5764C19.899 24.9833 19.539 24.4574 19.0338 24.0816C18.5287 23.7059 17.9071 23.5017 17.2672 23.5012H11.3219L8.8271 14.5886C8.71722 14.1975 8.47581 13.8519 8.14014 13.605C7.80447 13.3581 7.39318 13.2238 6.96974 13.2227H5.92245C5.64819 13.2235 5.37728 13.2803 5.12779 13.3892C4.8783 13.4981 4.65596 13.6567 4.47562 13.8543C4.29528 14.052 4.16108 14.2841 4.08197 14.5352C4.00287 14.7864 3.98067 15.0508 4.01688 15.3108L5.56757 26.5043C5.61927 26.8642 5.74479 27.2108 5.93693 27.5242C6.12906 27.8376 6.38403 28.1116 6.68719 28.3305L4.88577 36.0809C4.83026 36.3198 4.87625 36.5699 5.01361 36.7764C5.15097 36.9828 5.36844 37.1286 5.6182 37.1817C5.86795 37.2348 6.12952 37.1908 6.34537 37.0594C6.56121 36.9281 6.71366 36.7201 6.76916 36.4812L8.532 28.9024H16.4156L18.3945 36.5042C18.4467 36.7043 18.5675 36.8819 18.7375 37.0086C18.9076 37.1354 19.1172 37.2039 19.3328 37.2034C19.4115 37.2037 19.4899 37.1944 19.5662 37.1757C19.6891 37.1465 19.8048 37.0943 19.9066 37.0223C20.0085 36.9503 20.0945 36.8598 20.1598 36.756C20.2251 36.6522 20.2683 36.5371 20.2871 36.4173C20.3059 36.2975 20.2998 36.1754 20.2692 36.0578L18.4022 28.9024H18.4697C18.7631 28.9031 19.0528 28.8391 19.3162 28.7155C19.5796 28.5918 19.8097 28.4118 19.9886 28.1894ZM8.42496 27.0577C8.1931 27.0554 7.96984 26.9734 7.7961 26.8265C7.62235 26.6796 7.50975 26.4778 7.47892 26.258L5.92245 15.0673H6.96396L9.6497 24.6596C9.70468 24.8557 9.82577 25.029 9.9942 25.1526C10.1626 25.2761 10.369 25.3431 10.5813 25.3431H17.2662C17.4783 25.3437 17.6842 25.4118 17.8513 25.5367C18.0184 25.6617 18.1372 25.8363 18.1891 26.033L18.4649 27.0577H8.42496Z" fill="#7B7B7B"/>
</g>
<defs>
<filter id="filter0_f_1708_3932" x="0" y="0" width="54.2886" height="41.2031" filterUnits="userSpaceOnUse" color-interpolation-filters="sRGB">
<feFlood flood-opacity="0" result="BackgroundImageFix"/>
<feBlend mode="normal" in="SourceGraphic" in2="BackgroundImageFix" result="shape"/>
<feGaussianBlur stdDeviation="2" result="effect1_foregroundBlur_1708_3932"/>
</filter>
</defs>
</svg>
