<svg width="16" height="17" viewBox="0 0 16 17" fill="none" xmlns="http://www.w3.org/2000/svg">
<path d="M5.49935 0.604207C5.49935 0.316707 5.73268 0.083374 6.02018 0.083374H9.97852C10.1166 0.083374 10.2491 0.138247 10.3468 0.235923C10.4445 0.333598 10.4993 0.466074 10.4993 0.604207C10.4993 0.742341 10.4445 0.874817 10.3468 0.972492C10.2491 1.07017 10.1166 1.12504 9.97852 1.12504H6.02018C5.73268 1.12504 5.49935 0.891707 5.49935 0.604207ZM7.47852 9.14587C7.47852 9.28401 7.53339 9.41648 7.63106 9.51416C7.72874 9.61183 7.86122 9.66671 7.99935 9.66671C8.13748 9.66671 8.26996 9.61183 8.36763 9.51416C8.46531 9.41648 8.52018 9.28401 8.52018 9.14587V5.18754C8.52018 5.04941 8.46531 4.91693 8.36763 4.81926C8.26996 4.72158 8.13748 4.66671 7.99935 4.66671C7.86122 4.66671 7.72874 4.72158 7.63106 4.81926C7.53339 4.91693 7.47852 5.04941 7.47852 5.18754V9.14587ZM7.99935 2.16671C4.08727 2.16671 0.916016 5.33796 0.916016 9.25004C0.916016 13.1621 4.08727 16.3334 7.99935 16.3334C11.9114 16.3334 15.0827 13.1621 15.0827 9.25004C15.0827 5.33796 11.9114 2.16671 7.99935 2.16671ZM1.95768 9.25004C1.95768 5.91337 4.66268 3.20837 7.99935 3.20837C11.336 3.20837 14.041 5.91337 14.041 9.25004C14.041 12.5867 11.336 15.2917 7.99935 15.2917C4.66268 15.2917 1.95768 12.5867 1.95768 9.25004ZM13.8889 2.31879C13.7912 2.2211 13.6588 2.16622 13.5206 2.16622C13.3824 2.16622 13.25 2.2211 13.1523 2.31879C13.0546 2.41648 12.9997 2.54897 12.9997 2.68712C12.9997 2.82528 13.0546 2.95777 13.1523 3.05546L14.1939 4.09712C14.2423 4.14549 14.2997 4.18386 14.3629 4.21004C14.4261 4.23622 14.4939 4.24969 14.5623 4.24969C14.6307 4.24969 14.6984 4.23622 14.7616 4.21004C14.8248 4.18386 14.8822 4.14549 14.9306 4.09712C14.979 4.04875 15.0173 3.99133 15.0435 3.92813C15.0697 3.86493 15.0832 3.7972 15.0832 3.72879C15.0832 3.66038 15.0697 3.59265 15.0435 3.52945C15.0173 3.46625 14.979 3.40883 14.9306 3.36046L13.8889 2.31879Z" fill="#263238"/>
</svg>
