<?xml version="1.0" encoding="utf-8"?>
<!-- Generator: Adobe Illustrator 25.3.1, SVG Export Plug-In . SVG Version: 6.00 Build 0)  -->
<svg version="1.1" id="Layer_1" xmlns="http://www.w3.org/2000/svg" xmlns:xlink="http://www.w3.org/1999/xlink" x="0px" y="0px"
	 viewBox="0 0 137 137" style="enable-background:new 0 0 137 137;" xml:space="preserve">
<style type="text/css">
	.st0{fill:#EBEBEB;}
	.st1{fill:#E0E0E0;}
	.st2{fill:#F5F5F5;}
	.st3{fill:#FFFFFF;}
	.st4{fill:#2F2F2F;}
	.st5{fill:#555555;}
	.st6{fill:#CECECE;}
	.st7{fill:#ADADAD;}
	.st8{fill:#A2A2A2;}
	.st9{fill:#969696;}
	.st10{opacity:0.3;}
	.st11{opacity:0.3;enable-background:new    ;}
	.st12{fill:#767676;}
	.st13{fill:#FAFAFA;}
	.st14{opacity:0.4;}
	.st15{opacity:0.4;fill:#FFFFFF;enable-background:new    ;}
	.st16{opacity:0.3;fill:#969696;enable-background:new    ;}
	.st17{opacity:0.7;}
	.st18{opacity:0.7;fill:#FFFFFF;enable-background:new    ;}
	.st19{opacity:0.2;}
	.st20{opacity:0.2;fill:#969696;enable-background:new    ;}
</style>
<path class="st0" d="M127,28.6v-2.2h-1.6v2.2h-1.6v12.9h4.6V28.6H127z"/>
<path class="st1" d="M131.8,41.5H93.5v2h38.3V41.5z"/>
<path class="st1" d="M125.9,43.4h-1.1V50h1.1V43.4z"/>
<path class="st1" d="M102.1,43.4H101V50h1.1V43.4z"/>
<path class="st2" d="M115,32.1v-1.6h-1.2v1.6h-1.2v9.4h3.4v-9.4H115z"/>
<path class="st0" d="M121.6,32.1v-1.6h-1.2v1.6h-1.2v9.4h3.4v-9.4H121.6z"/>
<path class="st1" d="M108.2,35.4h-6.1v6.1h6.1V35.4z"/>
<path class="st0" d="M108.2,36.9c0,0-1.3,0.1-3,0.1c-1.7,0-3,0-3-0.1c0,0,1.3-0.1,3-0.1C106.8,36.9,108.2,36.9,108.2,36.9z"/>
<path class="st0" d="M105.4,37.7C105.4,37.7,105.4,37.7,105.4,37.7c0.1,0,0.2,0,0.2,0.1c0.2,0.1,0.3,0.3,0.3,0.6
	c0.1,0.3,0,0.7-0.2,1c-0.1,0.2-0.3,0.3-0.5,0.4c-0.2,0.1-0.4,0.1-0.6,0c-0.2,0-0.4-0.1-0.5-0.3c-0.2-0.1-0.3-0.3-0.3-0.5
	c0-0.2,0-0.3,0-0.5c0.1-0.2,0.1-0.3,0.3-0.4c0.2-0.2,0.4-0.2,0.6-0.2c0.1,0,0.2,0,0.2,0c0,0-0.1,0-0.2,0c-0.2,0-0.4,0.1-0.5,0.3
	c-0.1,0.1-0.2,0.2-0.2,0.4c0,0.1,0,0.3,0,0.4c0,0.2,0.1,0.3,0.3,0.5c0.1,0.1,0.3,0.2,0.5,0.2c0.2,0,0.4,0,0.5,0
	c0.2-0.1,0.3-0.2,0.4-0.3c0.2-0.3,0.2-0.6,0.2-0.9c0-0.2-0.1-0.4-0.3-0.5C105.4,37.8,105.4,37.8,105.4,37.7z"/>
<path class="st0" d="M101.2,13.4v-2.2h-1.6v2.2H98v12.9h4.6V13.4H101.2z"/>
<path class="st1" d="M106,26.2H67.7v2H106V26.2z"/>
<path class="st1" d="M100.1,28.2H99v6.6h1.1V28.2z"/>
<path class="st1" d="M76.3,28.2h-1.1v6.6h1.1V28.2z"/>
<path class="st2" d="M89.2,16.8v-1.6H88v1.6h-1.2v9.4h3.4v-9.4H89.2z"/>
<path class="st0" d="M95.8,16.8v-1.6h-1.2v1.6h-1.2v9.4h3.4v-9.4H95.8z"/>
<path class="st1" d="M82.4,20.1h-6.1v6.1h6.1V20.1z"/>
<path class="st0" d="M82.4,21.7c0,0-1.3,0.1-3,0.1c-1.7,0-3,0-3-0.1c0,0,1.3-0.1,3-0.1C81,21.6,82.4,21.7,82.4,21.7z"/>
<path class="st0" d="M79.6,22.5C79.6,22.5,79.6,22.5,79.6,22.5c0.1,0,0.2,0,0.2,0.1c0.2,0.1,0.3,0.3,0.3,0.6c0,0.2,0,0.3,0,0.5
	c0,0.2-0.1,0.3-0.2,0.5c-0.1,0.2-0.3,0.3-0.5,0.4c-0.2,0.1-0.4,0.1-0.6,0c-0.2,0-0.4-0.1-0.5-0.3c-0.1-0.1-0.3-0.3-0.3-0.5
	c0-0.1,0-0.3,0-0.4c0-0.1,0.1-0.3,0.2-0.4c0.1-0.1,0.2-0.2,0.3-0.3c0.1-0.1,0.3-0.1,0.4-0.1c0.2,0,0.2,0,0.2,0c0,0-0.1,0-0.2,0
	c-0.2,0-0.4,0.1-0.5,0.3c-0.1,0.1-0.2,0.2-0.2,0.4c0,0.1,0,0.3,0,0.4c0.1,0.2,0.1,0.3,0.3,0.5c0.1,0.1,0.3,0.2,0.5,0.2
	c0.2,0,0.4,0,0.5,0c0.2-0.1,0.3-0.2,0.4-0.3c0.2-0.3,0.2-0.6,0.2-0.9c0-0.2-0.1-0.4-0.3-0.5C79.7,22.5,79.6,22.5,79.6,22.5z"/>
<path class="st1" d="M11.1,40.8h21.7v28.3L11.2,69L11.1,40.8z"/>
<path class="st3" d="M9.8,68.9h21.6V40.8H9.8V68.9z"/>
<path class="st1" d="M31.5,40.7V69H9.7V40.7H31.5z M31.3,68.8V40.9H9.9v27.9H31.3z"/>
<path class="st3" d="M28.6,43.9H12v22h16.5V43.9z"/>
<path class="st1" d="M12,43.9c0,0,0,0,0,0.1c0,0.1,0,0.2,0,0.3c0,0.3,0,0.7,0,1.2c0,1,0,2.6,0,4.5c0,3.9,0,9.4,0,15.9l-0.1,0h16.5
	l-0.1,0.1c0-8.2,0-15.8,0-22l0,0l-12,0h-3.3h-0.9L12,43.9c0,0,0.1,0,0.3,0h0.9h3.3l12,0h0v0c0,6.2,0,13.8,0,22v0h-0.1H12h0v-0.1
	c0-6.5,0-12,0-15.9c0-1.9,0-3.5,0-4.5c0-0.5,0-0.9,0-1.2c0-0.1,0-0.2,0-0.3S12,43.9,12,43.9z"/>
<path class="st1" d="M9.8,68.9c0.1-0.2,0.2-0.3,0.3-0.5c0.2-0.3,0.5-0.7,0.8-1.1c0.3-0.4,0.6-0.8,0.8-1.1c0.1-0.1,0.2-0.3,0.4-0.4
	c-0.1,0.2-0.2,0.3-0.3,0.5l-0.8,1.1l-0.8,1.1C10,68.6,9.9,68.8,9.8,68.9L9.8,68.9z"/>
<path class="st1" d="M9.8,40.8c0.4,0.5,0.8,1,1.2,1.5c0.4,0.5,0.7,1,1.1,1.6c-0.4-0.5-0.8-1-1.1-1.5C10.5,41.9,10.1,41.4,9.8,40.8
	L9.8,40.8z"/>
<path class="st1" d="M28.6,44c0.4-0.6,0.9-1.1,1.4-1.6c0.5-0.5,0.9-1.1,1.5-1.5c-0.4,0.6-0.9,1.1-1.4,1.6C29.6,43,29.1,43.5,28.6,44
	L28.6,44z"/>
<path class="st1" d="M31.4,68.9c-0.5-0.5-1-1-1.4-1.5c-0.5-0.5-0.9-1-1.3-1.5c0.5,0.5,1,1,1.4,1.5C30.6,67.8,31,68.4,31.4,68.9z"/>
<path class="st0" d="M15.8,59.5l0.4-0.5c0.3-0.4,0.7-0.9,0.9-1.3c0.2-0.3,0.3-0.7,0.4-1.2s-0.1-0.8-0.3-1.2
	c-0.2-0.5-0.5-0.9-0.8-1.4c-0.3-0.5-0.4-1-0.5-1.5c-0.1-0.5,0-1.1,0.2-1.6c0-0.1,0.1-0.2,0.2-0.4l-0.1,0l0.2-0.4l0,0L16,50.3h0
	l0.7-0.9l0,0l-0.2,0.3c0.4-0.4,0.9-0.8,1.4-1.1c0.2-0.1,0.3-0.3,0.4-0.4c0,0.2,0.1,0.2,0.3,0.1c0.6-0.2,1.1-0.3,1.7-0.3
	c0.8,0,1.7,0.2,2.5,0.4c0.2,0.1,0.3,0.1,0.5,0c0.2,0,0.3-0.1,0.4-0.3c0.1,0.2,0.2,0.5,0.2,0.8c0.1-0.1,0.1-0.3,0.2-0.4
	c0.1,0.2,0.2,0.4,0.3,0.7l0.2-0.2c0,0.3,0,0.5-0.1,0.8c-0.1,0.2-0.3,0.4-0.5,0.6c0,0-0.1,0-0.1,0c0,0,0,0,0,0.1c0,0,0,0.1,0,0.1
	c0,0,0,0.1,0,0.1c0.1,0.5,0.2,1,0.3,1.6c0,0.1,0,0.2,0,0.3c0,0.1-0.1,0.2-0.1,0.3c-0.1,0.1-0.1,0.2-0.1,0.3c0,0.1,0,0.2,0.1,0.3
	c0.3,0.4,0.5,0.8,0.7,1.1c0.2,0.3,0.2,0.5-0.2,0.6c-0.1,0.1-0.3,0.1-0.3,0.2c0,0.1,0.1,0.2,0.1,0.4c0,0.2,0,0.2-0.2,0.4
	c0,0.1,0.1,0.1,0.1,0.2c0,0.1,0.1,0.2-0.1,0.3c-0.1,0-0.1,0.1-0.1,0.2c0,0.1,0,0.1,0,0.2c0,0.1,0.1,0.2,0.1,0.3c0,0.1,0,0.2,0,0.4
	c0,0.1-0.1,0.2-0.2,0.3c-0.1,0.1-0.2,0.2-0.3,0.2c-0.1,0-0.2,0.1-0.3,0c-0.4,0-0.7-0.1-1.1-0.1C22,58,22.1,58,22,58.4
	c-0.1,0.3-0.2,0.6-0.3,0.9c-0.1,0.2-0.1,0.4,0,0.5c0.2,0.6,0.4,1.3,0.5,1.9c0.1,0.4,0.2,0.8,0.3,1.2C20.7,60.9,18.4,60,15.8,59.5z"
	/>
<path class="st1" d="M36.3,15.3h21.4v27.8l-21.2-0.1L36.3,15.3z"/>
<path class="st3" d="M35.1,43h21.3V15.3H35.1V43z"/>
<path class="st1" d="M56.5,15.2v27.8H35V15.2H56.5z M56.3,42.9V15.5H35.2v27.4L56.3,42.9z"/>
<path class="st3" d="M53.6,18.3H37.3V40h16.3V18.3z"/>
<path class="st1" d="M37.3,18.3c0,0,0,0,0,0.1c0,0.1,0,0.2,0,0.3c0,0.3,0,0.7,0,1.2c0,1,0,2.5,0,4.4c0,3.8,0,9.2,0,15.6l-0.1,0h16.3
	L53.5,40c0-8.1,0-15.5,0-21.6l0,0l-11.8,0l-3.3,0h-0.9L37.3,18.3l0.3,0h0.9h3.3l11.9,0h0v0c0,6.1,0,13.6,0,21.6v0.1h-0.1H37.3h0v0
	c0-6.4,0-11.8,0-15.6c0-1.9,0-3.4,0-4.4c0-0.5,0-0.9,0-1.2c0-0.1,0-0.2,0-0.3C37.3,18.4,37.3,18.3,37.3,18.3z"/>
<path class="st1" d="M35.1,43c0.1-0.2,0.2-0.3,0.3-0.5c0.2-0.3,0.5-0.7,0.8-1.1s0.6-0.8,0.8-1c0.1-0.1,0.2-0.3,0.4-0.4
	c-0.1,0.2-0.2,0.3-0.3,0.5l-0.8,1.1l-0.8,1.1C35.3,42.7,35.2,42.8,35.1,43z"/>
<path class="st1" d="M35.1,15.3c0.4,0.5,0.8,1,1.1,1.5c0.4,0.5,0.7,1,1,1.5c-0.4-0.5-0.8-1-1.1-1.5C35.8,16.4,35.4,15.9,35.1,15.3z"
	/>
<path class="st1" d="M53.6,18.5c0,0,0.6-0.7,1.4-1.6c0.5-0.5,0.9-1,1.4-1.5c-0.4,0.6-0.9,1.1-1.4,1.6C54.6,17.5,54.1,18,53.6,18.5
	L53.6,18.5z"/>
<path class="st1" d="M56.4,43c-0.5-0.5-0.9-0.9-1.4-1.4c-0.5-0.5-0.9-1-1.3-1.5c0.5,0.5,0.9,0.9,1.4,1.4C55.5,41.9,56,42.4,56.4,43
	L56.4,43z"/>
<path class="st0" d="M44.5,22.4c0.3,0.2,0.7,0.1,1,0c0.9-0.2,1.5,0,2.3,0.6c0.6,0,1.1-0.2,1.6,0.3c0,0,0.1,0,0.2,0.1l0.3,0.1l0,0.1
	l-0.3-0.1l0,0.1c0,0,0.1,0.1,0.1,0.1c0.8,0.1,1.1,0.7,0.8,1.4c0.1,0.1,0.3,0.3,0.2,0.5c0-0.2-0.1-0.4-0.3-0.4
	c0.1,0.1,0.2,0.3,0.3,0.5c0,0.2,0,0.4,0,0.6c-0.1,0.2-0.2,0.4-0.3,0.5c-0.1,0.1-0.3,0.2-0.5,0.3l0.3,0.1v0l-0.4-0.1
	c-0.1,0.4-0.1,0.8-0.1,1.2c0,1.4-0.5,2.2-1.9,2.7c-0.2,0-0.3,0.1-0.4,0.3c-0.1,0.1-0.1,0.3-0.1,0.5c0,0.5,0.2,1,0.5,1.4
	c0.2,0.3,0.5,0.6,0.8,1c-1.5,0.4-2.9,1.1-4,2.3c0.2-0.5,0.3-0.9,0.4-1.4c0.1-0.9,0-1.9-0.4-2.7c-0.1-0.2-0.3-0.4-0.5-0.5
	c-0.2-0.1-0.5-0.2-0.7-0.1c-0.3,0-0.5,0.1-0.8,0.1c-0.4,0-0.7-0.2-0.8-0.5c0-0.1,0-0.3,0-0.4c0-0.1,0-0.2,0-0.3
	c0-0.1-0.1-0.2-0.1-0.3c-0.2-0.2-0.1-0.3,0.1-0.5c-0.3-0.1-0.3-0.3-0.2-0.5c0,0,0-0.1,0-0.1c0,0,0-0.1,0-0.1c0,0,0-0.1-0.1-0.1
	c0,0-0.1-0.1-0.1-0.1c-0.4-0.2-0.4-0.4-0.1-0.7c0.3-0.3,0.5-0.5,0.7-0.8l-0.4-0.3l0,0c0,0,0.1,0,0.1,0.1c0.1,0,0.1,0,0.2,0
	c0,0,0-0.1,0-0.2c-0.1-0.8,0-1.6,0.3-2.4c0-0.1,0-0.1,0-0.2c-0.4-0.9,0-1.2,0.5-1.7c0.3-0.2,0.6-0.4,0.9-0.4c0.3-0.1,0.7-0.1,1,0H44
	v0L44.5,22.4l-0.6,0c-0.4,0-0.7,0.1-1.1,0.3c0.6-0.2,1.2-0.1,1.9-0.1L44.5,22.4z"/>
<path class="st4" d="M131.1,128.8c0,0.1-28.1,0.2-62.7,0.2c-34.6,0-62.7-0.1-62.7-0.2c0-0.1,28.1-0.2,62.7-0.2
	S131.1,128.6,131.1,128.8z"/>
<path class="st4" d="M50.9,128.5l9-20l3.2,2.5l-9.6,17.5H50.9z"/>
<path class="st4" d="M41,85.9h12.4c1.9,0,3.8,0.6,5.3,1.6c1.6,1.1,2.8,2.5,3.5,4.3l2.5,6h9.3c2.2,0,4.3,0.8,5.9,2.2
	c1.6,1.4,2.7,3.4,3,5.5l0,1.8l-12.5,3.8l-20.7-3L41,85.9z"/>
<path class="st5" d="M73.8,108.7L73.8,108.7l-0.3-1.5c-0.2-1.3-0.9-2.5-1.9-3.4c-1-0.9-2.3-1.4-3.6-1.5l-15.8-0.6l-6.5-13.3
	c-0.5-1.1-1.5-1.9-2.6-2.3c-1.1-0.4-2.4-0.3-3.5,0.2l-0.2,0.1c-0.4,0.2-0.8,0.6-0.9,1c-0.2,0.4-0.2,0.9,0,1.4l8.6,20.4l-8.8,19.5
	h2.8l9.3-17.4h20.1l9.5,17.3h2.7L73.8,108.7z"/>
<path class="st6" d="M91.2,98.1c-0.2-1.3-0.8-2.4-1.7-3.3s-2.2-1.3-3.4-1.3l-16.4-0.3l0.2,8.5h13.9l3.2,25.2h5L91.2,98.1z"/>
<path class="st6" d="M83.9,98.1c-0.2-1.3-0.8-2.4-1.7-3.3s-2.2-1.3-3.4-1.3l-16.4-0.3l0.2,8.5h13.9l3.3,25.2l4.9,0.5L83.9,98.1z"/>
<path class="st7" d="M74.8,93.4c0.2,0,0.4,0,0.6,0c0.4,0,0.9,0,1.6,0c0.8,0,1.6,0.1,2.4,0.3c0.9,0.2,1.8,0.7,2.6,1.3
	c0.7,0.7,1.2,1.5,1.5,2.5c0.2,0.8,0.4,1.6,0.4,2.4c0,0.7,0,1.2,0,1.6c0,0.2,0,0.4,0,0.6c0,0,0-0.1,0-0.2s0-0.3,0-0.4
	c0-0.4,0-0.9,0-1.6c0-0.8-0.1-1.6-0.4-2.4c-0.3-1-0.8-1.9-1.6-2.5c-0.8-0.7-1.7-1.1-2.7-1.3c-0.8-0.2-1.6-0.3-2.4-0.3
	c-0.7,0-1.3,0-1.6,0l-0.4,0C74.9,93.4,74.9,93.4,74.8,93.4L74.8,93.4z"/>
<path class="st8" d="M66,89.8l1.3-1.1l0.3,0.3c0.9,0.8,2,1.4,3.2,1.6l16.4,3.1l-12.4-0.2c-4.9,0.8-3,8.4-3,8.4H55.7
	c-0.4-0.1-0.7-0.2-1-0.5c-0.8-0.6-1.4-1.3-1.8-2.2c-0.4-0.9-0.6-1.8-0.5-2.8c0.2-1.6,0.4-3.2,0.7-4.8l0,0l1-5.8"/>
<path class="st4" d="M54.7,65.2c-1.4-2.1-2.5-4.5-2.6-7.1c-0.1-2.6,1-5.3,3.1-6.7c1.1-0.7,2.6-0.6,2.6-0.6c0,0.1,2.1-1.8,3.1-2.2
	c1.1-0.4,2.3-0.3,3.4,0c1.1,0.4,2,1.1,2.6,2.1c0.9,1.5,1,3.4,0.8,5.2c-0.2,1.8-0.8,3.5-1,5.2s-0.1,3.7,1,5.1c1,1.4,2.6,2.2,3.7,3.5
	c1.4,1.7,1.6,4.2,0.8,6.2c-0.8,2-2.6,3.5-4.7,4.3"/>
<path class="st8" d="M62.1,66.3c-0.5-0.1-2.4,0.4-2.9,0.5C55,67.5,51,70.3,51,70.3c-0.3,1.2,0.1,5,0.3,6.2l2.8,9.4l-1,5.8h15.7
	c-1.3-2.1-2.4-5.8-2.3-8.3c1-2.1,1.5-4.4,1.4-6.8l0.2-2.1c0,0,0.1-2.9-0.5-5.2c-0.4-1.6-3-2.1-4.8-2.3"/>
<path class="st8" d="M67.3,68.8l6.7,11l-3.4,6.5l-7-9.1L67.3,68.8z"/>
<path class="st4" d="M66.5,83.1c0,0,0.2-0.4,0.5-1.1c0.2-0.4,0.3-0.8,0.4-1.3c0.3-1.1,0.3-2.2,0.2-3.3c-0.1-0.4-0.2-0.9-0.3-1.3
	c-0.2-0.7-0.5-1.2-0.4-1.2c0.1,0.1,0.1,0.2,0.2,0.3c0.1,0.1,0.1,0.2,0.2,0.4c0.1,0.1,0.1,0.3,0.2,0.5c0.1,0.4,0.3,0.9,0.3,1.3
	c0.1,0.6,0.1,1.1,0.1,1.7c0,0.6-0.1,1.1-0.3,1.7c-0.1,0.4-0.3,0.9-0.5,1.3c-0.1,0.2-0.2,0.3-0.2,0.5c-0.1,0.1-0.1,0.2-0.2,0.3
	C66.6,82.9,66.5,83,66.5,83.1L66.5,83.1z"/>
<path class="st4" d="M69.2,92c-0.1,0-0.3,0.1-0.4,0.1c-0.2,0.1-0.6,0.1-1.1,0.2c-1.2,0.2-2.3,0.3-3.5,0.3c-1.2,0-2.4-0.1-3.5-0.2
	c-0.4-0.1-0.8-0.1-1.1-0.2c-0.1,0-0.3,0-0.4-0.1c0.1,0,0.3,0,0.4,0c0.2,0,0.6,0.1,1.1,0.1c2.3,0.3,4.7,0.3,7,0
	c0.4-0.1,0.8-0.1,1.1-0.1C68.9,92,69,92,69.2,92z"/>
<path class="st4" d="M67.2,91.7c-0.1,0-0.2,0.1-0.3,0.1c-0.1,0-0.3,0-0.4,0c-0.2,0-0.3,0-0.5,0c-0.4,0-0.9,0-1.3-0.1
	c-1.1-0.2-2.1-0.6-3-1.3c-0.4-0.3-0.7-0.5-1-0.9c-0.1-0.1-0.2-0.2-0.3-0.4c-0.1-0.1-0.2-0.2-0.2-0.3c-0.1-0.1-0.1-0.2-0.2-0.3
	c0,0,0.3,0.4,0.8,0.9c0.3,0.3,0.6,0.6,1,0.8c0.4,0.3,0.9,0.6,1.4,0.8c0.5,0.2,1,0.4,1.5,0.5c0.4,0.1,0.9,0.1,1.3,0.2
	C66.8,91.8,67.2,91.7,67.2,91.7z"/>
<path class="st8" d="M55.8,68.3c0,0-5.3,1.6-6,3.3c-0.8,1.7-1.3,15.4-1.3,15.4l5.9-0.1l0.4-8L55.8,68.3z"/>
<path class="st4" d="M48.5,86.9c0,0,0,0,0.1,0l0.3,0l1.2-0.1l4.2-0.2l-0.1,0.1c0.1-1.8,0.3-3.9,0.4-6.2c0.1-0.8,0.1-1.6,0.2-2.4
	c0.1-0.7,0.1-1.5,0-2.2c-0.1-1.4-0.7-2.7-1.5-3.4c-0.4-0.4-0.9-0.7-1.5-0.9c-0.6-0.2-1.2-0.2-1.7-0.1c0,0,0,0,0.1,0l0.2,0
	c0.2,0,0.5-0.1,0.7-0.1c0.9,0.1,1.7,0.4,2.3,1c0.8,0.7,1.4,2,1.6,3.4c0.1,0.8,0.1,1.5,0,2.3c-0.1,0.8-0.1,1.6-0.2,2.4
	c-0.2,2.3-0.3,4.4-0.4,6.2v0.1h-0.1l-4.2,0.1l-1.2,0h-0.3C48.6,86.9,48.5,86.9,48.5,86.9L48.5,86.9z"/>
<path class="st0" d="M57.4,77.4c0.1,0,0.1,0,0.2-0.1c0,0,0.1-0.1,0.1-0.2c0-0.1,0-0.1-0.1-0.2c0,0-0.1-0.1-0.2-0.1
	c-0.1,0-0.1,0-0.2,0.1c0,0-0.1,0.1-0.1,0.2c0,0.1,0,0.1,0.1,0.2C57.3,77.3,57.4,77.4,57.4,77.4L57.4,77.4z"/>
<path class="st0" d="M62.8,79.9c0.1,0,0.1,0,0.1-0.1c0,0,0.1-0.1,0.1-0.1s0-0.1-0.1-0.1c0,0-0.1-0.1-0.1-0.1c-0.1,0-0.1,0-0.1,0.1
	c0,0-0.1,0.1-0.1,0.1s0,0.1,0.1,0.1C62.7,79.9,62.8,79.9,62.8,79.9L62.8,79.9z"/>
<path class="st0" d="M58.9,82.8C58.9,82.8,58.9,82.8,58.9,82.8C59,82.8,59,82.8,58.9,82.8c0.1-0.1,0.1-0.1,0.1-0.2c0,0,0,0-0.1,0
	c0,0,0,0-0.1,0C58.8,82.7,58.8,82.7,58.9,82.8C58.8,82.8,58.8,82.8,58.9,82.8C58.8,82.8,58.9,82.8,58.9,82.8z"/>
<path class="st0" d="M62.7,76.2c0.1,0,0.1,0,0.1-0.1c0,0,0.1-0.1,0.1-0.1c0-0.1,0-0.1-0.1-0.1c0,0-0.1-0.1-0.1-0.1
	c-0.1,0-0.1,0-0.1,0.1c0,0-0.1,0.1-0.1,0.1c0,0.1,0,0.1,0.1,0.1C62.6,76.2,62.6,76.2,62.7,76.2z"/>
<path class="st0" d="M56.3,72.9C56.3,72.9,56.4,72.9,56.3,72.9c0.1-0.1,0.1-0.1,0.1-0.1c0,0,0-0.1,0-0.1c0,0-0.1,0-0.1,0
	s-0.1,0-0.1,0c0,0,0,0.1,0,0.1C56.2,72.9,56.2,72.9,56.3,72.9C56.2,72.9,56.3,72.9,56.3,72.9z"/>
<path class="st0" d="M66.4,71.2C66.4,71.2,66.5,71.2,66.4,71.2c0.1-0.1,0.1-0.1,0.1-0.1c0,0,0-0.1,0-0.1c0,0-0.1,0-0.1,0
	c0,0-0.1,0-0.1,0c0,0,0,0.1,0,0.1C66.3,71.1,66.3,71.2,66.4,71.2C66.3,71.2,66.4,71.2,66.4,71.2z"/>
<path class="st0" d="M66.1,79.5c0.1,0,0.1,0,0.1-0.1c0,0,0.1-0.1,0.1-0.1c0-0.1,0-0.1-0.1-0.1c0,0-0.1-0.1-0.1-0.1
	c-0.1,0-0.1,0-0.1,0.1c0,0-0.1,0.1-0.1,0.1c0,0.1,0,0.1,0.1,0.1C66,79.4,66.1,79.5,66.1,79.5L66.1,79.5z"/>
<path class="st0" d="M63.3,85.2c0,0,0.1,0,0.1-0.1c0,0,0-0.1,0-0.1s0-0.1,0-0.1c0,0-0.1-0.1-0.1-0.1c0,0-0.1,0-0.1,0.1
	c0,0,0,0.1,0,0.1s0,0.1,0,0.1C63.2,85.2,63.3,85.2,63.3,85.2L63.3,85.2z"/>
<path class="st0" d="M55.8,85.9c0,0,0.1,0,0.1-0.1c0,0,0-0.1,0-0.1c0,0,0-0.1,0-0.1c0,0-0.1-0.1-0.1-0.1c0,0-0.1,0-0.1,0.1
	c0,0,0,0.1,0,0.1c0,0,0,0.1,0,0.1C55.7,85.9,55.7,85.9,55.8,85.9L55.8,85.9z"/>
<path class="st0" d="M60.6,78.2c0,0,0.1,0,0.1-0.1c0,0,0-0.1,0-0.1c0,0,0-0.1,0-0.1c0,0-0.1-0.1-0.1-0.1c0,0-0.1,0-0.1,0.1
	c0,0,0,0.1,0,0.1c0,0,0,0.1,0,0.1C60.5,78.1,60.5,78.2,60.6,78.2L60.6,78.2z"/>
<path class="st0" d="M62,73.2C62.1,73.2,62.1,73.2,62,73.2C62.1,73.2,62.1,73.2,62,73.2c0.1-0.1,0.1-0.1,0.1-0.1s0,0-0.1,0
	s0,0-0.1,0C62,73.1,62,73.1,62,73.2C62,73.2,62,73.2,62,73.2C62,73.2,62,73.2,62,73.2L62,73.2z"/>
<path class="st0" d="M68.5,74.3c0,0,0.1,0,0.1-0.1s0-0.1,0-0.1c0,0,0-0.1,0-0.1c0,0-0.1-0.1-0.1-0.1c0,0-0.1,0-0.1,0.1
	c0,0,0,0.1,0,0.1c0,0,0,0.1,0,0.1S68.4,74.3,68.5,74.3L68.5,74.3z"/>
<path class="st0" d="M70.9,80.8c0.1,0,0.1,0,0.2-0.1c0.1-0.1,0.1-0.1,0.1-0.2c0-0.1,0-0.1-0.1-0.2s-0.1-0.1-0.2-0.1
	c-0.1,0-0.1,0-0.2,0.1s-0.1,0.1-0.1,0.2c0,0.1,0,0.1,0.1,0.2C70.8,80.8,70.8,80.8,70.9,80.8z"/>
<path class="st0" d="M68.8,82.1c0,0,0.1,0,0.1-0.1c0,0,0-0.1,0-0.1c0,0,0-0.1,0-0.1c0,0-0.1-0.1-0.1-0.1c0,0-0.1,0-0.1,0.1
	c0,0,0,0.1,0,0.1c0,0,0,0.1,0,0.1C68.7,82.1,68.7,82.1,68.8,82.1L68.8,82.1z"/>
<path class="st0" d="M69.3,77.2C69.4,77.2,69.4,77.2,69.3,77.2C69.4,77.2,69.4,77.2,69.3,77.2c0.1-0.1,0-0.1,0-0.1c0,0,0,0,0,0
	c0,0,0,0,0,0C69.3,77.1,69.3,77.1,69.3,77.2C69.3,77.2,69.3,77.2,69.3,77.2C69.3,77.2,69.3,77.2,69.3,77.2z"/>
<path class="st0" d="M70,85.1c0.1,0,0.1,0,0.1-0.1c0,0,0.1-0.1,0.1-0.2s0-0.1-0.1-0.2c0,0-0.1-0.1-0.1-0.1c-0.1,0-0.1,0-0.1,0.1
	c0,0-0.1,0.1-0.1,0.2s0,0.1,0.1,0.2C69.9,85.1,69.9,85.1,70,85.1L70,85.1z"/>
<path class="st0" d="M51.9,81.3C52,81.3,52,81.3,51.9,81.3C52,81.2,52,81.2,51.9,81.3c0.1-0.1,0.1-0.1,0.1-0.1c0,0,0,0-0.1,0
	s0,0-0.1,0C51.9,81.1,51.9,81.2,51.9,81.3C51.9,81.2,51.9,81.2,51.9,81.3C51.9,81.3,51.9,81.3,51.9,81.3L51.9,81.3z"/>
<path class="st0" d="M53.7,77.1L53.7,77.1c0-0.1,0-0.1-0.1-0.1c0,0-0.1,0-0.1,0s-0.1,0-0.1,0c0,0,0,0.1-0.1,0.1v0
	C53.3,77.4,53.8,77.4,53.7,77.1L53.7,77.1z"/>
<path class="st0" d="M50.2,75.4L50.2,75.4c-0.3,0-0.3,0.4,0,0.3h0c0,0,0.1,0,0.1,0c0,0,0-0.1,0-0.1c0,0,0-0.1,0-0.1
	C50.3,75.5,50.2,75.4,50.2,75.4L50.2,75.4z"/>
<path class="st0" d="M50.4,78.7c0,0,0.1,0,0.1-0.1c0,0,0-0.1,0-0.1c0,0,0-0.1,0-0.1c0,0-0.1-0.1-0.1-0.1c0,0-0.1,0-0.1,0.1
	s0,0.1,0,0.1c0,0,0,0.1,0,0.1C50.4,78.7,50.4,78.7,50.4,78.7L50.4,78.7z"/>
<path class="st0" d="M53.1,84.7c0,0,0.1,0,0.1-0.1s0-0.1,0-0.1c0,0,0-0.1,0-0.1c0,0-0.1-0.1-0.1-0.1c0,0-0.1,0-0.1,0.1
	c0,0,0,0.1,0,0.1c0,0,0,0.1,0,0.1C53,84.6,53,84.7,53.1,84.7L53.1,84.7z"/>
<path class="st0" d="M50,85.2C50,85.2,50,85.2,50,85.2c0.1-0.1,0.1-0.1,0.1-0.1c0,0,0-0.1,0-0.1c0,0-0.1,0-0.1,0s-0.1,0-0.1,0
	c0,0,0,0.1,0,0.1C49.9,85.1,49.9,85.2,50,85.2C49.9,85.2,49.9,85.2,50,85.2z"/>
<path class="st0" d="M52.5,74.1c0,0,0.1,0,0.1,0c0,0,0-0.1,0-0.1s0-0.1,0-0.1c0,0-0.1,0-0.1,0c0,0-0.1,0-0.1,0c0,0,0,0.1,0,0.1
	s0,0.1,0,0.1C52.4,74.1,52.5,74.1,52.5,74.1L52.5,74.1z"/>
<path class="st0" d="M56.4,80.7C56.4,80.7,56.5,80.7,56.4,80.7c0.1-0.1,0.1-0.1,0.1-0.1c0,0,0-0.1,0-0.1c0,0,0,0-0.1,0
	c0,0-0.1,0-0.1,0c0,0,0,0.1,0,0.1C56.3,80.6,56.3,80.6,56.4,80.7C56.3,80.7,56.4,80.7,56.4,80.7L56.4,80.7z"/>
<path class="st0" d="M58.9,86C59,86,59,86,58.9,86C59,86,59,86,59,85.9c0,0,0-0.1,0-0.1c0,0,0,0-0.1,0c0,0-0.1,0-0.1,0
	c0,0,0,0,0,0.1C58.8,86,58.9,86,58.9,86C58.9,86,58.9,86,58.9,86L58.9,86z"/>
<path class="st0" d="M54.6,97.1L54.6,97.1c-0.1,0.1-0.1,0.1-0.1,0.2c0,0,0,0.1,0.1,0.1c0,0,0.1,0.1,0.1,0.1c0,0,0.1,0,0.1,0l0,0
	C55,97.2,54.8,96.9,54.6,97.1L54.6,97.1z"/>
<path class="st0" d="M57.7,93.6C57.8,93.6,57.8,93.6,57.7,93.6c0.1-0.1,0.1-0.1,0.1-0.1c0,0,0-0.1,0-0.1c0,0-0.1,0-0.1,0
	c0,0-0.1,0-0.1,0c0,0,0,0.1,0,0.1C57.6,93.5,57.6,93.6,57.7,93.6C57.7,93.6,57.7,93.6,57.7,93.6z"/>
<path class="st0" d="M54.6,93.4C54.6,93.4,54.6,93.4,54.6,93.4c0.1-0.1,0.1-0.1,0.1-0.1c0,0,0-0.1,0-0.1c0,0,0,0-0.1,0
	c0,0-0.1,0-0.1,0c0,0,0,0.1,0,0.1C54.5,93.3,54.5,93.3,54.6,93.4C54.5,93.4,54.6,93.4,54.6,93.4L54.6,93.4z"/>
<path class="st0" d="M57.4,101.1C57.4,101.1,57.4,101.1,57.4,101.1c0.1-0.1,0.1-0.1,0.1-0.1c0,0,0-0.1,0-0.1c0,0,0,0-0.1,0
	c0,0-0.1,0-0.1,0c0,0,0,0,0,0.1C57.3,101,57.3,101,57.4,101.1C57.3,101.1,57.4,101.1,57.4,101.1L57.4,101.1z"/>
<path class="st0" d="M61.2,96.5c0.1,0,0.1,0,0.2-0.1c0,0,0.1-0.1,0.1-0.2s0-0.1-0.1-0.2c0,0-0.1-0.1-0.2-0.1S61,96,61,96
	c0,0-0.1,0.1-0.1,0.2s0,0.1,0.1,0.2C61,96.4,61.1,96.5,61.2,96.5L61.2,96.5z"/>
<path class="st0" d="M58.2,96.6C58.2,96.6,58.2,96.6,58.2,96.6C58.3,96.6,58.3,96.6,58.2,96.6c0.1-0.1,0.1-0.1,0.1-0.2
	c0,0,0,0-0.1,0c0,0,0,0-0.1,0C58.1,96.5,58.1,96.5,58.2,96.6C58.1,96.6,58.1,96.6,58.2,96.6C58.1,96.6,58.2,96.6,58.2,96.6z"/>
<path class="st0" d="M61.7,100.6c0,0,0.1,0,0.1-0.1c0,0,0.1-0.1,0.1-0.1c0,0,0-0.1-0.1-0.1c0,0-0.1-0.1-0.1-0.1c0,0-0.1,0-0.1,0.1
	c0,0-0.1,0.1-0.1,0.1c0,0,0,0.1,0.1,0.1C61.7,100.6,61.7,100.6,61.7,100.6L61.7,100.6z"/>
<path class="st0" d="M65.6,94.3C65.6,94.3,65.6,94.3,65.6,94.3c0.1-0.1,0.1-0.1,0.1-0.1s0-0.1,0-0.1c0,0-0.1,0-0.1,0
	c0,0-0.1,0-0.1,0c0,0,0,0.1,0,0.1S65.4,94.2,65.6,94.3C65.5,94.3,65.5,94.3,65.6,94.3z"/>
<path class="st0" d="M61.6,91.3C61.7,91.3,61.7,91.3,61.6,91.3C61.7,91.2,61.7,91.2,61.6,91.3c0.1-0.1,0.1-0.1,0.1-0.2
	c0,0,0,0-0.1,0c0,0,0,0-0.1,0C61.6,91.1,61.5,91.2,61.6,91.3C61.5,91.2,61.6,91.2,61.6,91.3C61.6,91.3,61.6,91.3,61.6,91.3
	L61.6,91.3z"/>
<path class="st0" d="M65.9,90.8C65.9,90.8,66,90.7,65.9,90.8c0.1-0.1,0.1-0.1,0.1-0.1c0,0,0-0.1,0-0.1c0,0-0.1,0-0.1,0s-0.1,0-0.1,0
	c0,0,0,0.1,0,0.1C65.8,90.7,65.8,90.7,65.9,90.8C65.8,90.7,65.9,90.8,65.9,90.8L65.9,90.8z"/>
<path class="st0" d="M70.8,95.8C70.9,95.8,70.9,95.8,70.8,95.8c0.1-0.1,0.1-0.1,0.1-0.1s0-0.1,0-0.1c0,0-0.1,0-0.1,0
	c0,0-0.1,0-0.1,0c0,0,0,0.1,0,0.1S70.7,95.8,70.8,95.8C70.8,95.8,70.8,95.8,70.8,95.8z"/>
<path class="st0" d="M69.4,100.6c0.1,0,0.1,0,0.1-0.1c0,0,0.1-0.1,0.1-0.1s0-0.1-0.1-0.1c0,0-0.1-0.1-0.1-0.1c-0.1,0-0.1,0-0.1,0.1
	c0,0-0.1,0.1-0.1,0.1s0,0.1,0.1,0.1C69.3,100.6,69.4,100.6,69.4,100.6L69.4,100.6z"/>
<path class="st0" d="M65.7,98.7C65.8,98.7,65.8,98.7,65.7,98.7c0.1-0.1,0.1-0.1,0.1-0.1c0,0,0-0.1,0-0.1c0,0,0,0-0.1-0.1
	c0,0-0.1,0-0.1,0.1c0,0,0,0.1,0,0.1C65.6,98.6,65.6,98.6,65.7,98.7C65.7,98.7,65.7,98.7,65.7,98.7L65.7,98.7z"/>
<path class="st0" d="M68.9,93.2C68.9,93.2,69,93.2,68.9,93.2c0.1-0.1,0.1-0.1,0.1-0.1s0-0.1,0-0.1s0,0-0.1,0c0,0-0.1,0-0.1,0
	s0,0,0,0.1S68.8,93.2,68.9,93.2C68.8,93.2,68.9,93.2,68.9,93.2L68.9,93.2z"/>
<path class="st0" d="M77.2,93c0,0,0.1,0,0.1-0.1c0,0,0-0.1,0-0.1c0,0,0-0.1,0-0.1c0,0-0.1-0.1-0.1-0.1c0,0-0.1,0-0.1,0.1
	c0,0,0,0.1,0,0.1c0,0,0,0.1,0,0.1C77.1,92.9,77.1,93,77.2,93L77.2,93z"/>
<path class="st0" d="M72.4,92.2C72.4,92.2,72.4,92.2,72.4,92.2c0.1-0.1,0.1-0.1,0.1-0.1c0,0,0-0.1,0-0.1c0,0-0.1,0-0.1,0
	c0,0-0.1,0-0.1,0c0,0,0,0.1,0,0.1C72.2,92.1,72.2,92.1,72.4,92.2C72.3,92.2,72.3,92.2,72.4,92.2L72.4,92.2z"/>
<path class="st0" d="M53.8,70C53.8,70,53.8,70,53.8,70c0.1-0.1,0.1-0.1,0.1-0.1c0,0,0-0.1,0-0.1c0,0-0.1,0-0.1,0c0,0-0.1,0-0.1,0
	c0,0,0,0.1,0,0.1C53.6,69.9,53.6,70,53.8,70C53.7,70,53.7,70,53.8,70z"/>
<path class="st0" d="M56,69.2L56,69.2c0-0.2-0.2-0.2-0.2-0.1v0.1c0,0,0,0.1,0,0.1c0,0,0,0,0.1,0C55.9,69.3,55.9,69.3,56,69.2
	C56,69.2,56,69.2,56,69.2L56,69.2z"/>
<path class="st0" d="M59.2,72C59.2,72,59.2,72,59.2,72C59.2,72,59.2,72,59.2,72c0.1-0.1,0.1-0.1,0-0.1c0,0,0,0,0,0c0,0,0,0,0,0
	C59.1,71.9,59.1,71.9,59.2,72C59.1,72,59.1,72,59.2,72C59.1,72,59.1,72,59.2,72L59.2,72z"/>
<path class="st0" d="M64.4,71.1L64.4,71.1c0-0.1,0-0.1,0-0.1c0,0,0,0,0-0.1c0,0,0,0,0,0c0,0,0,0-0.1,0c0,0,0,0-0.1,0c0,0,0,0,0,0
	c0,0,0,0,0,0.1c0,0,0,0,0,0.1v0.1c0,0,0,0,0,0.1c0,0,0,0,0.1,0C64.3,71.2,64.3,71.2,64.4,71.1C64.4,71.1,64.4,71.1,64.4,71.1
	L64.4,71.1z"/>
<path class="st0" d="M65.1,68.4C65.2,68.4,65.2,68.3,65.1,68.4c0.1-0.1,0.1-0.1,0.1-0.1s0-0.1,0-0.1c0,0,0,0-0.1-0.1
	c0,0-0.1,0-0.1,0.1c0,0,0,0.1,0,0.1S65,68.3,65.1,68.4C65.1,68.3,65.1,68.4,65.1,68.4L65.1,68.4z"/>
<path class="st0" d="M59.3,80.1C59.3,80.1,59.3,80.1,59.3,80.1C59.3,80,59.3,80,59.3,80.1c0.1-0.1,0.1-0.1,0.1-0.2c0,0,0,0-0.1,0
	c0,0,0,0-0.1,0C59.2,79.9,59.2,80,59.3,80.1C59.2,80,59.2,80,59.3,80.1C59.2,80.1,59.2,80.1,59.3,80.1z"/>
<path class="st0" d="M56.2,83.4C56.3,83.4,56.3,83.4,56.2,83.4c0.1-0.1,0.1-0.1,0.1-0.1c0,0,0-0.1,0-0.1c0,0-0.1,0-0.1,0
	s-0.1,0-0.1,0c0,0,0,0.1,0,0.1C56.1,83.3,56.1,83.4,56.2,83.4C56.2,83.4,56.2,83.4,56.2,83.4z"/>
<path class="st0" d="M61,84C61,84,61,84,61,84C61,84,61,84,61,84C61,84,61,84,61,84C61,84,61,84,61,84C61,84,61,84,61,84
	C61,84,61,84,61,84C61,84,61,84,61,84C61,84,61,84,61,84L61,84z"/>
<path class="st0" d="M65.5,82.3c0.1,0,0.1,0,0.1-0.1s0.1-0.1,0.1-0.1s0-0.1-0.1-0.1s-0.1-0.1-0.1-0.1c-0.1,0-0.1,0-0.1,0.1
	c0,0-0.1,0.1-0.1,0.1s0,0.1,0.1,0.1C65.4,82.3,65.5,82.3,65.5,82.3z"/>
<path class="st0" d="M65.2,77.1c0,0,0.1,0,0.1-0.1c0,0,0-0.1,0-0.1c0,0,0-0.1,0-0.1c0,0-0.1-0.1-0.1-0.1c0,0-0.1,0-0.1,0.1
	c0,0,0,0.1,0,0.1c0,0,0,0.1,0,0.1C65.2,77.1,65.2,77.1,65.2,77.1L65.2,77.1z"/>
<path class="st0" d="M61.7,83.7C61.7,83.7,61.7,83.7,61.7,83.7c0.1-0.1,0.1-0.1,0.1-0.1c0,0,0-0.1,0-0.1c0,0-0.1,0-0.1,0
	c0,0-0.1,0-0.1,0c0,0,0,0.1,0,0.1C61.5,83.6,61.6,83.7,61.7,83.7C61.6,83.7,61.6,83.7,61.7,83.7z"/>
<path class="st0" d="M58.5,74.4C58.6,74.4,58.6,74.3,58.5,74.4c0.1-0.1,0.1-0.1,0.1-0.1c0,0,0-0.1,0-0.1c0,0,0,0-0.1,0
	c0,0-0.1,0-0.1,0c0,0,0,0,0,0.1C58.4,74.3,58.4,74.3,58.5,74.4C58.5,74.3,58.5,74.4,58.5,74.4L58.5,74.4z"/>
<path class="st0" d="M65.1,73.4c0,0,0.1,0,0.1,0c0,0,0-0.1,0-0.1c0,0,0-0.1,0-0.1c0,0-0.1,0-0.1,0c0,0-0.1,0-0.1,0c0,0,0,0.1,0,0.1
	c0,0,0,0.1,0,0.1C65,73.4,65.1,73.4,65.1,73.4L65.1,73.4z"/>
<path class="st0" d="M68,71.2C68.1,71.2,68.1,71.2,68,71.2c0.1-0.1,0.1-0.1,0.1-0.1s0-0.1,0-0.1c0,0,0,0-0.1-0.1c0,0-0.1,0-0.1,0.1
	c0,0,0,0.1,0,0.1S67.9,71.1,68,71.2C68,71.2,68,71.2,68,71.2L68,71.2z"/>
<path class="st0" d="M71.6,77.5c0,0,0.1,0,0.1,0c0,0,0-0.1,0-0.1c0,0,0-0.1,0-0.1c0,0-0.1,0-0.1,0c0,0-0.1,0-0.1,0c0,0,0,0.1,0,0.1
	c0,0,0,0.1,0,0.1C71.5,77.5,71.5,77.5,71.6,77.5L71.6,77.5z"/>
<path class="st0" d="M68.8,80.2C68.8,80.2,68.8,80.2,68.8,80.2C68.9,80.2,68.9,80.2,68.8,80.2c0.1-0.1,0.1-0.1,0-0.1c0,0,0,0,0,0
	s0,0,0,0C68.8,80.1,68.7,80.1,68.8,80.2C68.7,80.2,68.8,80.2,68.8,80.2C68.8,80.2,68.8,80.2,68.8,80.2L68.8,80.2z"/>
<path class="st0" d="M71.1,83.2C71.1,83.2,71.1,83.2,71.1,83.2C71.2,83.2,71.2,83.1,71.1,83.2c0.1-0.1,0.1-0.1,0.1-0.1
	c0,0,0,0-0.1,0c0,0,0,0-0.1,0C71,83.1,71,83.1,71.1,83.2C71,83.1,71,83.2,71.1,83.2C71.1,83.2,71.1,83.2,71.1,83.2L71.1,83.2z"/>
<path class="st0" d="M72.6,80.4c0.1,0,0.1,0,0.1-0.1c0,0,0.1-0.1,0.1-0.1c0-0.1,0-0.1-0.1-0.1c0,0-0.1-0.1-0.1-0.1
	c-0.1,0-0.1,0-0.1,0.1c0,0-0.1,0.1-0.1,0.1c0,0.1,0,0.1,0.1,0.1C72.5,80.3,72.5,80.4,72.6,80.4L72.6,80.4z"/>
<path class="st0" d="M53.4,82.7c0.1,0,0.1,0,0.2-0.1c0,0,0.1-0.1,0.1-0.2c0-0.1,0-0.1-0.1-0.2c0,0-0.1-0.1-0.2-0.1s-0.1,0-0.2,0.1
	c0,0-0.1,0.1-0.1,0.2c0,0.1,0,0.1,0.1,0.2C53.3,82.7,53.3,82.7,53.4,82.7z"/>
<path class="st0" d="M49.9,83.7C49.9,83.7,50,83.7,49.9,83.7c0.1-0.1,0.1-0.1,0.1-0.1c0,0,0-0.1,0-0.1c0,0-0.1,0-0.1,0
	c0,0-0.1,0-0.1,0c0,0,0,0.1,0,0.1C49.7,83.6,49.8,83.7,49.9,83.7C49.8,83.7,49.8,83.7,49.9,83.7z"/>
<path class="st0" d="M51.2,85.5c0.1,0,0.1,0,0.2-0.1c0,0,0.1-0.1,0.1-0.2c0-0.1,0-0.1-0.1-0.2c0,0-0.1-0.1-0.2-0.1
	c-0.1,0-0.1,0-0.2,0.1c0,0-0.1,0.1-0.1,0.2c0,0.1,0,0.1,0.1,0.2C51,85.5,51.1,85.5,51.2,85.5L51.2,85.5z"/>
<path class="st0" d="M53.3,79.1C53.3,79.1,53.3,79.1,53.3,79.1C53.3,79.1,53.3,79.1,53.3,79.1C53.3,79.1,53.3,79.1,53.3,79.1
	C53.3,79.1,53.3,79.1,53.3,79.1C53.3,79.1,53.3,79.1,53.3,79.1C53.3,79.1,53.3,79.1,53.3,79.1C53.3,79.1,53.3,79.1,53.3,79.1
	C53.3,79.1,53.3,79.1,53.3,79.1L53.3,79.1z"/>
<path class="st0" d="M51.3,76.9C51.4,76.9,51.4,76.9,51.3,76.9c0.1-0.1,0.1-0.1,0.1-0.1c0,0,0-0.1,0-0.1c0,0-0.1,0-0.1,0
	c0,0-0.1,0-0.1,0c0,0,0,0.1,0,0.1C51.2,76.8,51.2,76.8,51.3,76.9C51.3,76.9,51.3,76.9,51.3,76.9z"/>
<path class="st0" d="M53.3,75.2C53.4,75.2,53.4,75.1,53.3,75.2c0.1-0.1,0.1-0.1,0.1-0.1s0-0.1,0-0.1c0,0-0.1,0-0.1,0
	c0,0-0.1,0-0.1,0c0,0,0,0.1,0,0.1S53.2,75.1,53.3,75.2C53.3,75.1,53.3,75.2,53.3,75.2L53.3,75.2z"/>
<path class="st0" d="M52.2,70.6C52.2,70.6,52.3,70.5,52.2,70.6c0.1-0.1,0.1-0.1,0.1-0.1s0-0.1,0-0.1c0,0-0.1,0-0.1,0
	c0,0-0.1,0-0.1,0c0,0,0,0.1,0,0.1S52.1,70.5,52.2,70.6C52.1,70.5,52.1,70.6,52.2,70.6z"/>
<path class="st0" d="M55,71.1c0,0,0.1,0,0.1,0c0,0,0-0.1,0-0.1c0,0,0-0.1,0-0.1c0,0-0.1,0-0.1,0c0,0-0.1,0-0.1,0c0,0,0,0.1,0,0.1
	c0,0,0,0.1,0,0.1C54.9,71.1,55,71.1,55,71.1L55,71.1z"/>
<path class="st0" d="M57,70.4C57,70.4,57,70.4,57,70.4c0.1-0.1,0.1-0.1,0.1-0.1c0,0,0-0.1,0-0.1c0,0,0,0-0.1,0c0,0-0.1,0-0.1,0
	c0,0,0,0,0,0.1C56.8,70.3,56.9,70.4,57,70.4C56.9,70.4,56.9,70.4,57,70.4L57,70.4z"/>
<path class="st0" d="M56.4,75.6C56.4,75.6,56.4,75.6,56.4,75.6c0.1-0.1,0.1-0.1,0.1-0.1s0-0.1,0-0.1c0,0,0,0-0.1-0.1
	c0,0-0.1,0-0.1,0.1c0,0,0,0.1,0,0.1S56.3,75.5,56.4,75.6C56.3,75.6,56.3,75.6,56.4,75.6L56.4,75.6z"/>
<path class="st0" d="M61.4,74.1C61.4,74.1,61.4,74.1,61.4,74.1C61.4,74.1,61.5,74.1,61.4,74.1c0.1-0.1,0.1-0.1,0.1-0.1
	c0,0,0,0-0.1,0s0,0-0.1,0C61.3,74,61.3,74,61.4,74.1C61.3,74.1,61.3,74.1,61.4,74.1C61.3,74.1,61.4,74.1,61.4,74.1z"/>
<path class="st0" d="M63.7,70.5C63.8,70.5,63.8,70.5,63.7,70.5c0.1-0.1,0.1-0.1,0.1-0.1c0,0,0-0.1,0-0.1c0,0-0.1,0-0.1,0
	c0,0-0.1,0-0.1,0c0,0,0,0.1,0,0.1C63.6,70.4,63.6,70.4,63.7,70.5C63.7,70.5,63.7,70.5,63.7,70.5L63.7,70.5z"/>
<path class="st0" d="M66,75.2C66,75.2,66,75.2,66,75.2C66,75.2,66,75.2,66,75.2c0.1-0.1,0.1-0.1,0-0.1c0,0,0,0,0,0s0,0,0,0
	C65.9,75.1,65.9,75.1,66,75.2C65.9,75.2,65.9,75.2,66,75.2C65.9,75.2,66,75.2,66,75.2L66,75.2z"/>
<path class="st0" d="M69.2,75.7C69.2,75.7,69.2,75.7,69.2,75.7c0.1-0.1,0.1-0.1,0.1-0.1s0-0.1,0-0.1c0,0,0,0-0.1,0s-0.1,0-0.1,0
	c0,0,0,0,0,0.1S69.1,75.6,69.2,75.7C69.1,75.7,69.1,75.7,69.2,75.7L69.2,75.7z"/>
<path class="st0" d="M63.4,82.7C63.5,82.7,63.5,82.6,63.4,82.7c0.1-0.1,0.1-0.1,0.1-0.1s0-0.1,0-0.1c0,0-0.1,0-0.1,0
	c0,0-0.1,0-0.1,0c0,0,0,0.1,0,0.1S63.3,82.6,63.4,82.7C63.4,82.6,63.4,82.7,63.4,82.7z"/>
<path class="st0" d="M61.4,94.3C61.5,94.2,61.5,94.2,61.4,94.3c0.1-0.1,0.1-0.1,0.1-0.1c0,0,0-0.1,0-0.1c0,0,0,0-0.1,0
	c0,0-0.1,0-0.1,0c0,0,0,0.1,0,0.1C61.3,94.2,61.3,94.2,61.4,94.3C61.4,94.2,61.4,94.2,61.4,94.3L61.4,94.3z"/>
<path class="st0" d="M55.9,99.7L55.9,99.7c-0.1,0-0.1,0-0.1,0c0,0,0,0.1,0,0.1c0,0,0,0.1,0,0.1c0,0,0,0,0.1,0h0.1
	C56.1,100,56.1,99.6,55.9,99.7L55.9,99.7z"/>
<path class="st0" d="M53.6,95.6c0,0,0.1,0,0.1-0.1c0,0,0-0.1,0-0.1c0,0,0-0.1,0-0.1c0,0-0.1-0.1-0.1-0.1c0,0-0.1,0-0.1,0.1
	c0,0,0,0.1,0,0.1c0,0,0,0.1,0,0.1C53.6,95.5,53.6,95.6,53.6,95.6L53.6,95.6z"/>
<path class="st0" d="M63.7,97.5C63.7,97.5,63.7,97.4,63.7,97.5c0.1-0.1,0.1-0.1,0.1-0.1s0-0.1,0-0.1c0,0,0,0-0.1-0.1
	c0,0-0.1,0-0.1,0.1c0,0,0,0.1,0,0.1S63.6,97.4,63.7,97.5C63.6,97.4,63.6,97.5,63.7,97.5L63.7,97.5z"/>
<path class="st8" d="M59.4,99C59.4,99,59.4,99,59.4,99c0.1-0.1,0.1-0.1,0.1-0.1c0,0,0-0.1,0-0.1c0,0,0,0-0.1,0c0,0-0.1,0-0.1,0
	c0,0,0,0.1,0,0.1C59.3,98.9,59.3,98.9,59.4,99C59.3,99,59.3,99,59.4,99z"/>
<path class="st0" d="M68.8,99c0.1,0,0.1,0,0.2-0.1c0,0,0.1-0.1,0.1-0.2c0-0.1,0-0.1-0.1-0.2c0,0-0.1-0.1-0.2-0.1
	c-0.1,0-0.1,0-0.2,0.1c0,0-0.1,0.1-0.1,0.2c0,0.1,0,0.1,0.1,0.2C68.7,98.9,68.7,99,68.8,99L68.8,99z"/>
<path class="st0" d="M66.2,100.9c0,0,0.1,0,0.1-0.1c0,0,0-0.1,0-0.1c0,0,0-0.1,0-0.1c0,0-0.1-0.1-0.1-0.1c0,0-0.1,0-0.1,0.1
	c0,0,0,0.1,0,0.1c0,0,0,0.1,0,0.1C66.1,100.9,66.2,100.9,66.2,100.9L66.2,100.9z"/>
<path class="st0" d="M67.2,96.5c0,0,0.1,0,0.1,0c0,0,0-0.1,0-0.1c0,0,0-0.1,0-0.1c0,0-0.1,0-0.1,0s-0.1,0-0.1,0c0,0,0,0.1,0,0.1
	c0,0,0,0.1,0,0.1C67.2,96.4,67.2,96.5,67.2,96.5z"/>
<path class="st0" d="M64,95.7C64.1,95.7,64.1,95.7,64,95.7C64.1,95.7,64.1,95.7,64,95.7c0.1-0.1,0.1-0.1,0.1-0.2c0,0,0,0-0.1,0
	s0,0-0.1,0C63.9,95.6,63.9,95.6,64,95.7C63.9,95.7,63.9,95.7,64,95.7C64,95.7,64,95.7,64,95.7L64,95.7z"/>
<path class="st0" d="M68,94.7c0,0,0.1,0,0.1-0.1s0.1-0.1,0.1-0.1s0-0.1-0.1-0.1c0,0-0.1-0.1-0.1-0.1s-0.1,0-0.1,0.1
	c0,0-0.1,0.1-0.1,0.1s0,0.1,0.1,0.1C67.9,94.7,67.9,94.7,68,94.7L68,94.7z"/>
<path class="st0" d="M58.8,92.3c0,0,0.1,0,0.1,0c0,0,0-0.1,0-0.1c0,0,0-0.1,0-0.1c0,0-0.1,0-0.1,0c0,0-0.1,0-0.1,0c0,0,0,0.1,0,0.1
	c0,0,0,0.1,0,0.1C58.8,92.3,58.8,92.3,58.8,92.3z"/>
<path class="st0" d="M56.2,95.7c0,0,0.1,0,0.1,0c0,0,0-0.1,0-0.1c0,0,0-0.1,0-0.1c0,0-0.1,0-0.1,0c0,0-0.1,0-0.1,0c0,0,0,0.1,0,0.1
	c0,0,0,0.1,0,0.1C56.1,95.7,56.1,95.7,56.2,95.7z"/>
<path class="st0" d="M71.1,94.1c0.1,0,0.1,0,0.1-0.1c0,0,0.1-0.1,0.1-0.1c0-0.1,0-0.1-0.1-0.1c0,0-0.1-0.1-0.1-0.1
	c-0.1,0-0.1,0-0.1,0.1c0,0-0.1,0.1-0.1,0.1c0,0.1,0,0.1,0.1,0.1C71,94.1,71.1,94.1,71.1,94.1z"/>
<path class="st0" d="M73.6,92.9C73.6,92.9,73.6,92.9,73.6,92.9c0.1,0,0.1-0.1,0.1-0.1c0,0,0-0.1,0-0.1c0,0,0,0-0.1,0
	c0,0-0.1,0-0.1,0c0,0,0,0,0,0.1C73.5,92.8,73.5,92.9,73.6,92.9C73.5,92.9,73.6,92.9,73.6,92.9L73.6,92.9z"/>
<path class="st0" d="M68.7,91.5C68.7,91.5,68.7,91.5,68.7,91.5c0.1-0.1,0.1-0.1,0.1-0.1c0,0,0-0.1,0-0.1c0,0,0,0-0.1,0
	c0,0-0.1,0-0.1,0c0,0,0,0.1,0,0.1C68.6,91.4,68.6,91.4,68.7,91.5C68.6,91.5,68.7,91.5,68.7,91.5z"/>
<path class="st0" d="M75,92C75.1,92,75.1,92,75,92c0.1-0.1,0.1-0.1,0.1-0.1s0-0.1,0-0.1c0,0,0,0-0.1,0c0,0-0.1,0-0.1,0
	c0,0,0,0,0,0.1S74.9,91.9,75,92C75,92,75,92,75,92L75,92z"/>
<path class="st0" d="M79.3,93c0,0,0.1,0,0.1-0.1c0,0,0.1-0.1,0.1-0.1s0-0.1-0.1-0.1s-0.1-0.1-0.1-0.1c0,0-0.1,0-0.1,0.1
	c0,0-0.1,0.1-0.1,0.1s0,0.1,0.1,0.1C79.2,93,79.3,93,79.3,93L79.3,93z"/>
<path class="st0" d="M57.7,98.9C57.8,98.9,57.8,98.9,57.7,98.9c0.1,0,0.1-0.1,0.1-0.1c0,0,0-0.1,0-0.1c0,0,0,0-0.1,0
	c0,0-0.1,0-0.1,0c0,0,0,0,0,0.1C57.6,98.8,57.7,98.8,57.7,98.9C57.7,98.9,57.7,98.9,57.7,98.9z"/>
<path class="st0" d="M54.7,101.3C54.8,101.3,54.8,101.3,54.7,101.3c0.1-0.1,0.1-0.1,0.1-0.2c0,0,0-0.1,0-0.1c0,0-0.1,0-0.1-0.1
	c0,0-0.1,0-0.1,0.1c0,0,0,0.1,0,0.1C54.6,101.2,54.6,101.2,54.7,101.3C54.7,101.3,54.7,101.3,54.7,101.3z"/>
<path class="st0" d="M62.2,99.6C62.3,99.6,62.3,99.6,62.2,99.6c0.1-0.1,0.1-0.1,0.1-0.1c0,0,0-0.1,0-0.1c0,0,0,0-0.1-0.1
	c0,0-0.1,0-0.1,0.1c0,0,0,0.1,0,0.1C62.1,99.5,62.1,99.5,62.2,99.6C62.2,99.6,62.2,99.6,62.2,99.6L62.2,99.6z"/>
<path class="st0" d="M62,91.8C62,91.8,62.1,91.8,62,91.8c0.1-0.1,0.1-0.1,0.1-0.1c0,0,0-0.1,0-0.1c0,0-0.1,0-0.1,0c0,0-0.1,0-0.1,0
	c0,0,0,0.1,0,0.1C61.8,91.7,61.9,91.7,62,91.8C61.9,91.8,61.9,91.8,62,91.8z"/>
<path class="st6" d="M71,85.4c0.3,0.4,0.8,0.8,1.2,1.1c0.8,0.6,1.7,1,2.7,0.9c2.3-0.3,3.2-3,3.8-5.3l1.9-9.4l0.2-2
	c0.2-1.2,0.4-2.3,0.5-3.5c0.1-1.5-0.1-1.5-0.2-1.5c-0.5,0-0.2,2.7-0.6,2.1c-0.4-0.5,0.1-3.2-0.4-3.2c-0.7,0.1-0.4,2.8-0.3,3.1
	c0,0.2-0.3,0.2-0.3,0c0-0.3,0-3.5-0.7-3.4c-0.4,0-0.2,0.7-0.2,0.7s0.2,3-0.1,3c-0.3,0-0.5-1.7-0.5-2.3c0-0.6-0.3-0.8-0.6-0.6
	c-0.2,0.2-0.1,2-0.1,2.6c0,0.6,0.2,2.2-0.5,1.4l0,0c-0.7-0.8-1.5-1.1-1.8-1.1c-0.1,0-0.1,0-0.2,0.1c0,0-0.1,0.1-0.1,0.2
	c0,0.1,0,0.1,0,0.2c0,0.1,0.1,0.1,0.1,0.2c0,0,0.1,0.1,0.1,0.1c0,0,0,0,0.1,0c0.3,0.2,0.5,0.4,0.8,0.7c0.2,0.2,0.4,0.5,0.5,0.8
	c0.1,0.3,0.3,0.6,0.3,0.9v0.2l-3.3,9.4"/>
<path class="st7" d="M74,83.8c-0.1-0.6-0.2-1.3-0.2-2c-0.1-0.7-0.1-1.3-0.1-2c0.1,0.6,0.2,1.3,0.2,2C74.1,82.5,74.1,83.1,74,83.8z"
	/>
<path class="st9" d="M92.1,127.4v-0.5l-5.1-0.1l0,1.7l0.3,0c1.4,0.1,7.2,0.4,8.1,0.1C96.4,128.4,92.1,127.4,92.1,127.4z"/>
<g class="st10">
	<path class="st11" d="M88.8,128.5c-0.1-0.4-0.3-0.8-0.6-1c-0.3-0.3-0.8-0.4-1.2-0.4l0,1.3L88.8,128.5z"/>
</g>
<g class="st10">
	<path class="st11" d="M94.2,127.9c0,0,1.5,0.4,1.3,0.7c-0.2,0.2-6,0.1-8.6-0.1v-0.1l6.8,0.2C93.7,128.5,93.9,127.9,94.2,127.9z"/>
</g>
<path class="st4" d="M86.8,128.4L86.8,128.4l0.3,0l0.9,0.1c0.8,0,1.9,0.1,3.1,0.1c1.2,0,2.3,0,3.1,0l0.9,0h0.3h0.1h-1.3
	c-0.8,0-1.9,0-3.1,0c-1.2,0-2.3-0.1-3.1-0.1l-0.9,0L86.8,128.4L86.8,128.4z"/>
<path class="st4" d="M93.7,128.6c0-0.1,0.1-0.3,0.2-0.4c0.1-0.1,0.2-0.2,0.3-0.3c-0.2,0.1-0.3,0.2-0.4,0.3c0,0.1-0.1,0.1-0.1,0.2
	C93.7,128.4,93.7,128.5,93.7,128.6L93.7,128.6z"/>
<path class="st4" d="M92.2,127.9c0,0,0.1-0.1,0.2-0.2c0.1-0.1,0.1-0.2,0.1-0.2c0,0-0.1,0.1-0.2,0.2
	C92.3,127.8,92.2,127.9,92.2,127.9z"/>
<path class="st4" d="M91.8,127.7c0,0,0.1,0,0.2-0.1c0.1-0.1,0.2-0.1,0.1-0.2c0,0-0.1,0-0.2,0.1S91.8,127.6,91.8,127.7z"/>
<path class="st4" d="M91.6,127.2c0.1,0,0.2,0,0.3,0c0.1,0,0.2,0,0.3,0c-0.1,0-0.2,0-0.3,0C91.7,127.2,91.7,127.2,91.6,127.2
	L91.6,127.2z"/>
<path class="st4" d="M91.5,126.9c0.2,0.1,0.4,0.1,0.6,0.1c-0.1,0-0.2,0-0.3,0C91.7,126.9,91.6,126.9,91.5,126.9L91.5,126.9z"/>
<path class="st4" d="M92.4,127.4c0.1,0,0.2,0,0.3,0c0.1,0,0.2,0,0.3-0.1c0.1,0,0.1,0,0.2-0.1c0,0,0.1-0.1,0.1-0.1c0,0,0,0,0-0.1
	c0,0,0,0,0-0.1c-0.1-0.1-0.3-0.1-0.4-0.1s-0.3,0.1-0.3,0.2C92.5,127.3,92.5,127.4,92.4,127.4C92.5,127.5,92.5,127.5,92.4,127.4
	c0.1,0,0.1-0.1,0.2-0.2c0.1-0.1,0.2-0.1,0.3-0.2c0.1,0,0.3,0,0.4,0c0.1,0,0,0.1,0,0.1c-0.1,0-0.1,0.1-0.2,0.1
	c-0.1,0-0.2,0.1-0.3,0.1C92.5,127.4,92.4,127.4,92.4,127.4z"/>
<path class="st4" d="M92.5,127.5c0,0,0-0.1,0-0.1c0,0,0-0.1,0-0.1c0-0.1,0-0.2-0.1-0.2c0,0-0.1-0.1-0.1-0.1c0,0-0.1,0-0.2,0
	c0,0-0.1,0-0.1,0c0,0,0,0.1,0,0.1c0,0,0,0.1,0.1,0.1c0,0.1,0.1,0.1,0.2,0.2C92.3,127.4,92.4,127.4,92.5,127.5c0,0-0.1-0.1-0.2-0.2
	c-0.1-0.1-0.1-0.1-0.1-0.2c0-0.1-0.1-0.2,0-0.2c0,0,0.1,0,0.1,0c0,0,0.1,0.1,0.1,0.1c0,0.1,0.1,0.1,0.1,0.2
	C92.5,127.3,92.5,127.4,92.5,127.5z"/>
<path class="st4" d="M87,127.1c0,0,0.1,0,0.4,0c0.3,0,0.6,0.2,0.8,0.3c0.2,0.2,0.4,0.4,0.5,0.7c0.1,0.2,0.1,0.3,0.1,0.3s0,0,0-0.1
	c0-0.1,0-0.2-0.1-0.3c-0.1-0.3-0.3-0.5-0.5-0.7c-0.2-0.2-0.5-0.3-0.9-0.3c-0.1,0-0.2,0-0.3,0C87,127,87,127,87,127.1L87,127.1z"/>
<path class="st4" d="M89.4,128c0.5,0.1,1,0.1,1.5,0c0,0-0.3,0-0.7,0C89.8,128,89.4,128,89.4,128z"/>
<path class="st4" d="M88.4,128c0,0,0,0.1,0.1,0.1s0.1,0.1,0.1,0.1c0,0,0-0.1,0-0.2C88.5,128,88.4,128,88.4,128z"/>
<path class="st4" d="M88,127.5c0,0,0,0.1,0.1,0.1c0.1,0,0.1,0.1,0.1,0.1s0-0.1-0.1-0.1C88.1,127.6,88.1,127.5,88,127.5z"/>
<path class="st4" d="M87.5,127.3c0,0,0.1,0,0.1,0c0.1,0,0.1,0.1,0.1,0.1c0,0,0-0.1-0.1-0.1C87.6,127.3,87.5,127.3,87.5,127.3z"/>
<path class="st4" d="M87.1,127.2C87.1,127.2,87.1,127.3,87.1,127.2c0.1,0.1,0.1,0.1,0.2,0.1C87.3,127.3,87.3,127.2,87.1,127.2
	C87.2,127.2,87.1,127.2,87.1,127.2z"/>
<path class="st9" d="M84.9,127.3v-0.5l-5.1,0.1l0,1.7l0.3,0c1.4,0.1,7.2,0.2,8.1-0.1C89.2,128.1,84.9,127.3,84.9,127.3z"/>
<g class="st10">
	<path class="st11" d="M81.6,128.4c-0.1-0.4-0.3-0.8-0.7-1c-0.3-0.2-0.8-0.4-1.2-0.3l0,1.3L81.6,128.4z"/>
</g>
<g class="st10">
	<path class="st11" d="M87,127.7c0,0,1.5,0.4,1.3,0.6c-0.2,0.2-6,0.3-8.6,0.1v-0.1l6.8,0C86.6,128.4,86.7,127.8,87,127.7z"/>
</g>
<path class="st4" d="M79.7,128.4L79.7,128.4H80l0.9,0c0.8,0,1.9,0,3.1,0c1.2,0,2.3,0,3.1-0.1l0.9,0l0.3,0h0.1c0,0-0.1,0-0.1,0H88
	l-0.9,0c-0.8,0-1.9,0.1-3.1,0.1c-1.2,0-2.3,0-3.1,0H80L79.7,128.4L79.7,128.4z"/>
<path class="st4" d="M86.6,128.4c0-0.1,0.1-0.3,0.2-0.4c0.1-0.1,0.2-0.2,0.3-0.3c-0.1,0.1-0.3,0.2-0.3,0.3
	C86.6,128.1,86.6,128.3,86.6,128.4z"/>
<path class="st4" d="M85.1,127.7c0,0,0.1-0.1,0.2-0.2c0.1-0.1,0.1-0.2,0.1-0.2c0,0-0.1,0.1-0.2,0.2C85.1,127.6,85,127.7,85.1,127.7z
	"/>
<path class="st4" d="M84.6,127.5c0,0,0.1,0,0.2-0.1c0.1-0.1,0.1-0.1,0.1-0.2c0,0-0.1,0-0.2,0.1C84.7,127.5,84.6,127.5,84.6,127.5z"
	/>
<path class="st4" d="M84.4,127.1c0.1,0,0.2,0,0.3,0c0.1,0,0.2,0,0.3,0C84.7,127.1,84.5,127.1,84.4,127.1L84.4,127.1z"/>
<path class="st4" d="M84.3,126.8c0.1,0.1,0.2,0.1,0.3,0.1c0.1,0,0.2,0,0.3,0c-0.1,0-0.2,0-0.3,0C84.5,126.8,84.4,126.8,84.3,126.8
	L84.3,126.8z"/>
<path class="st4" d="M85.2,127.3c0.1,0,0.2,0,0.3,0c0.1,0,0.2,0,0.4-0.1c0.1,0,0.1,0,0.2-0.1c0,0,0.1-0.1,0.1-0.1c0,0,0,0,0-0.1
	c0,0,0,0,0-0.1c-0.1-0.1-0.3-0.1-0.4,0c-0.1,0-0.3,0.1-0.3,0.2C85.3,127.2,85.3,127.3,85.2,127.3C85.3,127.4,85.3,127.4,85.2,127.3
	c0.1,0,0.1-0.1,0.2-0.2c0.1-0.1,0.2-0.1,0.3-0.2c0.1,0,0.3,0,0.4,0c0.1,0,0,0.1,0,0.1c-0.1,0-0.1,0.1-0.2,0.1
	c-0.1,0-0.2,0.1-0.3,0.1C85.3,127.3,85.2,127.3,85.2,127.3z"/>
<path class="st4" d="M85.3,127.3c0,0,0-0.1,0-0.1c0,0,0-0.1,0-0.1c0-0.1,0-0.2-0.1-0.2c0,0-0.1-0.1-0.1-0.1s-0.1,0-0.2,0
	c0,0,0,0,0,0c0,0,0,0,0,0c0,0,0,0,0,0c0,0,0,0,0,0c0,0,0,0.1,0.1,0.1c0,0.1,0.1,0.1,0.2,0.2C85.1,127.3,85.2,127.3,85.3,127.3
	c0,0-0.1-0.1-0.2-0.2c-0.1-0.1-0.1-0.1-0.1-0.2c0-0.1-0.1-0.2,0-0.2c0.1,0,0.2,0.1,0.2,0.1c0,0.1,0.1,0.1,0.1,0.2
	C85.3,127.2,85.3,127.3,85.3,127.3z"/>
<path class="st4" d="M79.8,127.1c0.1,0,0.3,0,0.4,0c0.3,0,0.6,0.1,0.8,0.3c0.2,0.2,0.4,0.4,0.5,0.7c0.1,0.2,0.1,0.3,0.1,0.3
	c0,0,0-0.1,0-0.1c0-0.1,0-0.2-0.1-0.3c-0.1-0.3-0.3-0.5-0.5-0.7c-0.3-0.2-0.6-0.3-0.9-0.3C80,127,80,127,79.8,127.1
	C79.8,127.1,79.8,127.1,79.8,127.1z"/>
<path class="st4" d="M82.2,128c0.2,0,0.5,0.1,0.7,0.1c0.3,0,0.5,0,0.7-0.1c0,0-0.3,0-0.7,0C82.6,128,82.2,127.9,82.2,128z"/>
<path class="st4" d="M81.2,128c0,0,0,0.1,0.1,0.1c0,0.1,0.1,0.1,0.1,0.1c0,0,0-0.1,0-0.2C81.3,128,81.2,128,81.2,128z"/>
<path class="st4" d="M80.9,127.5c0,0,0,0.1,0.1,0.1c0.1,0,0.1,0.1,0.1,0.1c0,0,0-0.1-0.1-0.1C80.9,127.6,80.9,127.5,80.9,127.5z"/>
<path class="st4" d="M80.3,127.3c0,0,0.1,0,0.1,0c0.1,0,0.1,0.1,0.1,0c0,0,0-0.1-0.1-0.1C80.4,127.3,80.3,127.3,80.3,127.3z"/>
<path class="st4" d="M79.9,127.3C79.9,127.3,80,127.3,79.9,127.3c0.1,0.1,0.1,0.1,0.2,0.1C80.1,127.3,80.1,127.3,79.9,127.3
	C80,127.2,79.9,127.2,79.9,127.3z"/>
<path class="st6" d="M48.5,88c-0.1,0.6,0,1.2,0.2,1.8c0.2,0.6,0.6,1.1,1,1.5c0.5,0.4,1,0.7,1.6,0.9c0.6,0.2,1.2,0.2,1.8,0L64,90.4
	l1.6-0.1c1.2,0,2.4,0,3.6-0.1c1.5-0.2,1.5-0.3,1.5-0.5c-0.1-0.5-2.7,0.2-2.2-0.3c0.5-0.5,3.2-0.5,3.1-0.9c-0.2-0.6-2.8,0.1-3.1,0.2
	c-0.2,0-0.3-0.3-0.1-0.3c0.3,0,3.4-0.6,3.3-1.2c-0.1-0.3-0.7-0.1-0.7-0.1s-2.9,0.7-3,0.4c-0.1-0.3,1.6-0.8,2.2-0.9
	c0.6-0.1,0.8-0.4,0.5-0.7c-0.2-0.1-2,0.2-2.5,0.3c-0.6,0.1-2.1,0.5-1.5-0.3l0,0c0.6-0.8,0.9-1.6,0.8-1.9c0-0.1-0.1-0.1-0.1-0.2
	c-0.1,0-0.1-0.1-0.2-0.1c-0.1,0-0.1,0-0.2,0c-0.1,0-0.1,0.1-0.1,0.1c0,0-0.1,0.1-0.1,0.1c0,0,0,0,0,0.1c-0.2,0.3-0.3,0.6-0.6,0.9
	c-0.2,0.3-0.4,0.5-0.7,0.6c-0.3,0.2-0.6,0.4-0.8,0.5l-1,0.3L53.8,87l0-0.2L48.6,87L48.5,88z"/>
<path class="st6" d="M63.1,67.8c0-1.6,0-2.9,0-2.9s2.3-0.4,2.8-3.4c0.2-1.5,0.2-4,0-6c-0.1-1.8-1.3-4-3.1-3.8l-5.6,1.4
	c-0.3,0-0.5,0.2-0.7,0.4s-0.3,0.5-0.3,0.7l0,0l0.5,13.7c0,0.8,0.4,1.6,1,2.2c0.6,0.6,1.4,0.9,2.2,0.9l0,0c0.4,0,0.8-0.1,1.2-0.2
	s0.7-0.4,1-0.7c0.3-0.3,0.5-0.6,0.7-1C63,68.7,63.1,68.2,63.1,67.8L63.1,67.8z"/>
<path class="st4" d="M64.1,57.3c0,0,0.3,0.2,0.8,0.2c0.4,0,0.7-0.2,0.8-0.2c0,0.1,0,0.1-0.2,0.2c-0.2,0.1-0.4,0.2-0.6,0.2
	c-0.2,0-0.4-0.1-0.6-0.2C64.1,57.4,64.1,57.3,64.1,57.3z"/>
<path class="st4" d="M60,57.5c0-0.1,0.3,0.2,0.8,0.2s0.7-0.2,0.8-0.2c0,0,0,0.1-0.2,0.2c-0.2,0.1-0.4,0.2-0.6,0.2
	c-0.2,0-0.4-0.1-0.6-0.2C60.1,57.6,60,57.6,60,57.5z"/>
<path class="st4" d="M62.9,60c0.2-0.1,0.4-0.1,0.7-0.1c0.1,0,0.2,0,0.2-0.1c0-0.1,0-0.2-0.1-0.3l-0.3-0.8c-0.4-1.2-0.8-2.1-0.7-2.1
	c0,0,0.4,0.9,0.9,2.1c0.1,0.3,0.2,0.5,0.3,0.8c0.1,0.1,0.1,0.3,0.1,0.4c0,0,0,0.1-0.1,0.1c0,0-0.1,0-0.1,0.1c-0.1,0-0.1,0-0.2,0
	C63.3,60,63.1,60,62.9,60L62.9,60z"/>
<path class="st7" d="M63.1,64.9c-1.4,0-2.8-0.4-4-1.1c0,0,1,2.1,4,1.8L63.1,64.9z"/>
<path class="st12" d="M61.7,60.6c0,0,0.1-0.1,0.1-0.1c0,0,0.1,0,0.1,0c0,0,0.1,0,0.1,0c0,0,0.1,0,0.1,0.1c0.1,0.1,0.1,0.2,0.2,0.2
	c0.1,0.1,0.1,0.1,0.2,0.1c0,0.1,0.1,0.1,0.1,0.2c0,0.1,0,0.1,0,0.2c0,0.1-0.1,0.2-0.2,0.3c-0.1,0.1-0.2,0.1-0.3,0.1
	c-0.1,0-0.2,0-0.3,0c-0.1,0-0.2-0.1-0.3-0.2c-0.1-0.1-0.1-0.2-0.2-0.3c0-0.1,0-0.2,0-0.3c0-0.1,0.1-0.2,0.1-0.3
	c0.1-0.1,0.2-0.1,0.3-0.2"/>
<path class="st4" d="M61.6,60.3c0.1,0,0.1,0.4,0.5,0.8c0.4,0.3,0.9,0.3,0.9,0.3c0,0.1-0.1,0.1-0.3,0.1c-0.3,0-0.5-0.1-0.7-0.3
	c-0.2-0.2-0.3-0.4-0.4-0.6C61.6,60.4,61.6,60.3,61.6,60.3z"/>
<path class="st4" d="M61.5,56.2c0,0.1-0.5,0.1-0.9,0.1c-0.5,0.1-0.9,0.2-0.9,0.1c0,0,0-0.2,0.2-0.3c0.2-0.1,0.5-0.2,0.7-0.2
	c0.3,0,0.5,0,0.7,0.1C61.5,56,61.6,56.1,61.5,56.2z"/>
<path class="st4" d="M65.3,55.6c-0.1,0.1-0.4,0-0.7,0c-0.3,0-0.6,0.1-0.7,0c0,0,0-0.1,0.1-0.2c0.2-0.1,0.4-0.2,0.6-0.2
	c0.2,0,0.4,0.1,0.6,0.2C65.3,55.5,65.3,55.6,65.3,55.6z"/>
<path class="st4" d="M55.7,61.7c1.9-2.7,3.8-5.8,3.5-9.1c0,0,5.1-0.5,7,3.3c0,0,1.5-6.3-2.7-5.9c-4.2,0.4-8.2,3.1-8.2,3.1L55.7,61.7
	z"/>
<path class="st6" d="M56.7,58.3c-0.1-0.1-0.3-0.1-0.4-0.1c-0.1,0-0.3,0.1-0.4,0.1c-0.3,0.2-0.5,0.4-0.6,0.7c-0.1,0.3-0.1,0.6,0,0.9
	c0.1,0.3,0.3,0.6,0.6,0.7c0.3,0.2,0.6,0.2,0.9,0.2"/>
<path class="st7" d="M56.5,60c0,0-0.1,0-0.3,0c-0.1-0.1-0.2-0.1-0.2-0.2c0-0.1-0.1-0.2-0.1-0.3c0-0.1,0-0.2,0.1-0.3s0.1-0.2,0.2-0.2
	c0.2-0.1,0.3,0,0.3-0.1s-0.1-0.1-0.3-0.1c-0.1,0-0.2,0.1-0.3,0.2c-0.1,0.1-0.1,0.2-0.1,0.4c0,0.1,0,0.3,0.1,0.4
	c0.1,0.1,0.2,0.2,0.3,0.2C56.4,60.2,56.5,60,56.5,60z"/>
<path class="st4" d="M70.4,63.5L70.4,63.5c0.1,0,0.2,0,0.3,0c0.2,0.1,0.4,0.2,0.6,0.4c0.1,0.2,0.2,0.3,0.3,0.5
	c0.1,0.2,0.1,0.4,0,0.6c0,0.3-0.2,0.5-0.3,0.7c-0.2,0.2-0.4,0.4-0.6,0.5c-0.3,0.1-0.6,0.2-0.9,0.2c-0.3,0-0.6-0.1-0.9-0.2
	c-0.6-0.3-1.1-0.9-1.5-1.5c-0.4-0.7-0.6-1.4-0.7-2.2c-0.1-0.8,0-1.7,0.1-2.5c0.3-1.7,0.7-3.2,0.9-4.7c0.2-1.5,0.1-2.8-0.3-3.8
	c-0.2-0.5-0.4-0.9-0.8-1.3c-0.3-0.3-0.6-0.5-0.9-0.7l-0.4-0.2c-0.1,0-0.2-0.1-0.3-0.1L65,49c0,0,0,0-0.1,0c0,0,0,0,0.1,0l0.2,0
	c0.1,0,0.2,0.1,0.3,0.1l0.4,0.2c0.3,0.2,0.7,0.4,0.9,0.7c0.3,0.4,0.6,0.8,0.8,1.3c0.4,1.1,0.5,2.4,0.3,3.9c-0.2,1.5-0.7,3-0.9,4.7
	c-0.1,0.8-0.2,1.6-0.1,2.5c0.1,0.8,0.3,1.5,0.6,2.2c0.3,0.6,0.8,1.1,1.4,1.5c0.3,0.1,0.6,0.2,0.9,0.2c0.3,0,0.6,0,0.9-0.2
	c0.2-0.1,0.4-0.2,0.5-0.3s0.3-0.3,0.3-0.6c0.1-0.2,0.1-0.4,0-0.6c0-0.2-0.1-0.4-0.3-0.6c-0.1-0.2-0.3-0.3-0.6-0.4
	C70.5,63.5,70.4,63.5,70.4,63.5z"/>
<path class="st4" d="M56.5,66.6c-0.1,0-0.1,0-0.2,0c-0.2,0-0.3-0.1-0.5-0.1c-0.6-0.2-1.1-0.4-1.6-0.8c-0.7-0.5-1.3-1.2-1.8-2
	c-0.6-1-0.9-2-1-3.1c0-1.1,0.1-2.2,0.5-3.2c0.3-0.8,0.7-1.7,1.2-2.4c0.3-0.5,0.7-1,1.1-1.4c0.1-0.2,0.3-0.3,0.3-0.4
	c0,0,0.1-0.1,0.1-0.1c0,0,0,0.1-0.1,0.1c-0.1,0.1-0.2,0.2-0.3,0.4C54,54,53.6,54.5,53.3,55c-0.5,0.7-0.9,1.5-1.2,2.4
	c-0.4,1-0.5,2.1-0.5,3.2c0,0.6,0.1,1.1,0.3,1.6c0.2,0.5,0.4,1,0.6,1.4c0.4,0.8,1,1.4,1.7,2c0.5,0.4,1,0.6,1.6,0.8
	C56.3,66.6,56.5,66.6,56.5,66.6z"/>
<path class="st7" d="M59.8,58.6c0,0,0.1-0.1,0.1-0.1c0-0.1,0-0.1-0.1-0.1s-0.1,0.1-0.1,0.1C59.7,58.6,59.8,58.6,59.8,58.6z"/>
<path class="st7" d="M61,58.5C61,58.5,60.9,58.5,61,58.5c-0.1-0.2-0.1-0.2,0-0.2c0,0,0.1,0,0.1,0.1C61.1,58.5,61.1,58.5,61,58.5z"/>
<path class="st7" d="M60.5,59.2c0,0-0.1,0-0.1-0.1c0-0.1,0-0.1,0.1-0.1c0,0,0.1,0,0.1,0.1C60.6,59.2,60.6,59.2,60.5,59.2z"/>
<path class="st7" d="M59.2,59.2C59.2,59.2,59.2,59.2,59.2,59.2c0-0.1,0-0.1,0-0.1c0-0.1,0.1-0.1,0.1-0.1c0,0,0,0,0,0.1
	C59.3,59.1,59.3,59.1,59.2,59.2C59.3,59.2,59.3,59.2,59.2,59.2z"/>
<path class="st7" d="M60,59.8C60,59.8,60,59.8,60,59.8c0.1-0.2,0-0.2,0-0.2C59.9,59.6,59.9,59.7,60,59.8
	C59.9,59.8,59.9,59.8,60,59.8z"/>
<path class="st7" d="M64.8,58.5c0,0-0.1,0-0.1-0.1c0-0.1,0-0.1,0-0.1c0,0,0.1,0,0.1,0.1S64.8,58.5,64.8,58.5z"/>
<path class="st7" d="M65.9,58.4c0,0-0.1-0.1-0.1-0.1c0-0.1,0-0.1,0-0.1c0,0,0.1,0,0.1,0.1C65.9,58.4,65.9,58.4,65.9,58.4z"/>
<path class="st7" d="M65.4,59.1C65.4,59.1,65.4,59,65.4,59.1c-0.1-0.1-0.1-0.2-0.1-0.2c0,0,0.1,0,0.1,0.1
	C65.5,59,65.5,59.1,65.4,59.1z"/>
<path class="st5" d="M67.4,52.7c0,0,0-0.2-0.1-0.4c-0.1-0.4-0.3-0.7-0.5-1c-0.4-0.4-0.8-0.8-1.3-1c-0.6-0.2-1.3-0.3-2-0.2
	c-0.7,0.1-1.4,0.2-2,0.4c-0.6,0.2-1.2,0.4-1.6,0.5c-0.5,0.2-0.8,0.3-1.1,0.4c-0.1,0.1-0.3,0.1-0.4,0.1c0.1-0.1,0.2-0.1,0.4-0.2
	c0.2-0.1,0.6-0.3,1.1-0.5c0.5-0.2,1-0.4,1.6-0.5c0.7-0.2,1.3-0.4,2-0.5c0.7-0.1,1.4,0,2.1,0.2c0.5,0.2,1,0.6,1.4,1
	c0.2,0.3,0.4,0.7,0.5,1.1C67.4,52.4,67.4,52.5,67.4,52.7C67.4,52.6,67.4,52.6,67.4,52.7L67.4,52.7z"/>
<path class="st5" d="M67.1,58.2c0-0.2,0-0.3,0-0.5c0-0.5,0.1-0.9,0.1-1.4c0-0.7-0.2-1.4-0.4-2c-0.2-0.4-0.4-0.7-0.7-1
	c-0.3-0.3-0.7-0.6-1-0.7c-0.8-0.3-1.6-0.6-2.4-0.6c-0.8-0.1-1.5-0.1-2.1-0.1c-0.5,0-0.9-0.1-1.4-0.1c-0.2,0-0.3-0.1-0.4-0.1
	c0,0-0.1,0-0.1,0c0,0,0.2,0,0.5,0.1c0.3,0,0.8,0.1,1.4,0.1c0.6,0,1.3,0,2.1,0.1c0.9,0,1.7,0.3,2.5,0.6c0.4,0.2,0.8,0.5,1.1,0.8
	c0.3,0.3,0.5,0.6,0.7,1c0.3,0.6,0.4,1.3,0.4,2c0,0.5,0,0.9-0.1,1.4c0,0.2,0,0.3-0.1,0.4C67.2,58.1,67.2,58.1,67.1,58.2z"/>
<path class="st5" d="M56.6,66.8c0.1-0.9-0.2-1.8-0.7-2.5c-0.2-0.3-0.5-0.7-0.8-1.1c-0.3-0.4-0.6-0.8-0.9-1.3c-0.3-0.5-0.5-1-0.6-1.6
	c0-0.3,0-0.6,0.1-0.9c0.1-0.3,0.2-0.6,0.4-0.9c0.2-0.3,0.3-0.5,0.4-0.8c0.1-0.3,0.1-0.6,0.1-0.9c0-0.6,0-1.1,0-1.7
	c0.1-1,0.6-1.9,1.3-2.5c0.5-0.4,1.1-0.7,1.8-0.7c0.2,0,0.4,0,0.5,0c0.1,0,0.1,0,0.2,0c-0.2,0-0.5,0-0.7,0c-0.6,0.1-1.2,0.3-1.7,0.8
	c-0.7,0.7-1.1,1.5-1.2,2.5c-0.1,0.6-0.1,1.1,0,1.7c0,0.3,0,0.6-0.1,0.9c-0.1,0.3-0.2,0.6-0.4,0.9c-0.2,0.3-0.3,0.5-0.4,0.8
	c-0.1,0.3-0.1,0.6-0.1,0.9c0.1,0.6,0.2,1.1,0.5,1.6c0.5,0.9,1.2,1.6,1.6,2.4c0.4,0.5,0.6,1.2,0.6,1.8c0,0.2,0,0.4,0,0.5
	C56.6,66.7,56.6,66.8,56.6,66.8L56.6,66.8z"/>
<path class="st0" d="M82.5,93C82.6,93,82.6,93,82.5,93C82.6,93,82.6,92.9,82.5,93c0.1-0.1,0.1-0.1,0.1-0.2c0,0,0,0-0.1,0
	c0,0,0,0-0.1,0C82.4,92.9,82.4,92.9,82.5,93C82.4,92.9,82.4,93,82.5,93C82.5,93,82.5,93,82.5,93z"/>
<path class="st13" d="M56.4,60.4H56v2.1h0.4V60.4z"/>
<path class="st9" d="M118.7,127l-1-2.3l4.3-2l1.5,3.3l-0.3,0.1c-1.2,0.6-5.9,3-6.8,3.1C115.4,129.5,118.7,127,118.7,127z"/>
<g class="st14">
	<path class="st15" d="M117.1,128.3c0,0-1.1,1-0.9,1.1s5.2-2.1,7.2-3.3l-0.1-0.1l-5.7,2.7C117.8,128.7,117.4,128.2,117.1,128.3z"/>
</g>
<path class="st4" d="M123.5,126L123.5,126l-0.3,0.2l-0.8,0.4c-0.6,0.3-1.5,0.8-2.6,1.2c-1,0.5-1.9,0.9-2.6,1.1l-0.8,0.3l-0.2,0.1
	c0,0-0.1,0-0.1,0l0.1,0l0.2-0.1l0.8-0.3c0.7-0.3,1.6-0.7,2.6-1.2c1-0.5,1.9-0.9,2.6-1.2l0.8-0.4L123.5,126L123.5,126z"/>
<path class="st4" d="M117.8,128.7c-0.1-0.1-0.2-0.2-0.3-0.3c-0.1-0.1-0.3-0.1-0.4-0.2c0.2,0,0.3,0,0.4,0.1
	C117.7,128.5,117.8,128.6,117.8,128.7L117.8,128.7z"/>
<path class="st4" d="M118.8,127.5c0,0-0.1,0-0.2-0.1c-0.1-0.1-0.2-0.1-0.2-0.2c0.1,0,0.1,0.1,0.2,0.1
	C118.7,127.4,118.8,127.5,118.8,127.5z"/>
<path class="st4" d="M119,127.2c0,0-0.1,0-0.2,0c-0.1,0-0.2-0.1-0.2-0.1c0,0,0.1,0,0.2,0C119,127.1,119,127.2,119,127.2z"/>
<path class="st4" d="M119.1,126.7c0,0-0.1,0.1-0.2,0.1c0,0,0,0.1,0,0.1c0,0,0,0-0.1,0.1c0,0-0.1,0-0.1,0c0,0-0.1,0-0.1-0.1
	s0-0.1,0-0.1c0,0,0-0.1,0.1-0.1c0,0,0.1,0,0.1,0c0,0,0.1,0,0.1,0C118.9,126.7,119,126.7,119.1,126.7L119.1,126.7z"/>
<path class="st4" d="M119,126.3c0,0-0.1,0.1-0.2,0.2c-0.1,0.1-0.2,0.1-0.3,0.1c0.1-0.1,0.2-0.1,0.2-0.1
	C118.9,126.4,118.9,126.4,119,126.3L119,126.3z"/>
<path class="st4" d="M118.5,127.2c-0.1,0.1-0.2,0.1-0.3,0.1c-0.1,0-0.2,0.1-0.3,0.1c-0.1,0-0.1,0-0.2,0c0,0-0.1,0-0.1-0.1
	c0,0,0,0,0-0.1c0,0,0,0,0-0.1c0.1-0.1,0.2-0.2,0.3-0.2c0.1,0,0.3,0,0.4,0.1C118.3,127.1,118.4,127.2,118.5,127.2
	C118.5,127.3,118.5,127.3,118.5,127.2c-0.1,0-0.1,0-0.2-0.1c-0.1,0-0.2-0.1-0.3,0c-0.1,0-0.2,0.1-0.3,0.2c0,0.1,0,0.1,0.1,0.1
	c0.1,0,0.1,0,0.2,0c0.1,0,0.2,0,0.3-0.1C118.4,127.3,118.5,127.2,118.5,127.2z"/>
<path class="st4" d="M118.4,127.3c-0.1,0-0.1-0.1-0.1-0.2c0-0.1,0-0.2,0-0.2c0-0.1,0-0.1,0.1-0.1c0,0,0.1-0.1,0.1-0.1
	c0,0,0.1,0,0.1,0c0,0,0,0,0.1,0.1c0,0,0,0.1,0,0.1c0,0.1,0,0.2-0.1,0.2C118.5,127.1,118.5,127.2,118.4,127.3c0,0,0-0.1,0.1-0.2
	c0-0.1,0-0.1,0-0.2c0-0.1,0-0.2-0.1-0.2c-0.1,0-0.1,0.1-0.1,0.2c0,0.1,0,0.1,0,0.2C118.3,127.1,118.4,127.2,118.4,127.3L118.4,127.3
	z"/>
<path class="st4" d="M122.9,124.9c0,0-0.1,0-0.3,0.2c-0.2,0.1-0.4,0.4-0.6,0.6c-0.1,0.2-0.2,0.5-0.2,0.8c0,0.2,0.1,0.3,0.1,0.3
	c0,0,0-0.1,0-0.1c0-0.1-0.1-0.2-0.1-0.3c0-0.3,0-0.6,0.1-0.8c0.1-0.3,0.3-0.5,0.6-0.6C122.6,124.9,122.7,124.9,122.9,124.9
	C122.8,124.9,122.9,124.9,122.9,124.9L122.9,124.9z"/>
<path class="st4" d="M121.6,123.3c0.2,0.3,0.3,0.6,0.4,0.9c0.1,0.3,0.3,0.6,0.4,0.9C122.2,124.5,121.9,123.9,121.6,123.3
	L121.6,123.3z"/>
<path class="st4" d="M121.2,126.6c-0.4,0.3-0.8,0.5-1.2,0.6c0,0,0.3-0.1,0.6-0.3C120.9,126.8,121.2,126.6,121.2,126.6z"/>
<path class="st4" d="M122.1,126.2c0,0,0,0.1,0,0.1c0,0.1,0,0.1,0,0.1c0,0-0.1-0.1-0.1-0.1C122,126.3,122,126.2,122.1,126.2z"/>
<path class="st4" d="M122.2,125.7c0,0,0,0.1,0,0.1c0,0.1-0.1,0.1-0.1,0.1c0,0,0-0.1,0-0.1C122.1,125.7,122.2,125.7,122.2,125.7z"/>
<path class="st4" d="M122.6,125.3c0,0-0.1,0-0.1,0.1c-0.1,0-0.1,0.1-0.1,0.1c0,0,0-0.1,0.1-0.1C122.5,125.3,122.6,125.3,122.6,125.3
	z"/>
<path class="st4" d="M122.8,125.1C122.8,125.1,122.8,125.1,122.8,125.1c-0.1,0.1-0.1,0.1-0.1,0.1S122.7,125.1,122.8,125.1
	C122.8,125.1,122.8,125.1,122.8,125.1z"/>
<g class="st10">
	<path class="st16" d="M122.8,124.7l-4.3,1.9l-0.2-0.5l4.5-1.7L122.8,124.7z"/>
</g>
<path class="st9" d="M99.5,127.3l-0.1-2.7l5.1-0.2l0.2,4l-0.3,0c-1.4,0.1-7.2,0.6-8.1,0.3C95.2,128.5,99.5,127.3,99.5,127.3z"/>
<g class="st14">
	<path class="st15" d="M97.4,128c0,0-1.5,0.5-1.3,0.7c0.2,0.2,6,0,8.6-0.3l0-0.1l-6.8,0.3C97.9,128.6,97.7,128,97.4,128z"/>
</g>
<path class="st4" d="M104.8,128.3C104.8,128.3,104.7,128.3,104.8,128.3l-0.3,0l-0.9,0.1c-0.8,0.1-1.9,0.1-3.1,0.2
	c-1.2,0-2.3,0.1-3.1,0.1h-0.9h-0.3c0,0-0.1,0-0.1,0c0,0,0.1,0,0.1,0h0.3l0.9,0c0.8,0,1.9,0,3.1-0.1c1.2,0,2.3-0.1,3.1-0.2l0.9-0.1
	L104.8,128.3L104.8,128.3z"/>
<path class="st4" d="M97.9,128.7c-0.1-0.3-0.3-0.6-0.5-0.8c0.2,0.1,0.3,0.2,0.4,0.3C97.9,128.4,97.9,128.5,97.9,128.7L97.9,128.7z"
	/>
<path class="st4" d="M99.4,127.9c0,0-0.1-0.1-0.2-0.2c-0.1-0.1-0.1-0.2-0.1-0.2c0,0,0.1,0.1,0.2,0.2
	C99.3,127.8,99.4,127.9,99.4,127.9z"/>
<path class="st4" d="M99.8,127.6c0,0-0.1,0-0.2-0.1c-0.1-0.1-0.2-0.1-0.1-0.2c0,0,0.1,0,0.2,0.1C99.7,127.6,99.8,127.6,99.8,127.6z"
	/>
<path class="st4" d="M100,127.2c-0.1,0-0.2,0.1-0.3,0c-0.1,0-0.2,0-0.3,0c0.1,0,0.2-0.1,0.3,0C99.9,127.1,99.9,127.1,100,127.2
	L100,127.2z"/>
<path class="st4" d="M100.1,126.8c-0.1,0.1-0.2,0.1-0.3,0.1c-0.1,0-0.2,0-0.3,0c0.1,0,0.2,0,0.3,0C99.9,126.8,100,126.8,100.1,126.8
	L100.1,126.8z"/>
<path class="st4" d="M99.2,127.4c-0.1,0-0.2,0-0.3,0c-0.1,0-0.2,0-0.4-0.1c-0.1,0-0.1,0-0.2-0.1c0,0,0,0-0.1,0c0,0,0,0,0-0.1
	c0,0,0-0.1,0-0.1c0,0,0,0,0-0.1c0.1-0.1,0.3-0.1,0.4-0.1c0.1,0,0.3,0.1,0.3,0.2C99.1,127.3,99.1,127.4,99.2,127.4
	C99.1,127.5,99.1,127.5,99.2,127.4c-0.1,0-0.1-0.1-0.2-0.2c-0.1-0.1-0.2-0.1-0.3-0.2c-0.1,0-0.3,0-0.4,0c0,0,0,0.1,0,0.1
	c0.1,0,0.1,0.1,0.2,0.1c0.1,0,0.2,0.1,0.3,0.1C99.1,127.4,99.2,127.4,99.2,127.4z"/>
<path class="st4" d="M99.1,127.5c0-0.1-0.1-0.1,0-0.2c0-0.1,0-0.2,0.1-0.2c0-0.1,0.1-0.1,0.1-0.1c0,0,0.1,0,0.2-0.1c0,0,0,0,0,0
	c0,0,0,0,0,0c0,0,0,0,0,0c0,0,0,0,0,0c0,0.1,0,0.1,0,0.1c0,0.1-0.1,0.1-0.1,0.2C99.3,127.4,99.2,127.4,99.1,127.5
	c0,0,0.1-0.1,0.2-0.2c0-0.1,0.1-0.1,0.1-0.2c0-0.1,0.1-0.2,0-0.2c-0.1,0-0.2,0.1-0.2,0.1c0,0.1-0.1,0.1-0.1,0.2
	C99.1,127.3,99.1,127.4,99.1,127.5L99.1,127.5z"/>
<path class="st4" d="M104.6,126.9c0,0-0.1,0-0.4,0c-0.3,0-0.6,0.2-0.8,0.4c-0.2,0.2-0.4,0.5-0.5,0.7c0,0.1-0.1,0.2-0.1,0.4
	c0,0,0,0,0-0.1c0-0.1,0-0.2,0-0.3c0.1-0.3,0.3-0.6,0.5-0.8c0.2-0.2,0.5-0.3,0.8-0.4c0.1,0,0.2,0,0.3,0
	C104.6,126.9,104.6,126.9,104.6,126.9L104.6,126.9z"/>
<path class="st4" d="M104,124.8c0.1,0.7,0.1,1.4,0.1,2.1C104.1,126.2,104,125.5,104,124.8L104,124.8z"/>
<path class="st4" d="M102.2,128c-0.2,0.1-0.5,0.1-0.7,0.1c-0.3,0-0.5,0-0.8,0c0,0,0.3,0,0.7,0C101.9,128,102.2,128,102.2,128z"/>
<path class="st4" d="M103.2,127.9c0,0,0,0.1-0.1,0.2c0,0.1,0,0.1-0.1,0.1c0,0,0-0.1,0-0.2C103.1,128,103.2,127.9,103.2,127.9z"/>
<path class="st4" d="M103.6,127.4c0,0,0,0.1-0.1,0.1c-0.1,0.1-0.1,0.1-0.1,0.1c0,0,0-0.1,0.1-0.1
	C103.5,127.5,103.6,127.4,103.6,127.4z"/>
<path class="st4" d="M104.1,127.2c0,0-0.1,0-0.1,0s-0.1,0.1-0.1,0.1c0,0,0-0.1,0.1-0.1C104,127.2,104.1,127.2,104.1,127.2z"/>
<path class="st4" d="M104.5,127.1C104.5,127.1,104.4,127.1,104.5,127.1c-0.1,0.1-0.1,0.1-0.2,0.1
	C104.3,127.1,104.3,127.1,104.5,127.1C104.4,127.1,104.5,127.1,104.5,127.1z"/>
<g class="st10">
	<path class="st11" d="M104.6,126.8l-5.1,0.1l0-0.6l5.2,0.2L104.6,126.8z"/>
</g>
<path class="st4" d="M112.3,102.2l9.2-14.6c0,0,2.5-3.9,1.9-8.1h-12.2l-0.1,0.4l-4.5,0L95,94.7c-0.8,1-1.3,2.1-1.6,3.3
	s-0.3,2.5,0,3.7l4.9,24.9l8.2,0.2l-5.3-25.8l3.3-2.6l-0.7,1.9c-0.4,1-0.5,2.1-0.4,3.1c0.1,1.1,0.4,2.1,1,3
	c3.8,6.4,12.4,21,12.7,20.9c0.4-0.1,7-3.2,7-3.2L112.3,102.2z"/>
<path class="st5" d="M121,79.9c0,0,0,0.1,0,0.1c0,0.1,0,0.2,0,0.4c0,0.5-0.1,1-0.2,1.5c-0.4,1.8-1.3,3.4-2.4,4.9
	c-1.6,1.4-3.5,3-5.6,4.7l-8.2,6.6l-2.5,2l-0.7,0.5l-0.2,0.1l-0.1,0c0,0,0,0,0.1-0.1l0.2-0.1l0.7-0.5l2.5-2l8.2-6.6
	c2.1-1.7,4-3.3,5.6-4.7c1.2-1.4,2-3,2.5-4.8c0.1-0.5,0.2-1,0.2-1.5c0-0.2,0-0.3,0-0.4C121,80,121,80,121,79.9L121,79.9z"/>
<path class="st5" d="M113.8,82.7C113.9,82.7,113.9,82.7,113.8,82.7h0.4l1,0.1l3.6,0.2h0.1l-0.1,0.1l-2.3,2.9l-0.2,0.2l0,0h0
	l-3.5,0.7l-0.1,0l0-0.1c-0.2-0.8-0.4-1.5-0.6-2.1v0l0,0l1.2-1.5c0.1-0.2,0.2-0.3,0.3-0.4C113.8,82.8,113.8,82.7,113.8,82.7
	c0,0-0.1,0.1-0.1,0.1l-0.3,0.4c-0.3,0.4-0.7,0.9-1.2,1.5v0l0.6,2.1l-0.1,0l3.5-0.7l0,0l0.2-0.2l2.3-2.9l0,0.1l-3.6-0.3l-1-0.1
	l-0.3,0C113.9,82.7,113.9,82.7,113.8,82.7L113.8,82.7z"/>
<path class="st5" d="M118.1,83.8c-0.2,0-0.5,0-0.7,0l-1.7-0.2l-1.7-0.2c-0.2,0-0.5,0-0.7-0.1c0.2,0,0.5,0,0.7,0c0.4,0,1,0.1,1.7,0.1
	c0.6,0.1,1.2,0.2,1.7,0.2C117.7,83.7,117.9,83.7,118.1,83.8L118.1,83.8z"/>
<path class="st5" d="M123.1,83.8c-0.3,0-0.5,0.1-0.8,0.1l0,0c-0.2,0.4-0.5,0.9-0.8,1.5l-0.5,0.9v-0.1c0.1,0.4,0.3,0.8,0.3,1
	c0.1,0.1,0.1,0.3,0.1,0.4c-0.1-0.1-0.1-0.2-0.2-0.4c-0.1-0.2-0.2-0.6-0.4-1v0v0c0.2-0.3,0.3-0.6,0.5-0.9c0.3-0.6,0.6-1.1,0.9-1.5
	l0,0h0C122.6,83.8,122.9,83.8,123.1,83.8L123.1,83.8z"/>
<path class="st5" d="M112.1,102.3c-0.3,0.1-0.7,0.2-1.1,0.3c-0.4,0.1-0.7,0.1-1.1,0.1C110.7,102.5,111.4,102.4,112.1,102.3
	L112.1,102.3z"/>
<path class="st5" d="M101.1,100.9c-0.7-0.2-1.3-0.5-1.9-0.9c0.3,0.1,0.7,0.2,1,0.4C100.5,100.5,100.8,100.7,101.1,100.9z"/>
<path class="st12" d="M84.2,61.1c-0.9,0.6-2,1-3.1,1.2c-0.4,0.1-0.9,0.1-1.4,0c-0.2,0-0.4-0.2-0.6-0.3c-0.2-0.1-0.3-0.3-0.4-0.6
	c-0.1-0.3-0.1-0.6-0.2-0.9c-0.2-0.4-0.7-0.4-1.1-0.5c-0.7-0.2-1.5-0.6-1.7-1.4c-0.3-0.9,0.3-1.7,0.9-2.5c0.3-0.5,0.8-0.9,1.3-1.3
	c0.5-0.3,1.3-0.3,1.7,0.1c0.2-0.7,0.7-1.3,1.3-1.7c0.3-0.2,0.7-0.3,1-0.3c0.4,0,0.7,0.1,1,0.3c0.3,0.2,0.5,0.5,0.6,0.9
	c0.1,0.3,0.1,0.7-0.1,1.1c0.7-0.2,1.3,0.5,1.4,1.2c0.1,0.7-0.1,1.3-0.3,2c-0.2,0.7-0.2,1.4,0.1,2"/>
<g class="st17">
	<path class="st18" d="M84.3,61.1c-1,0.6-2,1-3.1,1.2c-0.5,0.1-0.9,0.1-1.4,0c-0.2,0-0.4-0.2-0.6-0.3c-0.2-0.2-0.3-0.3-0.4-0.6
		c-0.1-0.3-0.1-0.7-0.2-0.9c-0.2-0.4-0.7-0.4-1.1-0.5c-0.7-0.2-1.5-0.6-1.7-1.4c-0.3-0.9,0.3-1.8,0.9-2.5c0.3-0.5,0.8-0.9,1.3-1.3
		c0.5-0.3,1.3-0.3,1.7,0.1c0.2-0.7,0.7-1.3,1.3-1.7c0.3-0.2,0.7-0.3,1-0.3c0.4,0,0.7,0.1,1,0.3c0.3,0.2,0.5,0.5,0.6,0.9
		c0.1,0.3,0.1,0.7-0.1,1.1c0.7-0.2,1.3,0.5,1.4,1.2c0.1,0.7-0.1,1.3-0.3,2c-0.2,0.7-0.2,1.4,0.1,2"/>
</g>
<path class="st6" d="M104.2,66.8l-4.3,4.3l-5.7-7.3l-0.2-0.3l0,0l-4.2-3.8l-5.3,0.3l3.7,0.8l1.6,1.6l-0.9,0.8c0,0-2.1-1.7-2.6-1.8
	c-0.5-0.1-0.4,0.2-0.4,0.6s2.5,2.7,2.5,2.7l2.7,1.6l0,0l8.5,11.1l8.9-5.9L104.2,66.8z"/>
<path class="st4" d="M89.6,61.4l-5.6-2l-0.4,1.5l5.4,2.1c0.1,0,0.2,0.1,0.3,0.1c0.1,0,0.2,0,0.3-0.1c0.1-0.1,0.2-0.1,0.3-0.2
	c0.1-0.1,0.1-0.2,0.2-0.3l0,0c0.1-0.2,0-0.4,0-0.6C90,61.7,89.8,61.5,89.6,61.4L89.6,61.4z"/>
<path class="st8" d="M84,59.5l-2.3-2.4c0,0-1.1,1.5-0.7,2.4l0.6,0.3h-0.8c0,0-0.4,1,0,1.5l2.7-0.3L84,59.5z"/>
<path class="st5" d="M84,59.5l-0.4,1.5l0.8,0.3l0.4-1.5L84,59.5z"/>
<path class="st12" d="M81.2,61.8c0,0,0.1-0.1,0.3-0.3c0.2-0.2,0.5-0.3,0.8-0.4c0.4-0.1,0.8-0.2,1.3-0.2c0,0-0.6,0.1-1.2,0.3
	c-0.3,0.1-0.5,0.2-0.8,0.4C81.4,61.7,81.3,61.8,81.2,61.8L81.2,61.8z"/>
<path class="st12" d="M82.3,57c0,0,0.2,0.6,0.6,1.3c0.4,0.7,0.8,1.2,0.8,1.3c-0.4-0.3-0.7-0.7-0.9-1.2C82.6,57.9,82.4,57.5,82.3,57
	L82.3,57z"/>
<path class="st7" d="M99.1,77.7c0.4,0,0.8,0,1.2-0.2c0.4-0.2,0.8-0.4,1-0.8c0.2-0.2,0.3-0.4,0.4-0.6c0-0.1,0.1-0.1,0.1-0.2
	c0-0.1,0.1-0.1,0.1-0.2c0.1-0.1,0.1-0.3,0.1-0.4c0.3-1.1,0.5-2.2,0.6-2.9c0.1-0.4,0.1-0.7,0.2-0.9c0-0.1,0-0.2,0.1-0.3
	c0,0.1,0,0.2,0,0.3c0,0.2-0.1,0.5-0.1,0.9c-0.1,1-0.3,2-0.5,2.9c0,0.1-0.1,0.3-0.1,0.4c0,0.1-0.1,0.1-0.1,0.2c0,0.1-0.1,0.1-0.1,0.2
	c-0.1,0.2-0.3,0.4-0.5,0.7c-0.3,0.4-0.7,0.6-1.1,0.8c-0.3,0.1-0.6,0.1-0.9,0.1C99.3,77.7,99.2,77.7,99.1,77.7z"/>
<path class="st6" d="M96.5,69.6l-0.1,2.7L84.7,72l0.5,3.5l13.4,2.1c0.8,0.1,1.6-0.1,2.3-0.5c0.7-0.5,1.1-1.2,1.3-2l0.7-3.9
	L96.5,69.6z"/>
<path class="st7" d="M84.7,72c0,0,0.1,0,0.1,0h0.4l1.5,0c1.3,0,3.1,0,5.1,0.1l4.5,0.1l-0.1,0.1c0-0.8,0.1-1.5,0.1-1.9
	c0-0.2,0-0.4,0-0.5c0-0.1,0-0.1,0-0.2c0,0.1,0,0.1,0,0.2c0,0.1,0,0.3,0,0.5c0,0.5,0,1.1-0.1,1.9v0.1h-0.1l-4.5-0.1
	c-2,0-3.8-0.1-5.1-0.1l-1.5-0.1l-0.4,0C84.8,72.1,84.8,72.1,84.7,72z"/>
<path class="st5" d="M79,70.9l-2.5-4.2h8.1l1.7,3.9l4.5,0.5V72l-9.3,0.4L79,70.9z"/>
<path class="st13" d="M77.8,67.3l1.8,3.1h6.1L84,67.2L77.8,67.3z"/>
<path class="st7" d="M85.7,70.5h-6.1l-1.8-3.1h0l6.2-0.1L85.7,70.5z M79.6,70.5h6.1L84,67.2l-6.2,0.1L79.6,70.5z"/>
<path class="st6" d="M85.2,75.5c0,0-4-0.2-5.5-2.9l-0.7-1.7c0,0,3.8,0.9,4,0.5c0.2-0.4-1.2-2.8-0.9-2.8c0.3,0,0.7-0.3,1.4,0.9
	c0.7,1.3,1.4,2.7,1.4,2.7L85.2,75.5z"/>
<path class="st7" d="M88.1,75.9c-0.1,0-0.3,0-0.4-0.1l-1.2-0.1c-0.5-0.1-1.1-0.1-1.8-0.3c-0.7-0.1-1.4-0.3-2.1-0.6
	c-0.4-0.1-0.7-0.3-1-0.5c-0.3-0.2-0.6-0.4-0.8-0.7c-0.5-0.4-0.9-0.8-1.2-1.3c-0.2-0.3-0.4-0.7-0.5-1.1c0-0.1-0.1-0.2-0.1-0.3
	c0-0.1,0-0.1,0-0.1c0.2,0.5,0.4,1,0.7,1.4c0.3,0.5,0.8,0.9,1.2,1.3c0.3,0.2,0.5,0.4,0.8,0.6c0.3,0.2,0.6,0.4,1,0.5
	c0.7,0.3,1.4,0.4,2.1,0.6c0.7,0.1,1.2,0.2,1.7,0.3c0.5,0.1,0.9,0.1,1.2,0.2C87.8,75.9,87.9,75.9,88.1,75.9
	C88,75.9,88,75.9,88.1,75.9L88.1,75.9z"/>
<path class="st8" d="M106.5,80.2l16.9-0.6c0,0-3.3-17.9-9.1-22.7c-5.8-4.9-13-3.1-13-3.1s-2.8,0.7-3.8,1.3
	C95.4,55.7,96,69.5,96,69.5l8.2,2l0.1-4c0.8,1.3,1.5,2.3,2,3c0.3,0.5,0.5,1.1,0.4,1.7L106.5,80.2z"/>
<g class="st10">
	<path class="st11" d="M99.4,52.9c0.2,2.5,1.6,4.8,3.6,6.4c1.9,1.6,4.4,2.5,6.8,3c1.3,0.3,2.8,0.4,4-0.2c1.2-0.5,2.2-1.9,1.9-3.2
		c-0.3-1.3-1.7-2-2.9-2.5l-10.7-4.9"/>
</g>
<g class="st10">
	<path class="st11" d="M108.5,68.4c0.1,1.4,0.7,2.7,1.3,4c0.6,1.3,1.2,2.6,1.4,4c0.2,1.4,0,2.9-0.9,4L108.5,68.4z"/>
</g>
<path class="st5" d="M106.3,70.5l-0.7,9.7L93.3,94.9l3.4,1.9l13.6-16.6l-0.5-4.8l12-2.8v-1.2l-12,2.5l-1.4-5.5l-4-2.7l-0.1,1.9
	L106.3,70.5z"/>
<path class="st4" d="M118.9,72.9C118.8,72.8,118.8,72.8,118.9,72.9c-0.1-0.2-0.1-0.2-0.1-0.4c-0.1-0.3-0.2-0.7-0.2-1.1
	c-0.2-1.3-0.1-2.7,0.3-3.9c0.1-0.4,0.3-0.8,0.5-1.2c0.1-0.2,0.2-0.4,0.3-0.6c0.1-0.2,0.4-0.4,0.6-0.4c0.1,0,0.3,0,0.4,0
	c0.1,0,0.2,0.1,0.3,0.2c0.2,0.2,0.3,0.4,0.4,0.7c0.2,0.5,0.3,1.1,0.2,1.6c-0.1,1.2-0.5,2.3-1.2,3.2c-0.3,0.5-0.7,1-1.1,1.5
	c-0.1,0.1-0.2,0.3-0.3,0.4c-0.1,0.1-0.3,0.2-0.5,0.2c-0.2,0-0.3,0-0.5-0.1c-0.1-0.1-0.3-0.2-0.4-0.2c-1.1-0.6-2.1-1.3-3-2.2
	c-0.4-0.4-0.9-0.8-1.2-1.3c-0.2-0.2-0.4-0.4-0.5-0.7c-0.2-0.2-0.3-0.4-0.5-0.7c-0.2-0.2-0.2-0.5-0.2-0.8c0-0.1,0-0.3,0.1-0.4
	c0.1-0.1,0.2-0.2,0.3-0.3c0.1-0.1,0.3-0.1,0.4-0.1c0.1,0,0.3,0,0.4,0c0.2,0.1,0.5,0.2,0.7,0.3c0.8,0.4,1.6,0.9,2.2,1.6
	c1,0.9,1.7,2,2.3,3.2C118.6,71.9,118.8,72.3,118.9,72.9c0-0.1,0-0.1,0-0.2l-0.1-0.3c-0.1-0.3-0.2-0.7-0.4-1
	c-0.5-1.2-1.3-2.3-2.3-3.2c-0.7-0.6-1.4-1.1-2.2-1.5c-0.2-0.1-0.4-0.2-0.7-0.3c-0.1,0-0.2-0.1-0.4,0c-0.1,0-0.2,0-0.3,0.1
	c-0.1,0.1-0.2,0.2-0.2,0.3c-0.1,0.1-0.1,0.2-0.1,0.4c0,0.3,0.1,0.5,0.2,0.7c0.1,0.2,0.3,0.5,0.5,0.7c0.2,0.2,0.4,0.4,0.5,0.7
	c0.4,0.4,0.8,0.9,1.2,1.2c0.9,0.8,1.9,1.6,3,2.2c0.2,0.2,0.5,0.3,0.8,0.3c0.3,0,0.5-0.3,0.7-0.5c0.4-0.5,0.7-1,1.1-1.5
	c0.7-0.9,1.1-2,1.2-3.2c0-0.5,0-1.1-0.2-1.6c-0.1-0.2-0.2-0.5-0.4-0.6c-0.1-0.1-0.2-0.2-0.3-0.2c-0.1,0-0.2-0.1-0.3,0
	c-0.2,0.1-0.4,0.2-0.5,0.4c-0.1,0.2-0.2,0.4-0.3,0.6c-0.2,0.4-0.3,0.8-0.5,1.2c-0.4,1.3-0.5,2.6-0.3,3.9c0,0.4,0.1,0.7,0.2,1.1
	l0.1,0.3C118.8,72.8,118.9,72.8,118.9,72.9L118.9,72.9z"/>
<path class="st4" d="M118.6,78.4c0-0.1-0.1-0.2-0.1-0.2c0-0.2,0.1-0.5,0.2-0.7c0.2-0.3,0.4-0.5,0.7-0.8c0.2-0.3,0.5-0.6,0.4-1
	c0-0.2-0.1-0.4-0.3-0.5c-0.1-0.1-0.3-0.3-0.4-0.4c-0.3-0.2-0.5-0.5-0.6-0.8c0-0.1-0.1-0.2,0-0.4c0-0.1,0.1-0.2,0.1-0.3
	c0.1-0.1,0.2-0.2,0.2-0.2c0,0-0.1,0.1-0.2,0.2c0,0.1-0.1,0.2-0.1,0.3c0,0.1,0,0.2,0,0.3c0.1,0.3,0.4,0.5,0.6,0.7
	c0.2,0.1,0.3,0.3,0.4,0.4c0.2,0.2,0.3,0.4,0.3,0.6c0,0.2,0,0.5-0.1,0.7c-0.1,0.2-0.2,0.3-0.4,0.5c-0.2,0.2-0.5,0.5-0.7,0.7
	c-0.1,0.2-0.2,0.4-0.2,0.6C118.6,78.3,118.6,78.4,118.6,78.4z"/>
<path class="st4" d="M121.5,73.7c0,0,0.1,0,0.1,0.1c0,0.1,0.1,0.2,0.1,0.2c0,0.1,0,0.2-0.1,0.2c-0.1,0.1-0.1,0.2-0.2,0.3
	c-0.1,0.1-0.2,0.1-0.3,0.1c-0.3,0-0.6-0.1-0.8-0.3c-0.4-0.3-0.8-0.7-1-1.1c-0.1-0.2-0.2-0.4-0.2-0.6c0,0,0.1,0.2,0.3,0.5
	c0.3,0.4,0.6,0.8,1,1.1c0.2,0.2,0.5,0.2,0.7,0.2c0.1,0,0.2,0,0.3-0.1c0.1,0,0.2-0.1,0.2-0.2c0-0.1,0.1-0.1,0.1-0.2
	c0-0.1,0-0.1,0-0.2C121.5,73.8,121.5,73.7,121.5,73.7z"/>
<path class="st4" d="M104.3,61.9c0,0.1,0,0.2,0,0.4c0,0.2,0,0.6,0,1c0,0.8,0,1.9,0,3.2c0,1.2-0.1,2.4-0.1,3.2c0,0.4-0.1,0.7-0.1,1
	c0,0.1,0,0.2-0.1,0.4c0-0.1,0-0.2,0-0.4c0-0.3,0-0.6,0-1c0-0.8,0.1-1.9,0.1-3.2s0-2.4,0-3.2c0-0.4,0-0.7,0-1
	C104.3,62.2,104.3,62,104.3,61.9L104.3,61.9z"/>
<path class="st6" d="M92.5,42.1c0.2,0.1,2.5,8.6,3.7,9.2c1.2,0.6,5.7,0,5.7,0l-1.5-10.1L92.5,42.1z"/>
<path class="st4" d="M92.8,42.4c-0.4-0.3-0.8-0.8-0.9-1.4c-0.2-0.5-0.2-1.1,0-1.7c0.1-0.2,0.2-0.4,0.3-0.6c0.7-0.9,3.7-4,6.2-4.3
	c1.5-0.2,4.8,0,5.6,1.6c0.5,1.1,8.4,13.9,9.5,16.6c1,2.8,3.5,5.7,1.3,7.5c-2.2,1.7-13.2-0.2-15-4.9c-1.8-4.7-1.4-3.8-1.2-5.9
	c0-0.8,0.2-1.6,0.4-2.4c0,0,1.8-2.7-0.2-3.3c-1.5-0.5-1.9,1.4-1.9,1.4s-0.3,0.2-0.8-0.1C95.7,44.9,94,43.4,92.8,42.4z"/>
<path class="st4" d="M102.8,36.9c-0.4-0.3,0-1.8,0.2-2.3c0.1-0.2,0.3-0.4,0.5-0.6c0.2-0.2,0.5-0.3,0.7-0.3c0.5-0.2,1-0.1,1.5,0.1
	c0.6,0.3,1,0.9,1.2,1.6c0.2,0.6,0.3,1.2,0.2,1.8c-0.1,0.3-0.2,0.6-0.4,0.8c-0.2,0.2-0.4,0.4-0.7,0.6c-0.3,0.1-0.6,0.1-0.8,0.1
	c-0.3,0-0.6-0.1-0.8-0.2c-0.5-0.2-1-0.6-1.4-1c-0.4-0.4-0.7-0.9-0.8-1.5"/>
<path class="st5" d="M104.8,39c0,0,0,0.1-0.1,0.1c-0.1,0.1-0.1,0.2-0.2,0.3c-0.3,0.4-0.6,0.7-1,1c-1.1,1.1-2.5,1.9-4,2.3
	c-1.5,0.5-3.1,0.6-4.6,0.4c-0.5-0.1-0.9-0.1-1.4-0.3c-0.2,0-0.3-0.1-0.4-0.1c0,0-0.1,0-0.1-0.1c0.2,0,0.3,0.1,0.5,0.1
	c0.5,0.1,0.9,0.2,1.4,0.2c1.5,0.2,3.1,0,4.6-0.5c1.5-0.5,2.8-1.2,4-2.3c0.3-0.3,0.7-0.6,1-1C104.5,39.2,104.7,39.1,104.8,39
	L104.8,39z"/>
<path class="st5" d="M103.9,38.5c-0.1,0.1-0.2,0.2-0.4,0.3c-0.1,0.1-0.3,0.2-0.4,0.4c-0.2,0.1-0.4,0.3-0.6,0.4
	c-0.2,0.2-0.5,0.3-0.8,0.5c-0.3,0.2-0.6,0.3-0.9,0.5c-0.7,0.3-1.5,0.6-2.2,0.8c-0.8,0.2-1.6,0.3-2.4,0.4c-0.4,0-0.7,0-1,0
	c-0.3,0-0.6,0-0.9-0.1c-0.3,0-0.5-0.1-0.7-0.1c-0.2,0-0.4-0.1-0.5-0.1c-0.2,0-0.3-0.1-0.5-0.1c0.2,0,0.3,0,0.5,0.1
	c0.2,0,0.3,0.1,0.5,0.1c0.2,0,0.5,0.1,0.7,0.1c0.3,0,0.6,0,0.9,0c0.3,0,0.7,0,1,0c1.6-0.1,3.1-0.5,4.6-1.1c0.3-0.2,0.6-0.3,0.9-0.5
	s0.5-0.3,0.8-0.4c0.2-0.1,0.4-0.3,0.6-0.4c0.2-0.1,0.3-0.2,0.5-0.3C103.7,38.6,103.8,38.5,103.9,38.5L103.9,38.5z"/>
<path class="st5" d="M106.9,35.7c0,0,0,0.1,0,0.2c0,0.2-0.1,0.3-0.3,0.4c-0.4,0.3-1,0.5-1.5,0.6c-0.5,0.1-1.1,0.1-1.6,0
	c-0.2,0-0.4-0.1-0.6-0.2c0,0,0.3,0,0.7,0.1c0.5,0.1,1.1,0,1.6-0.1c0.5-0.1,1-0.3,1.5-0.6c0.1-0.1,0.2-0.2,0.3-0.3
	C106.9,35.8,106.8,35.7,106.9,35.7z"/>
<path class="st5" d="M107.1,36.7c0,0.1,0,0.1,0,0.2c0,0.2-0.1,0.3-0.2,0.5c-0.3,0.5-0.8,0.8-1.4,0.9c-0.6,0.1-1.1,0.1-1.6-0.1
	c-0.2-0.1-0.4-0.2-0.6-0.3c0,0,0.2,0.1,0.6,0.2c0.5,0.2,1.1,0.2,1.6,0.1c0.5-0.1,1-0.4,1.3-0.8C106.9,37.1,107,36.9,107.1,36.7
	L107.1,36.7z"/>
<path class="st5" d="M109.7,59.6c0-0.1-0.1-0.1-0.1-0.2c0-0.2-0.1-0.4,0-0.7c0-0.3,0.1-0.6,0.1-1.1c0.1-0.5,0-0.9-0.2-1.4
	c-0.3-0.5-0.6-0.9-1.1-1.3c-0.5-0.4-1.1-0.7-1.7-1c-0.6-0.3-1.3-0.5-2-0.8c-0.4-0.1-0.7-0.3-1-0.5c-0.4-0.2-0.6-0.5-0.9-0.8
	c-0.2-0.4-0.3-0.8-0.3-1.2c0-0.4,0-0.8,0.1-1.2c0.2-0.7,0.3-1.4,0.4-2.1c0.1-0.6,0.1-1.3,0-1.9c-0.1-0.6-0.3-1.1-0.5-1.6
	c-0.3-0.5-0.7-0.9-1.2-1.2c-0.5-0.3-1.1-0.4-1.6-0.3c0,0,0,0,0.1,0c0.1,0,0.1,0,0.2,0c0.2,0,0.5,0,0.7,0c0.4,0.1,0.7,0.2,1,0.4
	c0.4,0.3,0.7,0.6,1,1c0.3,0.5,0.5,1,0.6,1.6c0.1,0.7,0.1,1.3,0,2c-0.1,0.7-0.3,1.4-0.4,2.1c-0.1,0.4-0.1,0.7-0.1,1.1
	c0,0.4,0.1,0.8,0.3,1.1c0.2,0.3,0.5,0.6,0.8,0.8c0.3,0.2,0.7,0.4,1,0.5c0.7,0.3,1.4,0.5,2,0.8c0.6,0.3,1.2,0.6,1.7,1
	c0.5,0.3,0.8,0.8,1.1,1.3c0.2,0.4,0.3,0.9,0.2,1.4c0,0.4-0.1,0.8-0.1,1.1C109.6,59,109.7,59.3,109.7,59.6L109.7,59.6z"/>
<path class="st5" d="M114.1,60.1c0-0.1,0-0.2,0-0.2c0-0.2,0.1-0.4,0.1-0.7c0.2-0.8,0.2-1.6,0.1-2.5c-0.1-0.6-0.3-1.1-0.7-1.5
	c-0.4-0.5-0.9-0.9-1.5-1.2c-0.6-0.3-1.3-0.6-1.9-1c-0.7-0.4-1.3-0.9-1.8-1.5c-1-1.2-1.7-2.5-2.2-3.9c-0.5-1.3-0.8-2.5-1.2-3.5
	c-0.3-0.8-0.6-1.5-0.9-2.3c-0.1-0.3-0.2-0.5-0.3-0.6c0-0.1-0.1-0.1-0.1-0.2c0,0.1,0.1,0.1,0.1,0.2c0.1,0.1,0.2,0.3,0.3,0.6
	c0.4,0.7,0.7,1.5,1,2.3c0.4,1,0.7,2.2,1.2,3.5c0.5,1.4,1.2,2.7,2.2,3.9c0.5,0.6,1.1,1.1,1.8,1.5c0.6,0.4,1.3,0.7,1.9,1
	c0.6,0.3,1.1,0.7,1.5,1.2c0.4,0.5,0.6,1,0.7,1.6c0.1,0.8,0.1,1.7-0.1,2.5c-0.1,0.3-0.1,0.5-0.2,0.7C114.2,60,114.2,60.1,114.1,60.1
	L114.1,60.1z"/>
<path class="st4" d="M105.5,35.3C105.5,35.3,105.5,35.3,105.5,35.3c0.1-0.1,0.2-0.2,0.3-0.2c0.3-0.2,0.6-0.2,0.9-0.2
	c0.2,0,0.5,0.1,0.7,0.2c0.2,0.1,0.4,0.3,0.5,0.5c0.3,0.5,0.5,1.1,0.5,1.7c0,0.3,0,0.6-0.2,0.9c-0.1,0.3-0.3,0.5-0.6,0.6
	c-0.4,0.2-0.9,0.3-1.4,0.2c-0.3,0-0.6-0.1-0.9-0.3c-0.1,0-0.2-0.1-0.3-0.2c0.4,0.2,0.8,0.3,1.2,0.3c0.5,0.1,0.9,0,1.3-0.2
	c0.2-0.1,0.4-0.3,0.5-0.6c0.1-0.3,0.1-0.6,0.1-0.8c0-0.6-0.2-1.1-0.5-1.6c-0.3-0.4-0.7-0.6-1.1-0.7c-0.3-0.1-0.6,0-0.9,0.1
	C105.6,35.3,105.5,35.3,105.5,35.3z"/>
<path class="st4" d="M112.6,41.2c-0.1,0-0.2,0.1-0.3,0.1c-0.1,0-0.3,0-0.4,0c-0.2,0-0.4,0-0.5,0c-0.5,0-1-0.1-1.4-0.1
	c-0.6-0.1-1.1-0.3-1.7-0.5c-0.5-0.2-1.1-0.5-1.6-0.8c-0.4-0.3-0.8-0.5-1.1-0.9c-0.2-0.1-0.3-0.3-0.4-0.4c-0.1-0.1-0.2-0.2-0.3-0.3
	c-0.1-0.1-0.2-0.2-0.2-0.3c0,0,0.3,0.4,1,0.9c0.4,0.3,0.7,0.6,1.1,0.8c0.5,0.3,1,0.6,1.5,0.8c0.5,0.2,1.1,0.4,1.7,0.5
	c0.5,0.1,0.9,0.1,1.4,0.2C112.1,41.2,112.6,41.1,112.6,41.2z"/>
<path class="st7" d="M98.2,45.9c0.1,0,0.2,0,0.3-0.1c0.1-0.1,0.1-0.2,0.2-0.3c0-0.1,0.1-0.2,0-0.4c0-0.1,0-0.2-0.1-0.3
	c-0.1-0.1-0.2-0.2-0.3-0.2c-0.1,0-0.2,0-0.3,0c0,0,0.1-0.1,0.3-0.1c0.1,0,0.2,0.1,0.3,0.2c0.1,0.1,0.2,0.3,0.2,0.4
	c0,0.1,0,0.3-0.1,0.4c-0.1,0.1-0.1,0.2-0.2,0.3C98.3,46,98.1,45.9,98.2,45.9z"/>
<path class="st4" d="M33.5,112H13.8v2.7h19.7V112z"/>
<path class="st4" d="M33.5,114.7H13.8V112h19.7V114.7z M13.8,114.7h19.6V112H13.8V114.7z"/>
<path class="st4" d="M15.6,113.8l2.8,14h10.5l2.7-13.1L15.6,113.8z"/>
<path class="st5" d="M15.6,126.4l1.5,2.1h12.7l1.8-2.1H15.6z"/>
<path class="st4" d="M22.9,114.2c0,0-0.1-6.5-0.1-14.4c0-8,0-14.4,0-14.4s0.1,6.5,0.1,14.4C23,107.7,22.9,114.2,22.9,114.2z"/>
<path class="st4" d="M27.3,98c0,0.1,0,0.1-0.1,0.2L27,98.6c0,0.1-0.1,0.2-0.1,0.3l-0.1,0.4c0,0.1-0.1,0.3-0.2,0.4
	c-0.1,0.1-0.1,0.3-0.1,0.5c-0.2,0.8-0.4,1.6-0.5,2.4c-0.2,1-0.3,2-0.3,3c-0.1,1.8,0,3.7,0.2,5.5c0.1,0.7,0.1,1.3,0.2,1.7
	c0,0.2,0,0.3,0.1,0.5c0,0.1,0,0.1,0,0.2c0-0.1,0-0.1,0-0.2l-0.1-0.4c-0.1-0.4-0.1-1-0.2-1.7c-0.2-1.8-0.3-3.7-0.2-5.5
	c0.1-1,0.2-2,0.3-3c0.1-0.8,0.3-1.6,0.6-2.4c0.1-0.2,0.1-0.3,0.2-0.5c0.1-0.1,0.1-0.3,0.2-0.4c0-0.1,0.1-0.3,0.1-0.4
	c0-0.1,0.1-0.2,0.1-0.3c0.1-0.2,0.1-0.3,0.2-0.4C27.2,98.1,27.2,98.1,27.3,98L27.3,98z"/>
<path class="st4" d="M26.8,92.8c0,0.1,0,0.1-0.1,0.2c-0.1,0.2-0.1,0.4-0.2,0.6L26.4,94c0,0.2-0.1,0.3-0.2,0.5
	c-0.1,0.4-0.2,0.8-0.4,1.3l-0.2,0.7c-0.1,0.3-0.1,0.5-0.2,0.8c-0.1,0.6-0.2,1.2-0.4,1.8c-0.2,1.3-0.4,2.7-0.5,4.2
	c-0.1,1.5-0.2,2.9-0.2,4.2c0,1.3,0,2.5,0.1,3.5c0,0.5,0,0.9,0.1,1.3c0,0.4,0,0.7,0.1,1c0,0.3,0,0.5,0,0.6c0,0.1,0,0.1,0,0.2
	c0-0.1,0-0.1,0-0.2c0-0.2,0-0.4-0.1-0.6c0-0.3-0.1-0.6-0.1-1c0-0.4-0.1-0.8-0.1-1.3c-0.1-1-0.1-2.2-0.1-3.5c0-1.3,0.1-2.7,0.2-4.2
	c0.1-1.5,0.3-2.9,0.5-4.2c0.1-0.6,0.2-1.3,0.4-1.8c0.1-0.3,0.1-0.5,0.2-0.8c0.1-0.3,0.1-0.5,0.2-0.7c0.1-0.5,0.3-0.9,0.4-1.3
	l0.2-0.5c0.1-0.2,0.1-0.3,0.2-0.4l0.2-0.6C26.7,92.9,26.7,92.9,26.8,92.8z"/>
<path class="st4" d="M21.7,115.3C21.6,115.3,21.6,115.3,21.7,115.3c0-0.1,0-0.2,0-0.3c0-0.2,0-0.5-0.1-0.9c0-0.8-0.1-1.8-0.2-3.2
	c-0.2-2.7-0.4-6.3-0.9-10.4c-0.2-2-0.5-3.9-0.8-5.7c-0.1-0.9-0.3-1.7-0.4-2.5c-0.2-0.8-0.3-1.5-0.4-2.1c-0.2-0.7-0.3-1.2-0.4-1.8
	c-0.1-0.5-0.2-1-0.3-1.3L18,86.5c0-0.1,0-0.2,0-0.2c0,0,0-0.1,0-0.1c0,0,0,0,0,0.1l0.1,0.2c0.1,0.2,0.1,0.5,0.2,0.8
	c0.1,0.3,0.2,0.8,0.3,1.3c0.1,0.5,0.3,1.1,0.4,1.8c0.1,0.7,0.3,1.4,0.4,2.1c0.1,0.8,0.3,1.6,0.4,2.5c0.3,1.7,0.5,3.7,0.8,5.7
	c0.4,4,0.7,7.7,0.8,10.4c0.1,1.3,0.1,2.4,0.2,3.2c0,0.4,0,0.7,0,0.9C21.7,115.2,21.7,115.2,21.7,115.3
	C21.7,115.3,21.7,115.3,21.7,115.3L21.7,115.3z"/>
<path class="st8" d="M22.7,88.4c-0.1-0.9-1-1.6-1.9-1.6s-1.8,0.5-2.3,1.3c-0.5,0.8-0.9,1.6-1.1,2.5c-0.6,2.2-1,4.4-0.7,6.7
	c0.3,2.2,1.2,4.4,2.8,6c0.3,0.3,0.6,0.5,1,0.4c0.2-0.1,0.4-0.2,0.5-0.3c1.6-1.4,2.8-3.2,3.6-5.1c0.8-2,1.2-4.1,1.2-6.2
	c0-0.8-0.1-1.7-0.6-2.4C24.6,88.9,23.5,88.1,22.7,88.4"/>
<path class="st12" d="M15.9,81.1l-1.3,2.3c0,0.1-0.1,0.1-0.1,0.1c-0.1,0-0.1-0.1-0.2-0.1l-3.4-5.3l0.8-0.4L15.9,81.1z"/>
<g class="st19">
	<path class="st20" d="M20.4,81.1l-1.3,2.3c0,0.1-0.1,0.1-0.1,0.1c-0.1,0-0.1-0.1-0.2-0.1l-3.4-5.3l0.8-0.4L20.4,81.1z"/>
</g>
<path class="st8" d="M22.8,85.3l-11.7-6.9c-0.1-0.1-0.2-0.2-0.3-0.3c0-0.2,0.1-0.3,0.2-0.5c0.8-0.8,1.8-1.5,2.9-1.9
	c1.1-0.4,2.2-0.6,3.4-0.5c1.2,0.1,2.3,0.4,3.3,1.1c1,0.6,1.8,1.5,2.4,2.5C24.1,80.7,24.1,83.4,22.8,85.3z"/>
<path class="st4" d="M12.8,76.2c0.1,0,0.1,0,0.2,0c0.1,0,0.2,0,0.4,0c0.5,0,1.1,0,1.6,0.1c1.8,0.3,3.4,1.1,4.8,2.3
	c1.3,1.2,2.3,2.8,2.8,4.5c0.1,0.5,0.2,1.1,0.3,1.6c0,0.1,0,0.3,0,0.4c0,0.1,0,0.1,0,0.2c0,0,0-0.2-0.1-0.6c-0.2-2-1.1-4-2.5-5.5
	c-1.4-1.5-3.3-2.5-5.3-2.9c-0.5-0.1-1.1-0.2-1.6-0.2C13,76.2,12.8,76.2,12.8,76.2z"/>
<path class="st4" d="M21.2,80.6c-0.2,0.1-0.4,0.2-0.6,0.3c-0.4,0.1-0.9,0.3-1.5,0.5c-0.6,0.2-1.1,0.3-1.5,0.4
	c-0.2,0.1-0.4,0.1-0.6,0.1c0.2-0.1,0.4-0.2,0.6-0.2l1.5-0.5l1.5-0.5C20.8,80.6,21,80.6,21.2,80.6L21.2,80.6z"/>
<path class="st4" d="M19.4,75.6c0.1,0.4,0.1,0.9,0.1,1.3c0,0.4,0,0.9-0.1,1.3c-0.1-0.4-0.1-0.9-0.1-1.3C19.4,76.5,19.4,76,19.4,75.6
	L19.4,75.6z"/>
<path class="st4" d="M11,78.3c0.3-0.1,0.6-0.2,0.8-0.3c0.5-0.2,1.3-0.4,2.1-0.6c0.8-0.2,1.6-0.4,2.1-0.4c0.3-0.1,0.6-0.1,0.9-0.1
	c-0.3,0.1-0.6,0.2-0.9,0.2c-0.5,0.1-1.3,0.3-2.1,0.5c-0.8,0.2-1.6,0.4-2.1,0.5C11.6,78.2,11.3,78.2,11,78.3L11,78.3z"/>
<path class="st8" d="M17.4,86.3c-1-0.8-2.1-0.9-3.3-0.9c-1.3,0.1-2.5,0.4-3.6,0.9c-2,0.9-3.8,2.1-5,3.9c-1.2,1.8-1.6,4.2-0.7,6.1
	c0.1,0.2,0.2,0.4,0.4,0.5c0.2,0.1,0.5,0,0.7,0c2.2-0.7,4.5-1.5,6.6-2.6c2.1-1.1,3.9-2.7,5-4.8c0.3-0.5,0.5-1,0.5-1.6
	c0-0.3,0-0.6-0.1-0.8C17.8,86.7,17.6,86.5,17.4,86.3"/>
<path class="st4" d="M17.4,86c-0.1,0-0.1,0-0.2,0.1l-0.5,0.2l-0.3,0.1c-0.1,0-0.3,0.1-0.4,0.2c-0.3,0.1-0.6,0.2-1,0.4l-0.5,0.3
	c-0.2,0.1-0.4,0.2-0.6,0.3c-0.4,0.2-0.8,0.5-1.3,0.7c-0.9,0.6-1.8,1.2-2.7,2c-0.8,0.7-1.6,1.5-2.3,2.4c-0.3,0.4-0.6,0.8-0.9,1.2
	c-0.1,0.2-0.3,0.4-0.4,0.5l-0.3,0.5c-0.2,0.3-0.4,0.6-0.5,0.9c-0.1,0.1-0.1,0.3-0.2,0.4c-0.1,0.1-0.1,0.2-0.2,0.3l-0.2,0.4
	c0,0.1-0.1,0.1-0.1,0.2c0-0.1,0-0.1,0.1-0.2l0.2-0.5c0-0.1,0.1-0.2,0.1-0.3c0.1-0.1,0.1-0.2,0.2-0.4c0.1-0.3,0.3-0.6,0.5-0.9
	c0.1-0.2,0.2-0.3,0.3-0.5c0.1-0.2,0.2-0.4,0.4-0.5c0.2-0.4,0.5-0.8,0.9-1.2c0.7-0.9,1.5-1.7,2.3-2.4c0.8-0.7,1.7-1.4,2.7-2
	c0.4-0.3,0.9-0.5,1.3-0.7c0.2-0.1,0.4-0.2,0.6-0.3l0.5-0.2c0.4-0.2,0.7-0.3,1-0.4c0.1-0.1,0.3-0.1,0.4-0.1l0.3-0.1l0.5-0.1
	C17.3,86,17.4,86,17.4,86z"/>
<path class="st4" d="M9.6,90.3c-0.8,0.3-1.6,0.6-2.4,0.8c-0.8,0.3-1.7,0.5-2.5,0.6c0.8-0.3,1.6-0.6,2.5-0.8
	C7.9,90.7,8.8,90.4,9.6,90.3L9.6,90.3z"/>
<path class="st4" d="M9.5,95.7c0-0.3-0.1-0.5-0.1-0.8c0-0.5,0-1.1,0-1.8c0-0.7,0.1-1.4,0.1-1.8c0-0.3,0-0.5,0.1-0.8
	c0,0.3,0,0.5,0,0.8c0,0.5,0,1.1-0.1,1.8c0,0.7,0,1.3,0,1.8C9.5,95.2,9.5,95.4,9.5,95.7L9.5,95.7z"/>
<path class="st4" d="M14.1,93.3c0,0-0.2-1.3-0.3-3c-0.1-1.6-0.2-3-0.1-3c0,0,0.2,1.3,0.3,3C14.1,92,14.1,93.3,14.1,93.3z"/>
<path class="st4" d="M8.4,87.3c0.3,0,0.5,0,0.8,0c0.5,0,1.2,0,1.9,0c0.7,0,1.4,0.1,1.9,0.1c0.3,0,0.5,0,0.8,0.1c-0.3,0-0.5,0-0.8,0
	c-0.5,0-1.2,0-1.9,0c-0.7,0-1.4-0.1-1.9-0.1C8.9,87.3,8.6,87.3,8.4,87.3L8.4,87.3z"/>
<path class="st4" d="M19.9,103.9c0-0.1,0-0.1,0-0.2c0-0.1,0-0.3,0-0.5c0-0.4,0-1,0-1.7c0-0.7,0.1-1.6,0.1-2.5c0.1-0.9,0.2-2,0.4-3
	s0.4-2.1,0.7-3c0.2-0.9,0.5-1.7,0.7-2.4c0.2-0.7,0.4-1.2,0.6-1.6c0.1-0.2,0.1-0.3,0.2-0.4c0-0.1,0-0.1,0.1-0.1c0,0.1,0,0.1,0,0.2
	c0,0.1-0.1,0.3-0.2,0.4c-0.1,0.4-0.3,0.9-0.5,1.6c-0.2,0.7-0.5,1.5-0.7,2.4c-0.2,0.9-0.5,1.9-0.7,3c-0.2,1.1-0.3,2.1-0.4,3
	c-0.1,0.9-0.1,1.8-0.2,2.5c0,0.7,0,1.3,0,1.7c0,0.2,0,0.3,0,0.5C19.9,103.8,19.9,103.8,19.9,103.9L19.9,103.9z"/>
<path class="st4" d="M20.5,95.9c-0.1,0.2-0.3,0.4-0.5,0.5c-0.3,0.3-0.7,0.7-1.2,1.1c-0.5,0.4-0.9,0.8-1.3,1.1
	c-0.2,0.2-0.4,0.3-0.6,0.4c0.2-0.2,0.3-0.3,0.5-0.5l1.3-1.1l1.2-1.1C20.2,96.2,20.3,96,20.5,95.9L20.5,95.9z"/>
<path class="st4" d="M24.2,98.9c-0.2-0.2-0.3-0.4-0.5-0.7l-1.2-1.7l-1.2-1.7c-0.2-0.2-0.3-0.5-0.5-0.7c0.2,0.2,0.4,0.4,0.5,0.6
	c0.3,0.4,0.8,1,1.2,1.6c0.5,0.7,0.9,1.3,1.1,1.7C24,98.4,24.1,98.6,24.2,98.9L24.2,98.9z"/>
<path class="st4" d="M22.3,89.5c0,0-1.2,0.9-2.7,1.8c-1.5,1-2.8,1.8-2.8,1.7c0,0,1.2-0.9,2.7-1.8C21,90.2,22.3,89.5,22.3,89.5z"/>
<path class="st4" d="M25.8,93.2c-0.6-0.5-1.3-1.1-1.9-1.7c-0.6-0.6-1.2-1.2-1.7-1.8c0.7,0.5,1.3,1.1,1.9,1.7
	C24.6,92,25.2,92.6,25.8,93.2L25.8,93.2z"/>
<path class="st8" d="M26.6,93.2l1.1-0.1c0.7-0.1,1.5-0.3,2.1-0.6c0.3-0.2,0.7-0.4,1-0.5c1.3-0.5,2.8-0.4,4.2-0.5
	c2.3-0.1,4.5-0.7,6.6-1.7c0.1-0.1,0.2-0.2,0.3-0.3c0.2-0.4-0.2-0.7-0.5-1c-1.8-1.1-3.6-2.2-5.6-2.7c-2-0.5-4.3-0.5-6,0.7
	C27.7,87.9,27,90.7,26.6,93.2"/>
<path class="st4" d="M41.9,89.3c-0.1,0-0.1,0-0.2-0.1L41.2,89c-0.4-0.2-1.1-0.6-1.8-0.9c-0.9-0.4-1.9-0.8-2.9-1.1
	c-1.2-0.3-2.5-0.4-3.7-0.3c-1.2,0.1-2.4,0.6-3.4,1.4c-0.7,0.7-1.3,1.5-1.8,2.5c-0.4,0.8-0.6,1.5-0.8,1.9c-0.1,0.2-0.1,0.4-0.2,0.5
	c0,0.1,0,0.1-0.1,0.2c0-0.1,0-0.1,0-0.2c0-0.1,0.1-0.3,0.2-0.5c0.2-0.7,0.4-1.3,0.7-1.9c0.4-1,1-1.8,1.8-2.5c1-0.8,2.2-1.4,3.4-1.5
	c1.3-0.1,2.5,0,3.8,0.3c1,0.3,2,0.7,2.9,1.1c0.8,0.4,1.4,0.7,1.8,1l0.5,0.3C41.8,89.2,41.9,89.3,41.9,89.3L41.9,89.3z"/>
<path class="st4" d="M39.4,90.7c0,0-1.4-0.9-3.1-2c-1.7-1.1-3-2.1-3-2.1c0,0,1.4,0.9,3.1,2C38.1,89.7,39.4,90.7,39.4,90.7z"/>
<path class="st4" d="M38,86.5c-0.3,0.1-0.7,0.2-1.1,0.2c-0.4,0.1-0.7,0.1-1.1,0c0.4-0.1,0.7-0.1,1.1-0.1
	C37.3,86.5,37.7,86.5,38,86.5L38,86.5z"/>
<path class="st4" d="M31.9,85.4c-0.1,0.3-0.3,0.6-0.5,0.9c-0.2,0.3-0.3,0.6-0.6,0.8c0.1-0.3,0.3-0.6,0.5-0.9
	C31.4,85.9,31.6,85.6,31.9,85.4L31.9,85.4z"/>
<path class="st4" d="M33.1,91.5c-0.2-0.1-0.5-0.2-0.7-0.4c-0.4-0.2-0.9-0.6-1.5-1c-0.6-0.4-1.1-0.8-1.4-1.1
	c-0.2-0.1-0.4-0.3-0.6-0.5c0.2,0.1,0.4,0.3,0.6,0.4L31,90c0.6,0.4,1.1,0.8,1.5,1C32.7,91.2,32.9,91.4,33.1,91.5L33.1,91.5z"/>
<path class="st8" d="M28.2,97.6c-1-0.3-2.2,0.7-2.4,1.7c-0.2,1,0.2,2.1,0.6,3c1,2.1,2.4,4,4.2,5.4c1.8,1.4,4.1,2.4,6.4,2.3
	c-0.4-2,0.1-4-0.1-6c-0.2-1.8-1-3.4-2.3-4.7c-1.3-1.3-2.9-2-4.7-2.2C29.2,97.2,28.4,97.1,28.2,97.6"/>
<path class="st4" d="M36.9,110.2c-0.1,0-0.1,0-0.1-0.1c-0.1-0.1-0.3-0.2-0.4-0.3c-0.4-0.4-0.8-0.8-1-1.3c-0.2-0.3-0.3-0.6-0.5-1
	l-0.5-1.2c-0.2-0.4-0.4-0.9-0.7-1.3c-0.3-0.4-0.6-0.9-0.9-1.2c-0.7-0.8-1.4-1.5-2.1-2.2c-0.6-0.6-1.1-1.2-1.6-1.9
	c-0.3-0.5-0.6-1-0.8-1.5c-0.1-0.1-0.1-0.3-0.1-0.4c0,0,0-0.1,0-0.2c0,0,0.1,0.2,0.2,0.6c0.2,0.5,0.5,1,0.8,1.4
	c0.5,0.7,1,1.3,1.6,1.9c0.6,0.7,1.4,1.4,2.1,2.2c0.3,0.4,0.7,0.8,0.9,1.3c0.2,0.4,0.5,0.8,0.7,1.3l0.5,1.2c0.2,0.4,0.3,0.7,0.5,1
	c0.2,0.5,0.5,1,0.9,1.3C36.7,110.1,36.9,110.2,36.9,110.2z"/>
<path class="st4" d="M31.7,108.5c0-0.2,0-0.5,0.1-0.7c0.1-0.4,0.2-1,0.4-1.6c0.2-0.6,0.4-1.2,0.5-1.6c0.1-0.2,0.2-0.4,0.3-0.6
	c0,0.2-0.1,0.4-0.2,0.7c-0.1,0.4-0.3,1-0.5,1.6c-0.2,0.6-0.3,1.2-0.4,1.6C31.9,108.1,31.8,108.3,31.7,108.5L31.7,108.5z"/>
<path class="st4" d="M36.7,103.7c-0.2,0-0.5-0.1-0.7-0.2c-0.4-0.1-1-0.3-1.7-0.4c-0.7-0.1-1.3-0.3-1.7-0.3c-0.2,0-0.5-0.1-0.7-0.2
	c0.2,0,0.5,0,0.7,0.1c0.4,0.1,1.1,0.2,1.7,0.3c0.7,0.2,1.3,0.3,1.7,0.5C36.3,103.5,36.5,103.6,36.7,103.7L36.7,103.7z"/>
<path class="st4" d="M28,105.1c0-0.3,0-0.5,0.1-0.8c0.1-0.5,0.2-1.1,0.4-1.9s0.4-1.4,0.5-1.8c0.1-0.3,0.2-0.5,0.3-0.7
	c0,0.3-0.1,0.5-0.2,0.8c-0.1,0.5-0.3,1.1-0.5,1.8c-0.2,0.7-0.3,1.4-0.5,1.8C28.1,104.6,28.1,104.8,28,105.1L28,105.1z"/>
<path class="st4" d="M34.4,99.4c0,0-1.3-0.1-2.8-0.2c-1.5-0.2-2.8-0.3-2.8-0.4c0,0,1.3,0.1,2.8,0.2C33.2,99.2,34.4,99.4,34.4,99.4z"
	/>
<path class="st5" d="M33.5,114.7c0,0-4.4,0.1-9.9,0.1s-9.9,0-9.9-0.1c0,0,4.4-0.1,9.9-0.1S33.5,114.6,33.5,114.7z"/>
<path class="st5" d="M30.4,120.4c0,0-3,0.1-6.6,0.1c-3.7,0-6.6,0-6.6-0.1c0,0,3-0.1,6.6-0.1C27.4,120.3,30.4,120.3,30.4,120.4z"/>
<path class="st5" d="M30.5,121.2c0,0-3,0.1-6.6,0.1c-3.7,0-6.6,0-6.6-0.1c0,0,3-0.1,6.6-0.1C27.6,121.1,30.5,121.2,30.5,121.2z"/>
<path class="st5" d="M30.5,119.7c0,0-3.1,0.1-6.9,0.1s-6.9,0-6.9-0.1c0,0,3.1-0.1,6.9-0.1S30.5,119.7,30.5,119.7z"/>
</svg>
