<svg width="18" height="18" viewBox="0 0 18 18" fill="none" xmlns="http://www.w3.org/2000/svg">
<path d="M1.91134 1.55469L15.0768 14.7202C15.3266 14.97 15.467 15.3088 15.467 15.6621C15.467 16.0154 15.3266 16.3543 15.0768 16.6041C14.827 16.8538 14.4882 16.9941 14.1349 16.9941C13.7816 16.9941 13.4428 16.8538 13.1929 16.6041L9.97687 13.3326C9.76641 13.1189 9.64834 12.8311 9.64812 12.5311V12.3335C9.64815 12.1821 9.61809 12.0321 9.55969 11.8924C9.50129 11.7526 9.41572 11.6259 9.30793 11.5195L8.8927 11.1361C8.75174 11.006 8.58033 10.9135 8.39425 10.867C8.20816 10.8206 8.01338 10.8216 7.82783 10.8702C7.53523 10.9466 7.22774 10.9451 6.93589 10.8659C6.64403 10.7867 6.37795 10.6326 6.16405 10.4189L3.11129 7.36576C1.30029 5.55476 0.63385 2.82003 1.91134 1.55469Z" stroke="#E14942" stroke-width="0.8" stroke-linejoin="round"/>
<path d="M14.1498 0.992188L11.3894 3.75264C11.1769 3.96502 11.0084 4.21715 10.8935 4.49466C10.7785 4.77216 10.7194 5.06959 10.7194 5.36996V5.90097C10.7194 5.9761 10.7046 6.0505 10.6758 6.11991C10.6471 6.18931 10.6049 6.25238 10.5518 6.30548L10.1476 6.70963M11.2911 7.85312L11.6953 7.44897C11.7484 7.39583 11.8114 7.35368 11.8808 7.32492C11.9502 7.29616 12.0246 7.28137 12.0998 7.28138H12.6308C12.9311 7.28138 13.2286 7.22221 13.5061 7.10725C13.7836 6.99229 14.0357 6.82378 14.2481 6.61137L17.0085 3.85091M15.5792 2.42155L12.7205 5.28027M7.00301 12.9988L3.43962 16.5822C3.17157 16.8502 2.80807 17.0007 2.42906 17.0007C2.05004 17.0007 1.68654 16.8502 1.4185 16.5822V16.5822C1.15053 16.3142 1 15.9507 1 15.5717C1 15.1927 1.15053 14.8292 1.4185 14.5611L4.43016 11.5695" stroke="#E14942" stroke-width="0.8" stroke-linecap="round" stroke-linejoin="round"/>
</svg>
