<?xml version="1.0" encoding="utf-8"?>
<!-- Generator: Adobe Illustrator 25.3.1, SVG Export Plug-In . SVG Version: 6.00 Build 0)  -->
<svg version="1.1" id="Layer_1" xmlns="http://www.w3.org/2000/svg" xmlns:xlink="http://www.w3.org/1999/xlink" x="0px" y="0px"
	 viewBox="0 0 16 16" style="enable-background:new 0 0 16 16;" xml:space="preserve">
<style type="text/css">
	.st0{fill:#263238;}
</style>
<g>
	<g>
		<g>
			<path class="st0" d="M3.8,7C3.9,7,4,7,4.1,7l0-0.5c0-0.2,0-0.4,0.2-0.5c0.1-0.1,0.3-0.2,0.5-0.2h2.1c0.4,0,0.7,0.3,0.7,0.6l0,0.2
				c0,0.3-0.1,0.6-0.2,0.9L6.9,8.2c0,0.1-0.1,0.1-0.2,0.1c-0.1,0-0.1-0.1-0.1-0.2L7,7.4c0.1-0.2,0.2-0.5,0.2-0.7l0-0.2
				c0-0.2-0.2-0.3-0.4-0.3H4.7c-0.1,0-0.2,0-0.2,0.1C4.4,6.3,4.4,6.4,4.4,6.5l0,0.6c0.4,0.1,0.8,0.2,1.2,0.4c0.4,0.2,0.8,0.5,1,0.9
				c0,0,0,0,0,0c0.4,0.5,0.7,1.1,0.8,1.8c0,0.1,0,0.2-0.1,0.2c0,0,0,0,0,0c-0.1,0-0.1-0.1-0.2-0.1C7,9.6,6.8,9.1,6.4,8.6
				c0,0,0,0,0,0C5.9,7.9,5.1,7.5,4.3,7.4c0,0,0,0,0,0c0,0,0,0,0,0c-0.2,0-0.3,0-0.5,0C3,7.3,2.2,7.7,1.7,8.2
				c-0.5,0.6-0.8,1.4-0.8,2.2c0,0,0,0.1,0,0.1h3.9c0,0,0,0,0,0h2.5c0,0,0,0,0,0h0h2.4c0.4,0,0.9-0.1,1.2-0.3c0,0,0-0.1,0-0.1
				c-0.1-1,0.5-1.8,1.3-2.2c0-0.6-0.2-1.1-0.5-1.6l-1-1.5c0,0,0,0,0,0l0,0c-0.1-0.1-0.1-0.2,0-0.3c0.1-0.1,0.2-0.2,0.3-0.2h0.3
				l0-0.7c0,0,0,0,0,0c-0.3,0-1.2,0-1.5,0.4C9.6,4,9.5,4,9.5,4L8.7,4.3c0,0,0,0,0,0c0,0,0,0,0,0l0.1,0.2c0,0,0,0,0,0l0.4-0.1
				c0.1,0,0.2,0,0.2,0.1c0,0.1,0,0.2-0.1,0.2L8.9,4.8c-0.2,0.1-0.4,0-0.4-0.2L8.4,4.4c0-0.1,0-0.2,0-0.3C8.5,4.1,8.5,4,8.6,4
				l0.8-0.2c0,0,0,0,0,0c0.4-0.4,1.3-0.5,1.8-0.5c0.2,0,0.3,0.1,0.3,0.3l0,0.7c0,0.1,0,0.2-0.1,0.2c-0.1,0.1-0.1,0.1-0.2,0.1h-0.3
				l0,0l1,1.5c0.4,0.6,0.6,1.2,0.6,1.9c0,0,0,0,0,0c0,0,0,0,0,0c0,0,0,0,0,0c0,0,0,0,0,0c0,0,0,0,0,0c0,0,0,0,0,0c0,0,0,0,0,0
				c0,0,0,0,0,0c0,0,0,0,0,0c0,0,0,0,0,0c0,0,0,0,0,0c0,0,0,0,0,0c0,0,0,0,0,0c0,0,0,0,0,0c0,0,0,0,0,0c0,0,0,0,0,0c0,0,0,0,0,0
				c0,0,0,0,0,0c0,0,0,0,0,0c0,0,0,0,0,0c0,0,0,0,0,0c0,0,0,0,0,0c0,0,0,0,0,0c0,0,0,0,0,0c0,0,0,0,0,0c0,0,0,0,0,0
				c-0.8,0.3-1.3,1-1.2,1.9c0,0,0,0,0,0h0.2c0.2,0,0.5-0.1,0.8-0.5C12.9,9,13.9,9,14.8,9c-0.4-0.5-1-0.8-1.7-0.8c-0.1,0-0.1,0-0.2,0
				c-0.1,0-0.2-0.1-0.2-0.1c0-0.1,0.1-0.2,0.1-0.2c0.1,0,0.2,0,0.3,0c0.9,0,1.7,0.5,2.1,1.2c0,0,0,0.1,0,0.2c0,0-0.1,0.1-0.1,0.1
				c0,0-0.1,0-0.1,0c-0.1,0-0.2,0-0.3,0c0.4,0.4,0.7,0.9,0.8,1.5c0,0.5-0.1,1-0.5,1.4c-0.4,0.4-0.8,0.6-1.4,0.6
				c-0.5,0-1-0.2-1.4-0.6c-0.4-0.4-0.6-0.9-0.7-1.4c0-0.1,0.1-0.2,0.1-0.2c0.1,0,0.2,0.1,0.2,0.1c0.1,0.9,0.9,1.7,1.8,1.7
				c0.4,0,0.9-0.2,1.1-0.5c0.3-0.3,0.4-0.7,0.4-1.2c0-0.6-0.4-1.2-1-1.5c-0.6,0-1.2,0.2-1.6,0.6c-0.4,0.4-0.8,0.5-1,0.6c0,0,0,0,0,0
				h-0.3c-0.4,0.3-1,0.4-1.5,0.4H7.3h0c0,0,0,0,0,0H5c0,0.5-0.2,1-0.5,1.3c-0.4,0.4-0.8,0.6-1.4,0.6c-0.5,0-0.9-0.2-1.3-0.4
				c-0.4-0.3-0.6-0.7-0.8-1.1c0-0.1,0-0.2,0.1-0.2c0.1,0,0.2,0,0.2,0.1c0.2,0.8,1,1.3,1.7,1.3c0.4,0,0.9-0.2,1.1-0.5
				c0.3-0.3,0.4-0.7,0.4-1.1H0.8c-0.1,0-0.1-0.1-0.2-0.1c0-0.1,0-0.2,0-0.2C0.5,9.5,0.8,8.7,1.4,8C2,7.4,2.9,7,3.8,7z"/>
			<path class="st0" d="M3.1,13.1c-0.5,0-1.1-0.2-1.5-0.5c-0.4-0.3-0.7-0.8-0.9-1.3c0,0,0-0.1,0-0.1c-0.2,0-0.4-0.2-0.4-0.4
				c0-0.1,0-0.2,0-0.3c-0.1-1,0.3-2,0.9-2.7c0.7-0.7,1.6-1.1,2.5-1.1l0-0.1C3.7,6.3,3.8,6,4,5.8c0.2-0.2,0.4-0.3,0.7-0.3h2.1
				c0.5,0,1,0.4,1,1l0,0.2c0,0.4-0.1,0.8-0.3,1.1L7.2,8.4c0,0,0,0.1-0.1,0.1C7.5,9,7.7,9.5,7.8,10.1c0,0,0,0,0,0h1.9
				c0.3,0,0.6-0.1,0.9-0.2c0-1,0.5-1.8,1.3-2.3c0-0.4-0.2-0.8-0.4-1.2l-1.1-1.6c-0.1-0.2-0.1-0.4,0-0.6l0,0l0,0
				C10.4,4.1,10.6,4,10.8,4v0c-0.5,0-0.8,0.1-1,0.3c0,0-0.1,0.1-0.1,0.1c0,0,0,0,0,0.1c0,0.1,0,0.3,0,0.4C9.7,4.9,9.6,4.9,9.4,5
				L9,5.1C8.7,5.2,8.3,5,8.2,4.7L8.1,4.6C8,4.4,8,4.2,8.1,4c0.1-0.2,0.2-0.3,0.4-0.4l0.7-0.2c0.5-0.4,1.3-0.5,1.9-0.5
				c0.4,0,0.7,0.3,0.7,0.7l0,0.7c0,0.2-0.1,0.3-0.2,0.5c0,0-0.1,0.1-0.1,0.1L12.3,6c0.3,0.5,0.5,0.9,0.6,1.5c1-0.1,2.1,0.5,2.6,1.4
				c0.1,0.2,0.1,0.3,0,0.5c0,0.1-0.1,0.1-0.2,0.2c0.2,0.4,0.4,0.8,0.4,1.2c0,0.6-0.2,1.2-0.6,1.7c-0.8,0.9-2.4,0.9-3.3,0
				c-0.4-0.4-0.7-1-0.8-1.5c-0.4,0.2-0.9,0.3-1.4,0.3H5.3c-0.1,0.5-0.3,0.9-0.6,1.2C4.3,12.9,3.7,13.1,3.1,13.1z M1.7,11.2
				c0.2,0.5,0.8,0.9,1.4,0.9c0.3,0,0.7-0.1,0.9-0.4c0.1-0.2,0.2-0.3,0.3-0.5H1.7z M12.1,10.6c0,0,0,0.1,0,0.1
				c0.1,0.8,0.7,1.4,1.5,1.4c0.3,0,0.7-0.1,0.9-0.4c0.2-0.2,0.3-0.6,0.3-0.9c0-0.5-0.3-0.9-0.7-1.2c-0.6,0.1-1,0.2-1.3,0.5
				C12.5,10.4,12.3,10.5,12.1,10.6z M1.3,10.2h5.5C6.7,9.7,6.5,9.2,6.1,8.8c-0.5-0.6-1.2-1-1.9-1.1C3.3,7.6,2.5,7.9,1.9,8.5
				C1.5,8.9,1.3,9.5,1.3,10.2z M12.5,8.6c-0.3,0.1-0.6,0.4-0.8,0.7c0,0.1-0.1,0.2-0.1,0.2c0,0,0,0.2-0.1,0.2c0.1,0,0.3-0.1,0.4-0.3
				c0.5-0.5,1.2-0.7,1.8-0.8c0,0-0.1-0.1-0.1-0.1c-0.1,0-0.1,0-0.2-0.1c-0.1,0-0.2,0-0.3-0.1C13,8.4,12.7,8.5,12.5,8.6z M4.7,6.8
				c0.4,0.1,0.7,0.2,1,0.4C6,7.4,6.2,7.5,6.4,7.7l0.3-0.5c0.1-0.2,0.1-0.3,0.1-0.5l0-0.2l-2.1,0L4.7,6.8z"/>
		</g>
	</g>
</g>
</svg>
