<svg width="32" height="16" viewBox="0 0 32 16" fill="none" xmlns="http://www.w3.org/2000/svg">
<path d="M9.83848 12.2724H9.07432C8.86236 12.2724 8.68945 12.1043 8.68945 11.8982C8.68945 11.6922 8.86236 11.524 9.07432 11.524H9.83848C10.0504 11.524 10.2233 11.6922 10.2233 11.8982C10.2233 12.1043 10.0504 12.2724 9.83848 12.2724Z" fill="#263238"/>
<path d="M7.68578 12.2724H6.75987C6.54791 12.2724 6.375 12.1043 6.375 11.8982C6.375 11.6922 6.54791 11.524 6.75987 11.524H7.68578C7.89774 11.524 8.07065 11.6922 8.07065 11.8982C8.07065 12.1043 7.89774 12.2724 7.68578 12.2724Z" fill="#263238"/>
<path d="M5.36554 12.2724H4.5958C4.38385 12.2724 4.21094 12.1043 4.21094 11.8982C4.21094 11.6922 4.38385 11.524 4.5958 11.524H5.35996C5.57192 11.524 5.74483 11.6922 5.74483 11.8982C5.74483 12.1043 5.57192 12.2724 5.35996 12.2724H5.36554Z" fill="#263238"/>
<path d="M5.62754 5.53375H4.86338C4.65143 5.53375 4.47852 5.36564 4.47852 5.15958C4.47852 4.95351 4.65143 4.7854 4.86338 4.7854H5.62754C5.8395 4.7854 6.01241 4.95351 6.01241 5.15958C6.01241 5.36564 5.8395 5.53375 5.62754 5.53375Z" fill="#263238"/>
<path d="M3.4768 5.53375H2.55088C2.33893 5.53375 2.16602 5.36564 2.16602 5.15958C2.16602 4.95351 2.33893 4.7854 2.55088 4.7854H3.4768C3.68875 4.7854 3.86166 4.95351 3.86166 5.15958C3.86166 5.36564 3.68875 5.53375 3.4768 5.53375Z" fill="#263238"/>
<path d="M1.1546 5.53388H0.384867C0.172911 5.53388 0 5.36577 0 5.1597C0 4.95363 0.172911 4.78552 0.384867 4.78552H1.14902C1.36098 4.78552 1.53389 4.95363 1.53389 5.1597C1.53389 5.36577 1.36098 5.53388 1.14902 5.53388H1.1546Z" fill="#263238"/>
<path d="M7.31309 8.90497H6.54893C6.33697 8.90497 6.16406 8.73686 6.16406 8.53079C6.16406 8.32472 6.33697 8.15662 6.54893 8.15662H7.31309C7.52504 8.15662 7.69795 8.32472 7.69795 8.53079C7.69795 8.73686 7.52504 8.90497 7.31309 8.90497Z" fill="#263238"/>
<path d="M5.16234 8.90497H4.23643C4.02447 8.90497 3.85156 8.73686 3.85156 8.53079C3.85156 8.32472 4.02447 8.15662 4.23643 8.15662H5.16234C5.3743 8.15662 5.54721 8.32472 5.54721 8.53079C5.54721 8.73686 5.3743 8.90497 5.16234 8.90497Z" fill="#263238"/>
<path d="M2.84015 8.90497H2.07041C1.85846 8.90497 1.68555 8.73686 1.68555 8.53079C1.68555 8.32472 1.85846 8.15662 2.07041 8.15662H2.83457C3.04653 8.15662 3.21944 8.32472 3.21944 8.53079C3.21944 8.73686 3.04653 8.90497 2.83457 8.90497H2.84015Z" fill="#263238"/>
<g clip-path="url(#clip0_2_2538)">
<path d="M28.6762 15.7357C26.8475 15.7357 25.3574 14.1829 25.3574 12.2772C25.3574 10.3714 26.8475 8.8186 28.6762 8.8186C30.5049 8.8186 31.995 10.3714 31.995 12.2772C31.995 14.1829 30.5049 15.7357 28.6762 15.7357ZM28.6762 9.42297C27.165 9.42297 25.9374 10.7023 25.9374 12.2772C25.9374 13.852 27.165 15.1313 28.6762 15.1313C30.1874 15.1313 31.415 13.852 31.415 12.2772C31.415 10.7023 30.1874 9.42297 28.6762 9.42297Z" fill="#263238"/>
<path d="M14.6645 15.7357C12.8358 15.7357 11.3457 14.1829 11.3457 12.2772C11.3457 10.3714 12.8358 8.8186 14.6645 8.8186C16.4932 8.8186 17.9833 10.3714 17.9833 12.2772C17.9833 14.1829 16.4932 15.7357 14.6645 15.7357ZM14.6645 9.42297C13.1533 9.42297 11.9256 10.7023 11.9256 12.2772C11.9256 13.852 13.1533 15.1313 14.6645 15.1313C16.1757 15.1313 17.4033 13.852 17.4033 12.2772C17.4033 10.7023 16.1757 9.42297 14.6645 9.42297Z" fill="#263238"/>
<path d="M25.7246 4.63663C24.6494 4.63663 23.7773 3.72788 23.7773 2.60738C23.7773 1.48688 24.6494 0.578125 25.7246 0.578125C25.8854 0.578125 26.0167 0.714879 26.0167 0.882513V4.33665C26.0167 4.50429 25.8854 4.64104 25.7246 4.64104V4.63663ZM25.4325 1.21337C24.8187 1.35453 24.3573 1.92361 24.3573 2.60297C24.3573 3.28233 24.8187 3.85581 25.4325 3.99256V1.21778V1.21337Z" fill="#263238"/>
<path d="M25.7257 4.42493C25.5648 4.42493 25.4336 4.28817 25.4336 4.12054V1.0943C25.4336 0.926671 25.5648 0.789917 25.7257 0.789917C26.6866 0.789917 27.4697 1.60603 27.4697 2.60742C27.4697 3.60881 26.6866 4.42493 25.7257 4.42493ZM26.0178 1.4384V3.78086C26.5173 3.64411 26.8898 3.17208 26.8898 2.60742C26.8898 2.04276 26.5173 1.57074 26.0178 1.43398V1.4384Z" fill="#263238"/>
<path d="M28.6762 15.7357C26.8475 15.7357 25.3574 14.1829 25.3574 12.2772C25.3574 10.3714 26.8475 8.8186 28.6762 8.8186C30.5049 8.8186 31.995 10.3714 31.995 12.2772C31.995 14.1829 30.5049 15.7357 28.6762 15.7357ZM28.6762 9.42297C27.165 9.42297 25.9374 10.7023 25.9374 12.2772C25.9374 13.852 27.165 15.1313 28.6762 15.1313C30.1874 15.1313 31.415 13.852 31.415 12.2772C31.415 10.7023 30.1874 9.42297 28.6762 9.42297Z" fill="#263238"/>
<path d="M28.675 13.9756C27.7733 13.9756 27.041 13.2124 27.041 12.2728C27.041 11.3331 27.7733 10.5699 28.675 10.5699C29.5767 10.5699 30.309 11.3331 30.309 12.2728C30.309 13.2124 29.5767 13.9756 28.675 13.9756ZM28.675 11.1743C28.0951 11.1743 27.621 11.6684 27.621 12.2728C27.621 12.8771 28.0951 13.3712 28.675 13.3712C29.2549 13.3712 29.7291 12.8771 29.7291 12.2728C29.7291 11.6684 29.2549 11.1743 28.675 11.1743Z" fill="#263238"/>
<path d="M28.675 13.9756C27.7733 13.9756 27.041 13.2124 27.041 12.2728C27.041 11.3331 27.7733 10.5699 28.675 10.5699C29.5767 10.5699 30.309 11.3331 30.309 12.2728C30.309 13.2124 29.5767 13.9756 28.675 13.9756ZM28.675 11.1743C28.0951 11.1743 27.621 11.6684 27.621 12.2728C27.621 12.8771 28.0951 13.3712 28.675 13.3712C29.2549 13.3712 29.7291 12.8771 29.7291 12.2728C29.7291 11.6684 29.2549 11.1743 28.675 11.1743Z" fill="#263238"/>
<path d="M14.6926 13.9756C13.7909 13.9756 13.0586 13.2124 13.0586 12.2728C13.0586 11.3331 13.7909 10.5699 14.6926 10.5699C15.5942 10.5699 16.3266 11.3331 16.3266 12.2728C16.3266 13.2124 15.5942 13.9756 14.6926 13.9756ZM14.6926 11.1743C14.1126 11.1743 13.6385 11.6684 13.6385 12.2728C13.6385 12.8771 14.1126 13.3712 14.6926 13.3712C15.2725 13.3712 15.7466 12.8771 15.7466 12.2728C15.7466 11.6684 15.2725 11.1743 14.6926 11.1743Z" fill="#263238"/>
<path d="M14.6645 15.7357C12.8358 15.7357 11.3457 14.1829 11.3457 12.2772C11.3457 10.3714 12.8358 8.8186 14.6645 8.8186C16.4932 8.8186 17.9833 10.3714 17.9833 12.2772C17.9833 14.1829 16.4932 15.7357 14.6645 15.7357ZM14.6645 9.42297C13.1533 9.42297 11.9256 10.7023 11.9256 12.2772C11.9256 13.852 13.1533 15.1313 14.6645 15.1313C16.1757 15.1313 17.4033 13.852 17.4033 12.2772C17.4033 10.7023 16.1757 9.42297 14.6645 9.42297Z" fill="#263238"/>
<path d="M25.6491 12.6831H17.6908C17.6104 12.6831 17.5384 12.6478 17.4834 12.5905C17.4283 12.5331 17.3987 12.4537 17.4029 12.3699V12.2729C17.4029 10.698 16.1753 9.41867 14.6683 9.41867C13.7074 9.41867 12.8058 9.95686 12.3105 10.8171C12.2512 10.923 12.1369 10.9803 12.0226 10.9627C11.9083 10.9494 11.811 10.8612 11.7813 10.7465L11.5147 9.79364C11.5062 9.76717 11.502 9.73629 11.502 9.70982V6.41008C11.502 6.24244 11.6332 6.10569 11.794 6.10569H19.1555C19.3163 6.10569 19.4475 6.24244 19.4475 6.41008V9.5069C19.4475 10.0539 19.8751 10.4995 20.4 10.4995H23.8415C24.1125 10.4995 24.3664 10.3848 24.5485 10.173C24.7305 9.96127 24.8152 9.69217 24.7898 9.40984L24.2437 3.83381C24.231 3.70588 24.2987 3.58236 24.4088 3.52942C24.5231 3.47648 24.6543 3.50295 24.739 3.59559C25.0014 3.87792 25.3485 4.03673 25.7253 4.03673H25.8226C26.6312 4.03673 27.3593 4.50435 27.7233 5.25429L29.5647 9.05252C29.6155 9.15839 29.6028 9.28191 29.5351 9.37455C29.4674 9.46719 29.3531 9.51131 29.243 9.48484C29.0568 9.44514 28.862 9.42308 28.6715 9.42308C27.1603 9.42308 25.9327 10.7024 25.9327 12.2773V12.3523C25.9369 12.4361 25.9073 12.5243 25.8523 12.5861C25.7972 12.6478 25.721 12.6919 25.6448 12.6919L25.6491 12.6831ZM17.9744 12.0788H25.3612C25.4628 10.2171 26.991 8.75254 28.8028 8.81871L27.2069 5.52338C26.9402 4.97637 26.411 4.63669 25.8226 4.63669H25.7253C25.429 4.63669 25.1453 4.57052 24.8829 4.43817L25.3612 9.34808C25.4036 9.79805 25.2639 10.2436 24.9718 10.5789C24.6839 10.9141 24.2691 11.1038 23.8331 11.1038H20.3915C19.5449 11.1038 18.8591 10.3892 18.8591 9.5069V6.71005H12.0777V9.66129L12.1708 9.98333C12.7973 9.24662 13.7074 8.80548 14.6641 8.80548C16.4336 8.80548 17.8813 10.2524 17.9786 12.0699L17.9744 12.0788Z" fill="#263238"/>
<path d="M20.3067 6.71435H16.0227C15.5655 6.71435 15.1973 6.32615 15.1973 5.85412C15.1973 5.3821 15.5698 4.9939 16.0227 4.9939H20.3067C20.7638 4.9939 21.1321 5.3821 21.1321 5.85412C21.1321 6.32615 20.7596 6.71435 20.3067 6.71435ZM16.0227 5.59826C15.8873 5.59826 15.7772 5.71296 15.7772 5.85412C15.7772 5.99529 15.8873 6.10999 16.0227 6.10999H20.3067C20.4421 6.10999 20.5522 5.99529 20.5522 5.85412C20.5522 5.71296 20.4421 5.59826 20.3067 5.59826H16.0227Z" fill="#263238"/>
<path d="M22.5579 3.45435C22.4563 3.45435 22.3547 3.397 22.304 3.29553C22.2278 3.14996 22.2828 2.96468 22.4225 2.88527L23.9633 2.02063C24.103 1.94123 24.2808 1.99417 24.357 2.14415C24.4332 2.28973 24.3782 2.47501 24.2385 2.55442L22.6976 3.41905C22.6553 3.44552 22.6087 3.45435 22.5622 3.45435H22.5579Z" fill="#263238"/>
<path d="M26.8587 8.86279C26.7402 8.86279 26.6344 8.78779 26.5878 8.66868L25.7877 6.52032C25.7285 6.36592 25.8047 6.18947 25.9528 6.12771C26.101 6.06595 26.2703 6.14535 26.3296 6.29975L27.1296 8.44811C27.1889 8.60251 27.1127 8.77897 26.9646 8.84073C26.9307 8.85396 26.8926 8.86279 26.8587 8.86279Z" fill="#263238"/>
<path d="M19.1552 8.09962H15.6163C15.4554 8.09962 15.3242 7.96287 15.3242 7.79523C15.3242 7.6276 15.4554 7.49084 15.6163 7.49084H19.1552C19.3161 7.49084 19.4473 7.6276 19.4473 7.79523C19.4473 7.96287 19.3161 8.09962 19.1552 8.09962Z" fill="#263238"/>
<path d="M14.1307 6.71437H9.89755C9.7367 6.71437 9.60547 6.57761 9.60547 6.40998C9.60547 6.24235 9.7367 6.10559 9.89755 6.10559H14.1307C14.2915 6.10559 14.4228 6.24235 14.4228 6.40998C14.4228 6.57761 14.2915 6.71437 14.1307 6.71437Z" fill="#263238"/>
<path d="M14.541 6.71435H8.71201C8.55115 6.71435 8.41992 6.57759 8.41992 6.40996V5.42621C8.41992 5.25858 8.55115 5.12183 8.71201 5.12183H14.541C14.7019 5.12183 14.8331 5.25858 14.8331 5.42621V6.40996C14.8331 6.57759 14.7019 6.71435 14.541 6.71435ZM8.99986 6.10998H14.2532V5.7306H8.99986V6.10998Z" fill="#263238"/>
<path d="M14.8086 5.73071H8.97959C8.81873 5.73071 8.6875 5.59395 8.6875 5.42632V4.44257C8.6875 4.27494 8.81873 4.13818 8.97959 4.13818H14.8086C14.9695 4.13818 15.1007 4.27494 15.1007 4.44257V5.42632C15.1007 5.59395 14.9695 5.73071 14.8086 5.73071ZM9.26744 5.12634H14.5208V4.74696H9.26744V5.12634Z" fill="#263238"/>
<path d="M14.541 4.74694H8.71201C8.55115 4.74694 8.41992 4.61019 8.41992 4.44255V3.45881C8.41992 3.29117 8.55115 3.15442 8.71201 3.15442H14.541C14.7019 3.15442 14.8331 3.29117 14.8331 3.45881V4.44255C14.8331 4.61019 14.7019 4.74694 14.541 4.74694ZM8.99986 4.14258H14.2532V3.76319H8.99986V4.14258Z" fill="#263238"/>
<path d="M14.8086 3.76318H8.97959C8.81873 3.76318 8.6875 3.62642 8.6875 3.45879V2.47504C8.6875 2.30741 8.81873 2.17065 8.97959 2.17065H14.8086C14.9695 2.17065 15.1007 2.30741 15.1007 2.47504V3.45879C15.1007 3.62642 14.9695 3.76318 14.8086 3.76318ZM9.26744 3.15881H14.5208V2.77943H9.26744V3.15881Z" fill="#263238"/>
<path d="M14.541 2.77939H8.71201C8.55115 2.77939 8.41992 2.64264 8.41992 2.47501V1.49567C8.41992 1.32804 8.55115 1.19128 8.71201 1.19128H14.541C14.7019 1.19128 14.8331 1.32804 14.8331 1.49567V2.47942C14.8331 2.64705 14.7019 2.78381 14.541 2.78381V2.77939ZM8.99986 2.17503H14.2532V1.79565H8.99986V2.17503Z" fill="#263238"/>
<path d="M31.4067 15.7357H8.97959C8.81873 15.7357 8.6875 15.599 8.6875 15.4313C8.6875 15.2637 8.81873 15.127 8.97959 15.127H31.4067C31.5676 15.127 31.6988 15.2637 31.6988 15.4313C31.6988 15.599 31.5676 15.7357 31.4067 15.7357Z" fill="#263238"/>
</g>
<defs>
<clipPath id="clip0_2_2538">
<rect width="23.5785" height="15.1576" fill="white" transform="translate(8.41992 0.578125)"/>
</clipPath>
</defs>
</svg>
