<svg width="32" height="16" viewBox="0 0 32 16" fill="none" xmlns="http://www.w3.org/2000/svg">
<path d="M9.83848 12.2718H9.07432C8.86236 12.2718 8.68945 12.1037 8.68945 11.8976C8.68945 11.6915 8.86236 11.5234 9.07432 11.5234H9.83848C10.0504 11.5234 10.2233 11.6915 10.2233 11.8976C10.2233 12.1037 10.0504 12.2718 9.83848 12.2718Z" fill="#263238"/>
<path d="M7.68578 12.2718H6.75987C6.54791 12.2718 6.375 12.1037 6.375 11.8976C6.375 11.6915 6.54791 11.5234 6.75987 11.5234H7.68578C7.89774 11.5234 8.07065 11.6915 8.07065 11.8976C8.07065 12.1037 7.89774 12.2718 7.68578 12.2718Z" fill="#263238"/>
<path d="M5.36456 12.2718H4.59483C4.38287 12.2718 4.20996 12.1037 4.20996 11.8976C4.20996 11.6915 4.38287 11.5234 4.59483 11.5234H5.35899C5.57094 11.5234 5.74385 11.6915 5.74385 11.8976C5.74385 12.1037 5.57094 12.2718 5.35899 12.2718H5.36456Z" fill="#263238"/>
<path d="M5.62852 5.53351H4.86436C4.6524 5.53351 4.47949 5.3654 4.47949 5.15933C4.47949 4.95326 4.6524 4.78516 4.86436 4.78516H5.62852C5.84047 4.78516 6.01338 4.95326 6.01338 5.15933C6.01338 5.3654 5.84047 5.53351 5.62852 5.53351Z" fill="#263238"/>
<path d="M3.47582 5.53351H2.54991C2.33795 5.53351 2.16504 5.3654 2.16504 5.15933C2.16504 4.95326 2.33795 4.78516 2.54991 4.78516H3.47582C3.68778 4.78516 3.86069 4.95326 3.86069 5.15933C3.86069 5.3654 3.68778 5.53351 3.47582 5.53351Z" fill="#263238"/>
<path d="M1.1546 5.53351H0.384867C0.172911 5.53351 0 5.3654 0 5.15933C0 4.95326 0.172911 4.78516 0.384867 4.78516H1.14902C1.36098 4.78516 1.53389 4.95326 1.53389 5.15933C1.53389 5.3654 1.36098 5.53351 1.14902 5.53351H1.1546Z" fill="#263238"/>
<path d="M7.31309 8.9046H6.54893C6.33697 8.9046 6.16406 8.73649 6.16406 8.53043C6.16406 8.32436 6.33697 8.15625 6.54893 8.15625H7.31309C7.52504 8.15625 7.69795 8.32436 7.69795 8.53043C7.69795 8.73649 7.52504 8.9046 7.31309 8.9046Z" fill="#263238"/>
<path d="M5.16039 8.9046H4.23448C4.02252 8.9046 3.84961 8.73649 3.84961 8.53043C3.84961 8.32436 4.02252 8.15625 4.23448 8.15625H5.16039C5.37235 8.15625 5.54526 8.32436 5.54526 8.53043C5.54526 8.73649 5.37235 8.9046 5.16039 8.9046Z" fill="#263238"/>
<path d="M2.83917 8.9046H2.06944C1.85748 8.9046 1.68457 8.73649 1.68457 8.53043C1.68457 8.32436 1.85748 8.15625 2.06944 8.15625H2.83359C3.04555 8.15625 3.21846 8.32436 3.21846 8.53043C3.21846 8.73649 3.04555 8.9046 2.83359 8.9046H2.83917Z" fill="#263238"/>
<g clip-path="url(#clip0_2470_17)">
<path d="M28.6752 15.7355C26.8465 15.7355 25.3564 14.1826 25.3564 12.2769C25.3564 10.3712 26.8465 8.81836 28.6752 8.81836C30.5039 8.81836 31.994 10.3712 31.994 12.2769C31.994 14.1826 30.5039 15.7355 28.6752 15.7355ZM28.6752 9.42272C27.164 9.42272 25.9364 10.702 25.9364 12.2769C25.9364 13.8518 27.164 15.1311 28.6752 15.1311C30.1864 15.1311 31.4141 13.8518 31.4141 12.2769C31.4141 10.702 30.1864 9.42272 28.6752 9.42272Z" fill="#263238"/>
<path d="M14.6635 15.7355C12.8348 15.7355 11.3447 14.1826 11.3447 12.2769C11.3447 10.3712 12.8348 8.81836 14.6635 8.81836C16.4922 8.81836 17.9823 10.3712 17.9823 12.2769C17.9823 14.1826 16.4922 15.7355 14.6635 15.7355ZM14.6635 9.42272C13.1523 9.42272 11.9247 10.702 11.9247 12.2769C11.9247 13.8518 13.1523 15.1311 14.6635 15.1311C16.1747 15.1311 17.4023 13.8518 17.4023 12.2769C17.4023 10.702 16.1747 9.42272 14.6635 9.42272Z" fill="#263238"/>
<path d="M25.7246 4.63663C24.6494 4.63663 23.7773 3.72788 23.7773 2.60738C23.7773 1.48688 24.6494 0.578125 25.7246 0.578125C25.8854 0.578125 26.0167 0.714879 26.0167 0.882513V4.33665C26.0167 4.50429 25.8854 4.64104 25.7246 4.64104V4.63663ZM25.4325 1.21337C24.8187 1.35453 24.3573 1.92361 24.3573 2.60297C24.3573 3.28233 24.8187 3.85581 25.4325 3.99256V1.21778V1.21337Z" fill="#263238"/>
<path d="M25.7247 4.42407C25.5638 4.42407 25.4326 4.28732 25.4326 4.11968V1.09345C25.4326 0.925816 25.5638 0.789062 25.7247 0.789062C26.6856 0.789062 27.4688 1.60518 27.4688 2.60657C27.4688 3.60796 26.6856 4.42407 25.7247 4.42407ZM26.0168 1.43754V3.78C26.5163 3.64325 26.8888 3.17123 26.8888 2.60657C26.8888 2.04191 26.5163 1.56988 26.0168 1.43313V1.43754Z" fill="#263238"/>
<path d="M28.6752 15.7355C26.8465 15.7355 25.3564 14.1826 25.3564 12.2769C25.3564 10.3712 26.8465 8.81836 28.6752 8.81836C30.5039 8.81836 31.994 10.3712 31.994 12.2769C31.994 14.1826 30.5039 15.7355 28.6752 15.7355ZM28.6752 9.42272C27.164 9.42272 25.9364 10.702 25.9364 12.2769C25.9364 13.8518 27.164 15.1311 28.6752 15.1311C30.1864 15.1311 31.4141 13.8518 31.4141 12.2769C31.4141 10.702 30.1864 9.42272 28.6752 9.42272Z" fill="#263238"/>
<path d="M28.675 13.9759C27.7733 13.9759 27.041 13.2128 27.041 12.2731C27.041 11.3335 27.7733 10.5703 28.675 10.5703C29.5767 10.5703 30.309 11.3335 30.309 12.2731C30.309 13.2128 29.5767 13.9759 28.675 13.9759ZM28.675 11.1747C28.0951 11.1747 27.621 11.6688 27.621 12.2731C27.621 12.8775 28.0951 13.3716 28.675 13.3716C29.2549 13.3716 29.7291 12.8775 29.7291 12.2731C29.7291 11.6688 29.2549 11.1747 28.675 11.1747Z" fill="#263238"/>
<path d="M28.675 13.9759C27.7733 13.9759 27.041 13.2128 27.041 12.2731C27.041 11.3335 27.7733 10.5703 28.675 10.5703C29.5767 10.5703 30.309 11.3335 30.309 12.2731C30.309 13.2128 29.5767 13.9759 28.675 13.9759ZM28.675 11.1747C28.0951 11.1747 27.621 11.6688 27.621 12.2731C27.621 12.8775 28.0951 13.3716 28.675 13.3716C29.2549 13.3716 29.7291 12.8775 29.7291 12.2731C29.7291 11.6688 29.2549 11.1747 28.675 11.1747Z" fill="#263238"/>
<path d="M14.6936 13.9759C13.7919 13.9759 13.0596 13.2128 13.0596 12.2731C13.0596 11.3335 13.7919 10.5703 14.6936 10.5703C15.5952 10.5703 16.3275 11.3335 16.3275 12.2731C16.3275 13.2128 15.5952 13.9759 14.6936 13.9759ZM14.6936 11.1747C14.1136 11.1747 13.6395 11.6688 13.6395 12.2731C13.6395 12.8775 14.1136 13.3716 14.6936 13.3716C15.2735 13.3716 15.7476 12.8775 15.7476 12.2731C15.7476 11.6688 15.2735 11.1747 14.6936 11.1747Z" fill="#263238"/>
<path d="M14.6635 15.7355C12.8348 15.7355 11.3447 14.1826 11.3447 12.2769C11.3447 10.3712 12.8348 8.81836 14.6635 8.81836C16.4922 8.81836 17.9823 10.3712 17.9823 12.2769C17.9823 14.1826 16.4922 15.7355 14.6635 15.7355ZM14.6635 9.42272C13.1523 9.42272 11.9247 10.702 11.9247 12.2769C11.9247 13.8518 13.1523 15.1311 14.6635 15.1311C16.1747 15.1311 17.4023 13.8518 17.4023 12.2769C17.4023 10.702 16.1747 9.42272 14.6635 9.42272Z" fill="#263238"/>
<path d="M25.6491 12.6826H17.6908C17.6104 12.6826 17.5384 12.6473 17.4834 12.59C17.4283 12.5326 17.3987 12.4532 17.4029 12.3694V12.2724C17.4029 10.6975 16.1753 9.41818 14.6683 9.41818C13.7074 9.41818 12.8058 9.95637 12.3105 10.8166C12.2512 10.9225 12.1369 10.9798 12.0226 10.9622C11.9083 10.9489 11.811 10.8607 11.7813 10.746L11.5147 9.79315C11.5062 9.76668 11.502 9.7358 11.502 9.70933V6.40959C11.502 6.24196 11.6332 6.1052 11.794 6.1052H19.1555C19.3163 6.1052 19.4475 6.24196 19.4475 6.40959V9.50641C19.4475 10.0534 19.8751 10.499 20.4 10.499H23.8415C24.1125 10.499 24.3664 10.3843 24.5485 10.1725C24.7305 9.96078 24.8152 9.69169 24.7898 9.40936L24.2437 3.83332C24.231 3.70539 24.2987 3.58187 24.4088 3.52893C24.5231 3.476 24.6543 3.50246 24.739 3.5951C25.0014 3.87744 25.3485 4.03625 25.7253 4.03625H25.8226C26.6312 4.03625 27.3593 4.50386 27.7233 5.2538L29.5647 9.05203C29.6155 9.1579 29.6028 9.28142 29.5351 9.37406C29.4674 9.4667 29.3531 9.51082 29.243 9.48435C29.0568 9.44465 28.862 9.42259 28.6715 9.42259C27.1603 9.42259 25.9327 10.7019 25.9327 12.2768V12.3518C25.9369 12.4356 25.9073 12.5238 25.8523 12.5856C25.7972 12.6473 25.721 12.6915 25.6448 12.6915L25.6491 12.6826ZM17.9744 12.0783H25.3612C25.4628 10.2166 26.991 8.75205 28.8028 8.81823L27.2069 5.52289C26.9402 4.97588 26.411 4.6362 25.8226 4.6362H25.7253C25.429 4.6362 25.1453 4.57003 24.8829 4.43769L25.3612 9.3476C25.4036 9.79756 25.2639 10.2431 24.9718 10.5784C24.6839 10.9136 24.2691 11.1033 23.8331 11.1033H20.3915C19.5449 11.1033 18.8591 10.3887 18.8591 9.50641V6.70957H12.0777V9.66081L12.1708 9.98284C12.7973 9.24613 13.7074 8.80499 14.6641 8.80499C16.4336 8.80499 17.8813 10.2519 17.9786 12.0694L17.9744 12.0783Z" fill="#263238"/>
<path d="M20.3067 6.71459H16.0227C15.5655 6.71459 15.1973 6.32639 15.1973 5.85437C15.1973 5.38235 15.5698 4.99414 16.0227 4.99414H20.3067C20.7638 4.99414 21.1321 5.38235 21.1321 5.85437C21.1321 6.32639 20.7596 6.71459 20.3067 6.71459ZM16.0227 5.59851C15.8873 5.59851 15.7772 5.7132 15.7772 5.85437C15.7772 5.99553 15.8873 6.11023 16.0227 6.11023H20.3067C20.4421 6.11023 20.5522 5.99553 20.5522 5.85437C20.5522 5.7132 20.4421 5.59851 20.3067 5.59851H16.0227Z" fill="#263238"/>
<path d="M22.5589 3.45483C22.4573 3.45483 22.3557 3.39749 22.3049 3.29602C22.2287 3.15045 22.2838 2.96517 22.4235 2.88576L23.9643 2.02112C24.104 1.94172 24.2818 1.99465 24.358 2.14464C24.4342 2.29022 24.3792 2.4755 24.2395 2.5549L22.6986 3.41954C22.6563 3.44601 22.6097 3.45483 22.5631 3.45483H22.5589Z" fill="#263238"/>
<path d="M26.8597 8.86352C26.7412 8.86352 26.6353 8.78852 26.5888 8.66942L25.7887 6.52106C25.7295 6.36666 25.8057 6.1902 25.9538 6.12844C26.102 6.06668 26.2713 6.14608 26.3306 6.30048L27.1306 8.44885C27.1899 8.60325 27.1137 8.7797 26.9655 8.84146C26.9317 8.8547 26.8936 8.86352 26.8597 8.86352Z" fill="#263238"/>
<path d="M19.1552 8.09901H15.6163C15.4554 8.09901 15.3242 7.96226 15.3242 7.79462C15.3242 7.62699 15.4554 7.49023 15.6163 7.49023H19.1552C19.3161 7.49023 19.4473 7.62699 19.4473 7.79462C19.4473 7.96226 19.3161 8.09901 19.1552 8.09901Z" fill="#263238"/>
<path d="M14.1307 6.71424H9.89755C9.7367 6.71424 9.60547 6.57749 9.60547 6.40986C9.60547 6.24222 9.7367 6.10547 9.89755 6.10547H14.1307C14.2915 6.10547 14.4228 6.24222 14.4228 6.40986C14.4228 6.57749 14.2915 6.71424 14.1307 6.71424Z" fill="#263238"/>
<path d="M14.541 6.71362H8.71201C8.55115 6.71362 8.41992 6.57686 8.41992 6.40923V5.42548C8.41992 5.25785 8.55115 5.12109 8.71201 5.12109H14.541C14.7019 5.12109 14.8331 5.25785 14.8331 5.42548V6.40923C14.8331 6.57686 14.7019 6.71362 14.541 6.71362ZM8.99986 6.10925H14.2532V5.72987H8.99986V6.10925Z" fill="#263238"/>
<path d="M14.8076 5.73119H8.97861C8.81775 5.73119 8.68652 5.59444 8.68652 5.42681V4.44306C8.68652 4.27543 8.81775 4.13867 8.97861 4.13867H14.8076C14.9685 4.13867 15.0997 4.27543 15.0997 4.44306V5.42681C15.0997 5.59444 14.9685 5.73119 14.8076 5.73119ZM9.26646 5.12683H14.5198V4.74745H9.26646V5.12683Z" fill="#263238"/>
<path d="M14.541 4.74682H8.71201C8.55115 4.74682 8.41992 4.61007 8.41992 4.44243V3.45868C8.41992 3.29105 8.55115 3.1543 8.71201 3.1543H14.541C14.7019 3.1543 14.8331 3.29105 14.8331 3.45868V4.44243C14.8331 4.61007 14.7019 4.74682 14.541 4.74682ZM8.99986 4.14245H14.2532V3.76307H8.99986V4.14245Z" fill="#263238"/>
<path d="M14.8076 3.76244H8.97861C8.81775 3.76244 8.68652 3.62569 8.68652 3.45806V2.47431C8.68652 2.30668 8.81775 2.16992 8.97861 2.16992H14.8076C14.9685 2.16992 15.0997 2.30668 15.0997 2.47431V3.45806C15.0997 3.62569 14.9685 3.76244 14.8076 3.76244ZM9.26646 3.15808H14.5198V2.7787H9.26646V3.15808Z" fill="#263238"/>
<path d="M14.541 2.77952H8.71201C8.55115 2.77952 8.41992 2.64276 8.41992 2.47513V1.49579C8.41992 1.32816 8.55115 1.19141 8.71201 1.19141H14.541C14.7019 1.19141 14.8331 1.32816 14.8331 1.49579V2.47954C14.8331 2.64717 14.7019 2.78393 14.541 2.78393V2.77952ZM8.99986 2.17515H14.2532V1.79577H8.99986V2.17515Z" fill="#263238"/>
<path d="M31.4057 15.7357H8.97861C8.81775 15.7357 8.68652 15.599 8.68652 15.4313C8.68652 15.2637 8.81775 15.127 8.97861 15.127H31.4057C31.5666 15.127 31.6978 15.2637 31.6978 15.4313C31.6978 15.599 31.5666 15.7357 31.4057 15.7357Z" fill="#263238"/>
</g>
<defs>
<clipPath id="clip0_2470_17">
<rect width="23.5785" height="15.1576" fill="white" transform="translate(8.41992 0.578125)"/>
</clipPath>
</defs>
</svg>
