<svg width="183" height="167" viewBox="0 0 183 167" fill="none" xmlns="http://www.w3.org/2000/svg">
<rect x="0.704793" y="0.0571542" width="3" height="93.1155" transform="matrix(-0.647639 -0.761947 -0.761947 0.647639 143.205 58.4478)" fill="#D9D9D9" stroke="white"/>
<path d="M182.996 79.0776C182.095 70.0237 179.635 61.2959 175.682 53.1369C175.492 52.7449 175.033 52.5675 174.631 52.7316L174.441 52.8092C174.229 52.8952 174.063 53.0657 173.981 53.2803C173.899 53.4943 173.909 53.7333 174.009 53.9394C174.567 55.0877 175.112 56.2933 175.629 57.5212C178.559 64.4751 180.419 71.8098 181.159 79.3214C181.185 79.5816 181.331 79.8143 181.554 79.9492C181.685 80.0278 181.832 80.0681 181.98 80.0681C182.086 80.0681 182.191 80.048 182.292 80.0065L182.487 79.9263C182.825 79.7877 183.032 79.442 182.996 79.0771V79.0776Z" fill="#DADADA"/>
<path d="M62.6244 24.8479C62.7863 25.0306 63.0127 25.1251 63.2413 25.1251C63.4053 25.1251 63.5708 25.0763 63.7142 24.9754C64.8326 24.1888 65.9969 23.4219 67.1761 22.6948C67.384 22.5668 67.5248 22.3522 67.5602 22.1095C67.5956 21.8668 67.5221 21.6208 67.3597 21.4381L67.2248 21.2862C66.9587 20.9862 66.517 20.9219 66.1763 21.1322C64.9817 21.8721 63.7899 22.6571 62.6345 23.4659C62.4414 23.6014 62.315 23.8133 62.2869 24.0486C62.2594 24.2833 62.3329 24.5191 62.4901 24.696L62.6244 24.8479Z" fill="#DADADA"/>
<path d="M53.4732 33.5839C55.4274 31.6246 57.4906 29.7667 59.6051 28.0613C59.7823 27.9184 59.8934 27.7081 59.9108 27.4803C59.9283 27.2524 59.8516 27.0272 59.6987 26.8583L59.5611 26.7064C59.2681 26.383 58.7745 26.3442 58.4343 26.6177C43.0509 39.014 33.0884 56.5854 30.383 76.0964C30.3301 76.4767 30.5448 76.8437 30.9009 76.9823L31.0987 77.0593C31.1955 77.0971 31.2966 77.1156 31.3976 77.1156C31.5431 77.1156 31.6875 77.0769 31.8156 77.0015C32.033 76.8729 32.1801 76.652 32.2144 76.4008C33.1053 69.9206 34.849 63.5685 37.3983 57.5202C41.1782 48.548 46.5864 40.4942 53.4726 33.5839H53.4732Z" fill="#DADADA"/>
<path d="M136.966 159.388C136.882 159.18 136.717 159.015 136.509 158.931C136.301 158.847 136.068 158.852 135.863 158.944L135.803 158.969C135.767 158.985 135.73 159 135.712 159.008C126.465 162.935 116.642 164.925 106.514 164.925C103.328 164.925 100.139 164.726 97.0343 164.332C96.7989 164.303 96.563 164.375 96.3858 164.533C96.208 164.69 96.1064 164.917 96.1064 165.155V165.359C96.1064 165.776 96.4154 166.128 96.828 166.18C100.014 166.584 103.273 166.789 106.514 166.789C116.957 166.789 127.08 164.724 136.601 160.652C137.015 160.475 137.211 159.997 137.043 159.579L136.966 159.388Z" fill="#DADADA"/>
<path d="M106.514 16C87.5981 16 69.8135 23.3958 56.4377 36.8245C43.0619 50.2537 35.6953 68.1082 35.6953 87.0993V89.3523C35.6953 108.343 43.0619 126.198 56.4377 139.627C69.8135 153.056 87.5976 160.452 106.514 160.452C125.431 160.452 143.215 153.056 156.591 139.627C169.967 126.198 177.333 108.344 177.333 89.3523V87.0993C177.333 68.1082 169.967 50.2537 156.591 36.8245C143.215 23.3958 125.431 16 106.514 16ZM175.387 87.0993V89.3523C175.387 98.6877 173.566 107.743 169.975 116.267C166.506 124.5 161.54 131.895 155.215 138.245C148.889 144.596 141.523 149.582 133.323 153.064C124.832 156.67 115.812 158.497 106.514 158.497C97.2163 158.497 88.1965 156.669 79.7062 153.064C71.5053 149.582 64.1397 144.596 57.8137 138.245C51.4882 131.895 46.5223 124.5 43.0535 116.267C39.4625 107.743 37.6416 98.6877 37.6416 89.3523V87.0993C37.6416 77.7639 39.4625 68.7089 43.0535 60.1851C46.5223 51.9512 51.4882 44.5565 57.8137 38.2059C64.1392 31.8554 71.5053 26.8698 79.7062 23.3873C88.1965 19.7821 97.2163 17.954 106.514 17.954C115.812 17.954 124.832 19.7821 133.323 23.3873C141.524 26.8698 148.889 31.8554 155.215 38.2059C161.541 44.5565 166.506 51.9512 169.975 60.1851C173.566 68.7089 175.387 77.7639 175.387 87.0993Z" fill="#DADADA"/>
<circle cx="148" cy="10" r="10" fill="#D9D9D9"/>
<circle cx="18" cy="116" r="18" fill="#D9D9D9"/>
<circle cx="174" cy="147" r="7" fill="#D9D9D9"/>
<path d="M107.027 59C113.399 59 119.51 61.5314 124.016 66.0373C128.522 70.5432 131.054 76.6545 131.054 83.0268C131.054 93.1796 123.919 104.244 109.836 116.339C109.053 117.012 108.055 117.381 107.022 117.38C105.99 117.379 104.992 117.008 104.21 116.334L103.279 115.526C89.8187 103.747 83 92.9529 83 83.0268C83 76.6545 85.5314 70.5432 90.0373 66.0373C94.5432 61.5314 100.654 59 107.027 59ZM107.027 62.6964C101.635 62.6964 96.4637 64.8384 92.6511 68.6511C88.8384 72.4637 86.6964 77.6348 86.6964 83.0268C86.6964 91.6567 92.9754 101.6 105.706 112.739L106.625 113.535C106.737 113.631 106.879 113.684 107.027 113.684C107.174 113.684 107.317 113.631 107.428 113.535C120.775 102.071 127.357 91.8613 127.357 83.0268C127.357 80.357 126.831 77.7133 125.81 75.2467C124.788 72.7801 123.29 70.5389 121.403 68.6511C119.515 66.7632 117.273 65.2657 114.807 64.244C112.34 63.2223 109.697 62.6964 107.027 62.6964ZM107.027 73.7857C109.478 73.7857 111.828 74.7593 113.561 76.4924C115.294 78.2254 116.268 80.5759 116.268 83.0268C116.268 85.4777 115.294 87.8282 113.561 89.5612C111.828 91.2943 109.478 92.2679 107.027 92.2679C104.576 92.2679 102.225 91.2943 100.492 89.5612C98.7593 87.8282 97.7857 85.4777 97.7857 83.0268C97.7857 80.5759 98.7593 78.2254 100.492 76.4924C102.225 74.7593 104.576 73.7857 107.027 73.7857ZM107.027 77.4821C105.556 77.4821 104.146 78.0663 103.106 79.1061C102.066 80.146 101.482 81.5563 101.482 83.0268C101.482 84.4973 102.066 85.9076 103.106 86.9474C104.146 87.9873 105.556 88.5714 107.027 88.5714C108.497 88.5714 109.908 87.9873 110.947 86.9474C111.987 85.9076 112.571 84.4973 112.571 83.0268C112.571 81.5563 111.987 80.146 110.947 79.1061C109.908 78.0663 108.497 77.4821 107.027 77.4821Z" fill="#DADADA"/>
</svg>
