<svg width="183" height="167" viewBox="0 0 183 167" fill="none" xmlns="http://www.w3.org/2000/svg">
<path d="M182.996 79.0769C182.095 70.023 179.635 61.2952 175.682 53.1362C175.492 52.7442 175.033 52.5668 174.631 52.731L174.441 52.8085C174.229 52.8945 174.063 53.065 173.981 53.2796C173.899 53.4936 173.909 53.7326 174.009 53.9387C174.567 55.087 175.112 56.2926 175.629 57.5206C178.559 64.4745 180.419 71.8092 181.159 79.3207C181.185 79.581 181.331 79.8136 181.554 79.9485C181.685 80.0271 181.832 80.0675 181.98 80.0675C182.086 80.0675 182.191 80.0473 182.292 80.0058L182.487 79.9256C182.825 79.787 183.032 79.4413 182.996 79.0764V79.0769Z" fill="#DADADA"/>
<path d="M62.6244 24.8485C62.7863 25.0312 63.0127 25.1258 63.2413 25.1258C63.4053 25.1258 63.5708 25.0769 63.7142 24.976C64.8326 24.1894 65.9969 23.4225 67.1761 22.6954C67.384 22.5674 67.5248 22.3528 67.5602 22.1101C67.5956 21.8674 67.5221 21.6215 67.3597 21.4388L67.2248 21.2869C66.9587 20.9868 66.517 20.9225 66.1763 21.1329C64.9817 21.8727 63.7899 22.6577 62.6345 23.4666C62.4414 23.602 62.315 23.8139 62.2869 24.0492C62.2594 24.284 62.3329 24.5198 62.4901 24.6966L62.6244 24.8485Z" fill="#DADADA"/>
<path d="M53.4732 33.5837C55.4274 31.6244 57.4906 29.7666 59.6051 28.0612C59.7823 27.9183 59.8934 27.708 59.9108 27.4801C59.9283 27.2523 59.8516 27.0271 59.6987 26.8582L59.5611 26.7063C59.2681 26.3829 58.7745 26.3441 58.4343 26.6176C43.0509 39.0138 33.0884 56.5853 30.383 76.0963C30.3301 76.4766 30.5448 76.8436 30.9009 76.9822L31.0987 77.0592C31.1955 77.0969 31.2966 77.1155 31.3976 77.1155C31.5431 77.1155 31.6875 77.0767 31.8156 77.0013C32.033 76.8728 32.1801 76.6518 32.2144 76.4006C33.1053 69.9205 34.849 63.5684 37.3983 57.52C41.1782 48.5479 46.5864 40.4941 53.4726 33.5837H53.4732Z" fill="#DADADA"/>
<path d="M136.966 159.388C136.882 159.18 136.717 159.015 136.509 158.931C136.301 158.847 136.068 158.852 135.863 158.944L135.803 158.969C135.767 158.984 135.73 159 135.712 159.008C126.465 162.934 116.642 164.925 106.514 164.925C103.328 164.925 100.139 164.726 97.0343 164.332C96.7989 164.303 96.563 164.375 96.3858 164.533C96.208 164.69 96.1064 164.916 96.1064 165.154V165.358C96.1064 165.776 96.4154 166.128 96.828 166.18C100.014 166.584 103.273 166.789 106.514 166.789C116.957 166.789 127.08 164.724 136.601 160.652C137.015 160.475 137.211 159.997 137.043 159.579L136.966 159.388Z" fill="#DADADA"/>
<path d="M106.514 16C87.5981 16 69.8135 23.3958 56.4377 36.8245C43.0619 50.2537 35.6953 68.1082 35.6953 87.0993V89.3523C35.6953 108.343 43.0619 126.198 56.4377 139.627C69.8135 153.056 87.5976 160.452 106.514 160.452C125.431 160.452 143.215 153.056 156.591 139.627C169.967 126.198 177.333 108.344 177.333 89.3523V87.0993C177.333 68.1082 169.967 50.2537 156.591 36.8245C143.215 23.3958 125.431 16 106.514 16ZM175.387 87.0993V89.3523C175.387 98.6877 173.566 107.743 169.975 116.267C166.506 124.5 161.54 131.895 155.215 138.245C148.889 144.596 141.523 149.582 133.323 153.064C124.832 156.67 115.812 158.497 106.514 158.497C97.2163 158.497 88.1965 156.669 79.7062 153.064C71.5053 149.582 64.1397 144.596 57.8137 138.245C51.4882 131.895 46.5223 124.5 43.0535 116.267C39.4625 107.743 37.6416 98.6877 37.6416 89.3523V87.0993C37.6416 77.7639 39.4625 68.7089 43.0535 60.1851C46.5223 51.9512 51.4882 44.5565 57.8137 38.2059C64.1392 31.8554 71.5053 26.8698 79.7062 23.3873C88.1965 19.7821 97.2163 17.954 106.514 17.954C115.812 17.954 124.832 19.7821 133.323 23.3873C141.524 26.8698 148.889 31.8554 155.215 38.2059C161.541 44.5565 166.506 51.9512 169.975 60.1851C173.566 68.7089 175.387 77.7639 175.387 87.0993Z" fill="#DADADA"/>
<g clip-path="url(#clip0_2_5467)">
<path d="M122.351 66C117.727 66.0023 113.27 67.7371 109.849 70.8656C108.549 72.0465 107.422 73.4062 106.5 74.9044C105.578 73.406 104.45 72.0457 103.151 70.8637C99.7295 67.7365 95.2724 66.0025 90.6486 66C80.3658 66 72 74.4113 72 84.75C72 91.7288 74.1595 97.2375 79.2189 103.172C86.5702 111.797 105.176 124.959 105.965 125.516C106.121 125.628 106.308 125.688 106.5 125.688C106.692 125.688 106.879 125.628 107.035 125.516C107.824 124.959 126.43 111.797 133.783 103.172C138.84 97.2375 141 91.7288 141 84.75C141 74.4113 132.634 66 122.351 66ZM132.368 101.953C125.85 109.596 109.653 121.342 106.5 123.6C103.347 121.342 87.1502 109.596 80.6343 101.953C75.8882 96.3862 73.8649 91.2412 73.8649 84.75C73.8649 75.4444 81.3952 67.875 90.6486 67.875C94.8017 67.875 98.7981 69.4294 101.898 72.2531C103.452 73.667 104.73 75.3612 105.665 77.2481C105.982 77.8856 107.018 77.8856 107.335 77.2481C108.269 75.3615 109.547 73.6678 111.102 72.255C114.18 69.4389 118.19 67.8772 122.351 67.875C131.605 67.875 139.135 75.4444 139.135 84.75C139.135 91.2412 137.112 96.3862 132.368 101.953Z" fill="#DADADA"/>
<rect x="0.704793" y="0.0571542" width="3" height="76.6952" transform="matrix(-0.647639 -0.761947 -0.761947 0.647639 142.118 68.8091)" fill="#D9D9D9" stroke="white"/>
</g>
<circle cx="148" cy="10" r="10" fill="#D9D9D9"/>
<circle cx="18" cy="116" r="18" fill="#D9D9D9"/>
<circle cx="174" cy="147" r="7" fill="#D9D9D9"/>
<defs>
<clipPath id="clip0_2_5467">
<rect width="69" height="60" fill="white" transform="translate(72 66)"/>
</clipPath>
</defs>
</svg>
