<svg width="183" height="167" viewBox="0 0 183 167" fill="none" xmlns="http://www.w3.org/2000/svg">
<path d="M182.996 79.0776C182.095 70.0237 179.634 61.2959 175.682 53.1369C175.492 52.7449 175.033 52.5675 174.63 52.7316L174.44 52.8092C174.229 52.8952 174.062 53.0657 173.98 53.2803C173.898 53.4943 173.909 53.7333 174.009 53.9394C174.566 55.0877 175.111 56.2933 175.629 57.5212C178.558 64.4751 180.419 71.8098 181.158 79.3214C181.184 79.5816 181.33 79.8143 181.554 79.9492C181.684 80.0278 181.831 80.0681 181.979 80.0681C182.085 80.0681 182.191 80.048 182.292 80.0065L182.487 79.9263C182.825 79.7877 183.032 79.442 182.996 79.0771V79.0776Z" fill="#DADADA"/>
<path d="M62.6244 24.8479C62.7863 25.0306 63.0127 25.1251 63.2413 25.1251C63.4053 25.1251 63.5708 25.0763 63.7142 24.9754C64.8326 24.1888 65.9969 23.4219 67.1761 22.6948C67.384 22.5668 67.5248 22.3522 67.5602 22.1095C67.5956 21.8668 67.5221 21.6208 67.3597 21.4381L67.2248 21.2862C66.9587 20.9862 66.517 20.9219 66.1763 21.1322C64.9817 21.8721 63.7899 22.6571 62.6345 23.4659C62.4414 23.6014 62.315 23.8133 62.2869 24.0486C62.2594 24.2833 62.3329 24.5191 62.4901 24.696L62.6244 24.8479Z" fill="#DADADA"/>
<path d="M53.4732 33.5839C55.4274 31.6246 57.4906 29.7667 59.6051 28.0613C59.7823 27.9185 59.8934 27.7081 59.9108 27.4803C59.9283 27.2524 59.8516 27.0272 59.6987 26.8583L59.5611 26.7064C59.2681 26.383 58.7745 26.3442 58.4343 26.6177C43.0509 39.014 33.0884 56.5854 30.383 76.0964C30.3301 76.4767 30.5448 76.8437 30.9009 76.9823L31.0987 77.0593C31.1955 77.0971 31.2966 77.1157 31.3976 77.1157C31.5431 77.1157 31.6875 77.0769 31.8156 77.0015C32.033 76.8729 32.1801 76.652 32.2144 76.4008C33.1053 69.9206 34.849 63.5685 37.3983 57.5202C41.1782 48.548 46.5864 40.4942 53.4726 33.5839H53.4732Z" fill="#DADADA"/>
<path d="M136.966 159.388C136.882 159.18 136.717 159.015 136.509 158.931C136.301 158.847 136.068 158.852 135.863 158.944L135.803 158.969C135.767 158.985 135.73 159 135.712 159.008C126.465 162.935 116.642 164.925 106.514 164.925C103.328 164.925 100.139 164.726 97.0343 164.332C96.7989 164.303 96.563 164.375 96.3858 164.533C96.208 164.69 96.1064 164.917 96.1064 165.155V165.359C96.1064 165.776 96.4154 166.128 96.828 166.18C100.014 166.584 103.273 166.789 106.514 166.789C116.957 166.789 127.08 164.724 136.601 160.652C137.015 160.475 137.211 159.997 137.043 159.579L136.966 159.388Z" fill="#DADADA"/>
<path d="M106.514 16C87.5981 16 69.8135 23.3958 56.4377 36.8245C43.0619 50.2537 35.6953 68.1082 35.6953 87.0993V89.3523C35.6953 108.343 43.0619 126.198 56.4377 139.627C69.8135 153.056 87.5976 160.452 106.514 160.452C125.431 160.452 143.215 153.056 156.591 139.627C169.967 126.198 177.333 108.344 177.333 89.3523V87.0993C177.333 68.1082 169.967 50.2537 156.591 36.8245C143.215 23.3958 125.431 16 106.514 16ZM175.387 87.0993V89.3523C175.387 98.6877 173.566 107.743 169.975 116.267C166.506 124.5 161.54 131.895 155.215 138.245C148.889 144.596 141.523 149.582 133.323 153.064C124.832 156.67 115.812 158.497 106.514 158.497C97.2163 158.497 88.1965 156.669 79.7062 153.064C71.5053 149.582 64.1397 144.596 57.8137 138.245C51.4882 131.895 46.5223 124.5 43.0535 116.267C39.4625 107.743 37.6416 98.6877 37.6416 89.3523V87.0993C37.6416 77.7639 39.4625 68.7089 43.0535 60.1851C46.5223 51.9512 51.4882 44.5565 57.8137 38.2059C64.1392 31.8554 71.5053 26.8698 79.7062 23.3873C88.1965 19.7821 97.2163 17.954 106.514 17.954C115.812 17.954 124.832 19.7821 133.323 23.3873C141.524 26.8698 148.889 31.8554 155.215 38.2059C161.541 44.5565 166.506 51.9512 169.975 60.1851C173.566 68.7089 175.387 77.7639 175.387 87.0993Z" fill="#DADADA"/>
<circle cx="148" cy="10" r="10" fill="#D9D9D9"/>
<circle cx="18" cy="116" r="18" fill="#D9D9D9"/>
<circle cx="174" cy="147" r="7" fill="#D9D9D9"/>
<path d="M116.5 110V112.375C116.5 114.895 115.499 117.311 113.717 119.093C111.936 120.874 109.519 121.875 107 121.875C104.48 121.875 102.064 120.874 100.282 119.093C98.5006 117.311 97.4998 114.895 97.4998 112.375V110M88.0755 83.3688C88.0388 83.9774 88.0205 84.6088 88.0205 85.2629C88.0205 98.125 85.3279 100.5 81.5175 105.165C79.9381 107.098 81.3201 110 84.084 110H116.5L88.0755 83.3688ZM130.527 102.771C127.784 99.2902 125.982 95.7871 125.982 85.2555C125.982 73.4844 119.967 69.288 115.015 67.25C114.358 66.9798 113.739 66.3594 113.538 65.684C112.672 62.7286 110.239 60.125 107 60.125C103.761 60.125 101.329 62.7301 100.469 65.687C100.268 66.3698 99.6491 66.9798 98.9841 67.25C98.0654 67.6247 97.1727 68.0606 96.3123 68.5548L130.527 102.771Z" stroke="#DADADA" stroke-width="2" stroke-linecap="round" stroke-linejoin="round"/>
<path d="M135.5 119.5L78.5 62.5" stroke="#DADADA" stroke-width="2" stroke-miterlimit="10" stroke-linecap="round"/>
</svg>
