<svg width="183" height="167" viewBox="0 0 183 167" fill="none" xmlns="http://www.w3.org/2000/svg">
<path d="M182.996 79.0776C182.095 70.0237 179.635 61.2959 175.682 53.1369C175.492 52.7449 175.033 52.5675 174.631 52.7316L174.441 52.8092C174.229 52.8952 174.063 53.0657 173.981 53.2803C173.899 53.4943 173.909 53.7333 174.009 53.9394C174.567 55.0877 175.112 56.2933 175.629 57.5212C178.559 64.4751 180.419 71.8098 181.159 79.3214C181.185 79.5816 181.331 79.8143 181.554 79.9492C181.685 80.0278 181.832 80.0681 181.98 80.0681C182.086 80.0681 182.191 80.048 182.292 80.0065L182.487 79.9263C182.825 79.7877 183.032 79.442 182.996 79.0771V79.0776Z" fill="#DADADA"/>
<path d="M62.6244 24.8479C62.7863 25.0306 63.0127 25.1251 63.2413 25.1251C63.4053 25.1251 63.5708 25.0763 63.7142 24.9754C64.8326 24.1888 65.9969 23.4219 67.1761 22.6948C67.384 22.5668 67.5248 22.3522 67.5602 22.1095C67.5956 21.8668 67.5221 21.6208 67.3597 21.4381L67.2248 21.2862C66.9587 20.9862 66.517 20.9219 66.1763 21.1322C64.9817 21.8721 63.7899 22.6571 62.6345 23.4659C62.4414 23.6014 62.315 23.8133 62.2869 24.0486C62.2594 24.2833 62.3329 24.5191 62.4901 24.696L62.6244 24.8479V24.8479Z" fill="#DADADA"/>
<path d="M53.4732 33.5839C55.4274 31.6246 57.4906 29.7667 59.6051 28.0613C59.7823 27.9184 59.8934 27.7081 59.9108 27.4803C59.9283 27.2524 59.8516 27.0272 59.6987 26.8583L59.5611 26.7064C59.2681 26.383 58.7745 26.3442 58.4343 26.6177C43.0509 39.014 33.0884 56.5854 30.383 76.0964C30.3301 76.4767 30.5448 76.8437 30.9009 76.9823L31.0987 77.0593C31.1955 77.0971 31.2966 77.1156 31.3976 77.1156C31.5431 77.1156 31.6875 77.0769 31.8156 77.0015C32.033 76.8729 32.1801 76.652 32.2144 76.4008C33.1053 69.9206 34.849 63.5685 37.3983 57.5202C41.1782 48.548 46.5864 40.4942 53.4726 33.5839H53.4732Z" fill="#DADADA"/>
<path d="M136.966 159.388C136.882 159.18 136.717 159.015 136.509 158.931C136.301 158.847 136.068 158.852 135.863 158.944L135.803 158.969C135.767 158.985 135.73 159 135.712 159.008C126.465 162.935 116.642 164.925 106.514 164.925C103.328 164.925 100.139 164.726 97.0343 164.332C96.7989 164.303 96.563 164.375 96.3858 164.533C96.208 164.69 96.1064 164.917 96.1064 165.155V165.359C96.1064 165.776 96.4154 166.128 96.828 166.18C100.014 166.584 103.273 166.789 106.514 166.789C116.957 166.789 127.08 164.724 136.601 160.652C137.015 160.475 137.211 159.997 137.043 159.579L136.966 159.388V159.388Z" fill="#DADADA"/>
<path d="M106.514 16C87.5981 16 69.8135 23.3958 56.4377 36.8245C43.0619 50.2537 35.6953 68.1082 35.6953 87.0993V89.3523C35.6953 108.343 43.0619 126.198 56.4377 139.627C69.8135 153.056 87.5976 160.452 106.514 160.452C125.431 160.452 143.215 153.056 156.591 139.627C169.967 126.198 177.333 108.344 177.333 89.3523V87.0993C177.333 68.1082 169.967 50.2537 156.591 36.8245C143.215 23.3958 125.431 16 106.514 16V16ZM175.387 87.0993V89.3523C175.387 98.6877 173.566 107.743 169.975 116.267C166.506 124.5 161.54 131.895 155.215 138.245C148.889 144.596 141.523 149.582 133.323 153.064C124.832 156.67 115.812 158.497 106.514 158.497C97.2163 158.497 88.1965 156.669 79.7062 153.064C71.5053 149.582 64.1397 144.596 57.8137 138.245C51.4882 131.895 46.5223 124.5 43.0535 116.267C39.4625 107.743 37.6416 98.6877 37.6416 89.3523V87.0993C37.6416 77.7639 39.4625 68.7089 43.0535 60.1851C46.5223 51.9512 51.4882 44.5565 57.8137 38.2059C64.1392 31.8554 71.5053 26.8698 79.7062 23.3873C88.1965 19.7821 97.2163 17.954 106.514 17.954C115.812 17.954 124.832 19.7821 133.323 23.3873C141.524 26.8698 148.889 31.8554 155.215 38.2059C161.541 44.5565 166.506 51.9512 169.975 60.1851C173.566 68.7089 175.387 77.7639 175.387 87.0993V87.0993Z" fill="#DADADA"/>
<circle cx="148" cy="10" r="10" fill="#D9D9D9"/>
<circle cx="18" cy="116" r="18" fill="#D9D9D9"/>
<circle cx="174" cy="147" r="7" fill="#D9D9D9"/>
<path d="M135.351 80.794C135.991 80.6978 136.575 80.3745 136.997 79.8832C137.418 79.3919 137.649 78.7654 137.646 78.1182V69.8958C137.645 68.8187 137.217 67.7861 136.455 67.0245C135.693 66.2629 134.661 65.8345 133.584 65.8333H79.417C78.3399 65.8345 77.3073 66.2629 76.5457 67.0245C75.7841 67.7861 75.3557 68.8187 75.3545 69.8958V78.1182C75.3521 78.7654 75.5826 79.3919 76.004 79.8832C76.4254 80.3744 77.0095 80.6977 77.6496 80.7938C79.2665 81.021 80.7469 81.8246 81.8181 83.0568C82.8894 84.2891 83.4794 85.8668 83.4795 87.4996C83.4795 89.1324 82.8897 90.7102 81.8185 91.9425C80.7474 93.1748 79.2671 93.9786 77.6502 94.2059C77.01 94.302 76.4258 94.6252 76.0043 95.1166C75.5828 95.6079 75.3521 96.2345 75.3545 96.8818V105.104C75.3557 106.181 75.7841 107.214 76.5457 107.975C77.3073 108.737 78.3399 109.165 79.417 109.167H133.584C134.661 109.165 135.693 108.737 136.455 107.975C137.217 107.214 137.645 106.181 137.646 105.104V96.8818C137.649 96.2346 137.418 95.6081 136.997 95.1168C136.575 94.6254 135.991 94.3021 135.351 94.2059C133.734 93.9789 132.253 93.1752 131.182 91.943C130.111 90.7107 129.521 89.1328 129.521 87.4999C129.521 85.867 130.111 84.2891 131.182 83.0568C132.253 81.8245 133.734 81.0208 135.351 80.7938V80.794ZM126.813 87.5C126.813 92.2059 130.323 96.2419 134.938 96.8818V105.104C134.937 105.463 134.795 105.807 134.541 106.061C134.287 106.315 133.943 106.458 133.584 106.458H97.0211V103.298C97.0176 102.942 96.8734 102.6 96.6199 102.349C96.3663 102.098 96.0238 101.957 95.6669 101.957C95.3101 101.957 94.9676 102.098 94.714 102.349C94.4604 102.6 94.3163 102.942 94.3128 103.298V106.458H79.417C79.058 106.458 78.7138 106.315 78.46 106.061C78.2061 105.807 78.0633 105.463 78.0628 105.104L78.0224 96.8893C80.284 96.5653 82.3535 95.4384 83.8527 93.7144C85.3519 91.9905 86.1807 89.7846 86.1878 87.5C86.1878 82.7938 82.6774 78.7574 78.0628 78.1182V69.8958C78.0632 69.5368 78.206 69.1925 78.4599 68.9387C78.7138 68.6848 79.058 68.542 79.417 68.5416H94.3128V71.7012C94.3111 71.8801 94.3448 72.0576 94.4121 72.2234C94.4794 72.3892 94.5788 72.5401 94.7048 72.6672C94.8307 72.7944 94.9805 72.8953 95.1457 72.9642C95.3108 73.033 95.488 73.0685 95.6669 73.0685C95.8459 73.0685 96.0231 73.033 96.1882 72.9642C96.3534 72.8953 96.5032 72.7944 96.6291 72.6672C96.7551 72.5401 96.8545 72.3892 96.9218 72.2234C96.9891 72.0576 97.0228 71.8801 97.0211 71.7012V68.5417H133.584C133.943 68.5421 134.287 68.6849 134.541 68.9387C134.795 69.1926 134.937 69.5368 134.938 69.8958L134.978 78.1114C132.717 78.435 130.647 79.5618 129.148 81.2856C127.648 83.0095 126.82 85.2154 126.813 87.5V87.5Z" fill="#DADADA" stroke="#DADADA" stroke-width="0.3"/>
<path d="M95.6668 75.8768C95.3076 75.8768 94.9632 76.0195 94.7092 76.2734C94.4552 76.5274 94.3126 76.8719 94.3126 77.231V80.3906C94.3108 80.5696 94.3446 80.7471 94.4119 80.9129C94.4791 81.0787 94.5786 81.2295 94.7045 81.3567C94.8304 81.4838 94.9803 81.5847 95.1454 81.6536C95.3106 81.7225 95.4878 81.7579 95.6667 81.7579C95.8457 81.7579 96.0228 81.7225 96.188 81.6536C96.3531 81.5847 96.503 81.4838 96.6289 81.3567C96.7548 81.2295 96.8543 81.0787 96.9216 80.9129C96.9888 80.7471 97.0226 80.5696 97.0209 80.3906V77.231C97.0209 76.8719 96.8782 76.5274 96.6243 76.2735C96.3703 76.0195 96.0259 75.8768 95.6668 75.8768V75.8768Z" fill="#DADADA" stroke="#DADADA" stroke-width="0.3"/>
<path d="M95.6668 84.5659C95.3076 84.5659 94.9632 84.7085 94.7092 84.9625C94.4552 85.2165 94.3126 85.5609 94.3126 85.9201V89.0797C94.3108 89.2586 94.3446 89.4361 94.4119 89.6019C94.4791 89.7677 94.5786 89.9186 94.7045 90.0457C94.8304 90.1729 94.9803 90.2738 95.1454 90.3427C95.3106 90.4115 95.4878 90.447 95.6667 90.447C95.8457 90.447 96.0228 90.4115 96.188 90.3427C96.3531 90.2738 96.503 90.1729 96.6289 90.0457C96.7548 89.9186 96.8543 89.7677 96.9216 89.6019C96.9888 89.4361 97.0226 89.2586 97.0209 89.0797V85.9201C97.0209 85.5609 96.8782 85.2165 96.6243 84.9625C96.3703 84.7086 96.0259 84.5659 95.6668 84.5659V84.5659Z" fill="#DADADA" stroke="#DADADA" stroke-width="0.3"/>
<path d="M95.6668 93.2552C95.3076 93.2552 94.9632 93.3978 94.7092 93.6518C94.4552 93.9058 94.3126 94.2502 94.3126 94.6094V97.7694C94.3108 97.9483 94.3446 98.1258 94.4119 98.2916C94.4791 98.4574 94.5786 98.6083 94.7045 98.7354C94.8304 98.8625 94.9803 98.9635 95.1454 99.0323C95.3106 99.1012 95.4878 99.1367 95.6667 99.1367C95.8457 99.1367 96.0228 99.1012 96.188 99.0323C96.3531 98.9635 96.503 98.8625 96.6289 98.7354C96.7548 98.6083 96.8543 98.4574 96.9216 98.2916C96.9888 98.1258 97.0226 97.9483 97.0209 97.7694V94.6094C97.0209 94.2502 96.8782 93.9058 96.6243 93.6519C96.3703 93.3979 96.0259 93.2552 95.6668 93.2552V93.2552Z" fill="#DADADA" stroke="#DADADA" stroke-width="0.3"/>
<rect x="0.704793" y="0.0571542" width="3" height="93.1155" transform="matrix(-0.647639 -0.761947 -0.761947 0.647639 143.205 58.4478)" fill="#D9D9D9" stroke="white"/>
</svg>
