<svg width="30" height="24" viewBox="0 0 30 24" fill="none" xmlns="http://www.w3.org/2000/svg">
<path d="M28.3025 12.738C28.6755 12.4194 28.9476 11.9947 29.0333 11.4155C29.5928 7.69423 26.221 4.00193 23.076 2.3416C19.2254 0.304808 15.1732 -0.438478 10.8388 0.536482C8.19273 1.13015 6.32289 2.58293 4.62943 4.56664C3.25854 6.16905 1.7062 8.29272 1.681 10.4647C1.67596 11.1404 1.83219 12.487 2.33116 12.96C2.37652 13.0034 2.43197 13.0324 2.48237 13.071C1.56508 13.6405 0.390756 14.7361 0.960281 15.7159C1.22236 16.1648 1.83724 16.2565 2.31101 16.2275C2.50757 16.2179 2.71925 16.131 2.92589 16.049C2.85533 16.8453 2.88053 17.8734 3.37445 18.5443C2.66884 18.6601 1.98341 18.9159 1.73141 19.5434C1.4038 20.3687 1.66084 22.2752 2.44708 22.8544C2.85029 23.1536 3.38454 23.115 3.85831 23.1729C4.99736 23.3081 6.10616 23.4577 7.25529 23.4867C9.87611 23.5542 12.4969 23.6266 15.1127 23.6314C17.7537 23.6411 20.3947 23.588 23.0357 23.477C24.5628 23.4142 26.7603 23.4963 28.111 22.6082C29.0535 21.9904 29.1896 20.6197 28.8922 19.6302C28.6049 18.6553 27.8943 18.3367 27.0425 18.2161C27.7582 17.6128 28.0455 16.7633 27.7179 15.8125C27.8237 15.8704 27.9346 15.9186 28.0757 15.9235C28.5999 15.9428 29.245 15.5422 29.5625 15.1657C30.4345 14.1232 29.2803 13.2496 28.2975 12.738H28.3025ZM2.80997 8.74642C3.78774 6.09182 6.14144 3.20073 8.79754 1.93135C11.1916 0.787462 14.5281 0.488216 17.1539 0.893645C20.8886 1.468 25.0063 3.61099 27.0022 6.75306C27.7128 7.87282 28.242 9.2532 28.3176 10.5708C28.4487 12.7331 26.1101 12.9503 24.3511 13.0662C21.4581 13.2544 18.5702 13.2303 15.6722 13.1917C12.9908 13.1675 10.3146 13.1675 7.63329 13.1193C6.31784 13.0951 3.58109 13.3509 2.71421 12.2167C2.03884 11.3286 2.48236 9.6345 2.80492 8.74642H2.80997ZM28.2168 19.8088C28.4638 20.4508 28.3227 21.5705 27.7582 22.0242C26.9921 22.642 25.3541 22.6758 24.4116 22.7385C21.3221 22.9364 18.2123 22.9654 15.1127 22.9557C12.255 22.9461 9.37714 22.9364 6.52448 22.7868C5.30983 22.7192 2.97629 22.8351 2.50756 21.5802C1.96324 20.1177 2.79989 19.249 4.25646 19.1331C4.80078 19.2827 5.43079 19.2345 5.99023 19.2538C9.50818 19.3744 13.0564 19.6061 16.5743 19.3841C18.3837 19.2731 20.183 19.1138 21.9974 19.1042C23.3633 19.0993 24.6838 19.2924 25.974 18.8146C26.8661 18.829 27.8136 18.7663 28.2118 19.804L28.2168 19.8088ZM21.6849 18.4333C19.4623 18.4574 17.2598 18.718 15.0371 18.776C12.9556 18.829 10.869 18.747 8.7925 18.6746C7.76937 18.6408 6.74624 18.607 5.72311 18.5684C3.95406 18.5105 3.5055 17.4293 3.64662 15.9283C4.28166 16.0248 4.23126 16.5027 4.60422 16.937C5.68279 18.1775 7.34601 17.2604 8.35906 16.5027C9.06467 15.9717 9.46787 15.6435 10.3751 16.0683C10.7077 16.2227 10.9547 16.4978 11.3125 16.6281C12.1088 16.9129 12.6129 16.5702 13.3638 16.3675C15.2488 15.8607 15.1934 16.1841 16.5995 16.8453C16.9523 17.0094 17.3253 17.1494 17.7134 17.2218C18.676 17.4052 19.553 17.2411 20.3997 16.7922C21.4632 16.2275 21.7101 15.6628 23.2524 16.1455C23.5346 16.2324 23.7715 16.4447 24.0638 16.5268C24.714 16.7199 25.1928 16.6474 25.727 16.2517C26.1605 15.9331 26.3822 15.6339 26.8711 15.5953C28.6603 18.6939 23.3381 18.4188 21.695 18.4333H21.6849ZM27.6322 15.0306C27.1937 14.9389 26.9417 14.601 26.4427 14.712C26.0849 14.7941 25.9034 15.1657 25.6262 15.3588C25.097 15.7304 24.7291 15.9428 23.9681 15.7449C23.6808 15.6725 23.4238 15.4456 23.1365 15.3539C21.8513 14.9485 21.1255 15.6291 20.0368 16.2082C18.6559 16.937 17.416 16.4592 16.156 15.7932C15.6016 15.4987 15.1026 15.2622 14.4525 15.3105C13.6309 15.3732 13.011 15.7787 12.1592 15.8269C11.0353 15.8849 11.0252 15.4167 10.0878 15.1705C9.16042 14.9244 8.55058 15.5277 7.85506 16.0248C7.09401 16.5702 7.05873 16.6378 6.00032 16.4496C4.62943 16.2082 5.26447 16.2806 4.65463 15.5953C4.48326 15.407 4.25646 15.2285 4.00446 15.1754C3.51557 15.0643 3.12246 15.4553 2.65877 15.4698C0.612515 15.5277 2.42189 13.8577 3.25854 13.4233C4.09519 13.6598 5.16367 13.6888 5.83904 13.7322C9.09491 13.9639 12.4112 13.8384 15.6772 13.8674C18.6659 13.9108 21.6547 13.9398 24.6384 13.7226C25.5809 13.655 26.73 13.5633 27.6221 13.1579C27.9547 13.3123 28.9224 13.766 29.0333 14.1183C29.2803 14.9292 28.1815 15.1512 27.6322 15.0306Z" fill="#333333"/>
<path d="M6.35326 12.226C6.80687 12.2067 6.80687 11.531 6.35326 11.5503C5.56702 11.584 4.10037 11.7047 4.23645 10.5994C4.32717 9.84649 4.89165 9.0839 5.42085 8.55298C5.73333 8.23926 5.23438 7.75661 4.92189 8.07516C4.21125 8.79431 3.21835 10.1844 3.46531 11.2558C3.70723 12.3129 5.53174 12.2646 6.35326 12.2308V12.226Z" fill="#333333"/>
<path d="M7.99596 12.2363C8.44957 12.2363 8.44957 11.5605 7.99596 11.5605C7.54236 11.5605 7.54236 12.2363 7.99596 12.2363Z" fill="#333333"/>
<path d="M9.52829 3.52978C9.73998 3.52978 9.85589 3.3705 9.88109 3.19192C9.89621 3.06643 9.91133 2.94577 9.92645 2.82028C9.95165 2.63687 9.75005 2.48242 9.57365 2.48242C9.36197 2.48242 9.24604 2.6417 9.22084 2.82028C9.20572 2.94577 9.19061 3.06643 9.17549 3.19192C9.15028 3.37533 9.35189 3.52978 9.52829 3.52978Z" fill="#333333"/>
<path d="M13.3738 2.84927C13.4797 2.76239 13.6006 2.70448 13.7266 2.64656C14.1399 2.46315 13.7821 1.87914 13.3688 2.06255C13.1873 2.1446 13.0311 2.24595 12.8748 2.37144C12.522 2.64656 13.026 3.12438 13.3738 2.84927Z" fill="#333333"/>
<path d="M17.1589 2.72769C17.5672 2.9111 17.925 2.33192 17.5168 2.14368C17.3252 2.0568 17.1438 1.95545 16.9674 1.83478C16.5944 1.5838 16.2416 2.16781 16.6096 2.41879C16.786 2.53463 16.9674 2.63599 17.1589 2.72769Z" fill="#333333"/>
<path d="M19.6941 3.56782C19.7798 3.48577 19.8655 3.44716 19.9814 3.42303C20.4249 3.32649 20.2385 2.67491 19.7949 2.77144C19.5631 2.82454 19.3615 2.93072 19.1952 3.08999C18.8726 3.39406 19.3716 3.87189 19.6941 3.56782Z" fill="#333333"/>
<path d="M15.2487 5.46524C15.536 5.8031 16.03 5.32045 15.7477 4.98742C15.6822 4.91019 15.6167 4.84262 15.5411 4.77988C15.2034 4.49029 14.7044 4.96328 15.0421 5.2577C15.1177 5.32527 15.1832 5.39285 15.2487 5.46524Z" fill="#333333"/>
<path d="M11.1007 5.36849C11.1965 5.26713 11.2922 5.19474 11.4182 5.13199C11.8215 4.92928 11.4636 4.34526 11.0604 4.54798C10.884 4.63486 10.7328 4.7507 10.6017 4.89067C10.2993 5.21404 10.7933 5.69187 11.1007 5.36849Z" fill="#333333"/>
<path d="M18.4895 5.54725C18.8927 5.74513 19.2505 5.16112 18.8473 4.96323C18.7011 4.89083 18.5902 4.80878 18.4995 4.67364C18.2576 4.30682 17.6478 4.64468 17.8897 5.01632C18.0409 5.24317 18.2375 5.42658 18.4895 5.55207V5.54725Z" fill="#333333"/>
<path d="M7.57294 5.22793C7.58806 5.14588 7.60318 5.0783 7.67878 5.03004C8.0467 4.78388 7.69894 4.19987 7.32094 4.44603C7.09918 4.59565 6.93789 4.78871 6.88749 5.04934C6.80685 5.47408 7.48725 5.65749 7.5679 5.22793H7.57294Z" fill="#333333"/>
<path d="M21.6247 4.82164C21.9725 5.09676 22.4714 4.62375 22.1237 4.34381C22.0178 4.26176 21.912 4.17489 21.8112 4.09284C21.4634 3.81772 20.9644 4.29072 21.3122 4.57066C21.418 4.65271 21.5239 4.73959 21.6247 4.82164Z" fill="#333333"/>
</svg>
