<svg width="26" height="28" viewBox="0 0 26 28" fill="none" xmlns="http://www.w3.org/2000/svg">
<path d="M25.5219 4.82176C25.0474 4.57602 23.8128 4.01035 23.2415 4.25146C23.1301 4.29782 23.0381 4.37664 22.9607 4.47865C22.6992 3.95471 21.9875 4.01962 21.329 3.96398C21.2176 3.95471 21.116 3.94544 21.0143 3.9408C21.1838 3.41687 21.3435 2.7121 20.6899 2.48954C20.2154 2.32726 19.6005 2.40145 19.097 2.33653C18.5499 2.26699 17.9737 2.05834 17.4314 2.05834C17.3201 2.05834 17.1893 2.11861 17.1409 2.22062C17.0102 2.47563 16.9811 2.78165 16.9569 3.07376C16.6809 3.00884 16.3662 2.98566 16.0467 2.97175C15.9111 2.34117 15.8288 0.931641 14.967 0.931641C13.8728 0.931641 12.6236 0.996553 11.5971 1.36285C11.4567 1.41385 11.3454 1.52512 11.3502 1.67813C11.3502 1.97488 11.3841 2.25308 11.4325 2.53591C10.9725 2.56373 10.3722 2.77701 10.0575 2.83729C9.90253 2.86511 9.66045 2.88366 9.42805 2.91611C9.46678 2.62401 9.46677 2.32262 9.28763 2.16498C9.1569 2.04906 8.9584 2.04906 8.79378 2.03979C8.4016 2.01197 7.99973 2.01197 7.60755 1.99342C7.12338 1.97488 6.3487 1.78941 5.98557 2.19744C5.59339 2.63791 5.69992 3.61624 5.71928 4.16336C5.66118 4.17727 5.60308 4.19118 5.54982 4.20509C5.44814 4.23291 5.3271 4.32101 5.31258 4.43228C5.20122 5.17414 5.18669 5.92064 5.17217 6.66713C5.02691 6.10147 4.88167 5.5358 4.72189 4.97013C4.41686 3.88053 3.90363 4.05208 2.8094 4.23291C1.74422 4.40446 0.872705 4.33492 1.01796 5.4848C1.20678 7.01488 1.58929 8.52178 2.06862 9.98695C1.89432 9.99159 1.72485 9.99623 1.55055 10.0009C1.54087 10.0009 1.53603 10.0055 1.52635 10.0055C1.51182 10.0055 1.4973 10.0148 1.48277 10.0148C1.45372 10.0194 1.42467 10.024 1.40046 10.038C1.39562 10.038 1.38593 10.038 1.38109 10.0426C0.756504 10.3532 0.85335 10.7103 0.848508 11.3362C0.833983 12.6066 1.03249 13.9142 1.15837 15.1753C1.4053 17.6559 1.7539 20.1319 2.29133 22.5707C2.61573 24.0266 2.76582 26.9848 4.51368 27.5412C5.49171 27.8518 6.95392 27.7777 7.99005 27.8426C9.399 27.9307 10.8128 27.8936 12.2217 27.8472C14.5457 27.773 16.894 27.9678 19.2083 27.8287C20.7238 27.7359 22.1666 27.4995 22.888 26.0946C23.9338 24.0498 24.2001 21.3467 24.5197 19.1257C24.9216 16.3345 25.1152 13.5247 25.3089 10.7149C25.3234 10.5341 25.1443 10.3996 24.97 10.3903C24.8538 10.3857 24.7424 10.3764 24.6262 10.3718C25.0523 9.07354 25.4396 7.76601 25.7785 6.44921C25.9528 5.75836 26.253 5.19269 25.5171 4.81249L25.5219 4.82176ZM22.3748 4.87276C22.5491 5.11387 22.4184 6.03655 22.3748 6.5234C22.3748 6.53267 22.3748 6.54194 22.37 6.54658C22.3554 6.59758 22.3555 6.64395 22.3651 6.69032C22.3651 6.69959 22.3651 6.71814 22.3651 6.72741L22.3409 10.2559C21.6486 10.2188 20.961 10.1863 20.2687 10.1585C20.2493 9.09208 20.2541 8.02566 20.288 6.95924C20.3074 6.40749 20.288 5.82791 20.3655 5.28079C20.472 4.51111 20.5301 4.5482 21.3338 4.61775C21.7551 4.65484 22.2199 4.65484 22.3797 4.8774L22.3748 4.87276ZM19.586 10.1214C19.4746 10.1168 19.3633 10.1121 19.2519 10.1075C19.3681 9.70875 19.4746 9.30537 19.5666 8.89735C19.5666 9.30537 19.5763 9.71803 19.586 10.1214ZM19.4456 3.02275C19.7119 3.05057 20.2783 2.98566 20.4091 3.19895C20.5301 3.40296 20.38 3.72752 20.3122 3.93153C20.3122 3.9408 20.3122 3.94544 20.3122 3.95008C19.9588 4.02426 19.7748 4.25609 19.7167 4.87276C19.6828 5.26224 19.6586 5.65171 19.6344 6.04119C19.6344 6.05046 19.6247 6.0551 19.6199 6.06901C19.1599 7.38117 18.9711 8.75825 18.5644 10.0843C18.085 10.0658 17.6105 10.0472 17.1312 10.0333C17.5089 8.12303 17.78 6.06901 17.8478 4.13554C17.8623 3.8017 17.7655 3.56524 17.596 3.39832C17.596 3.38905 17.6057 3.37977 17.6057 3.3705C17.6299 3.18503 17.6251 2.93929 17.6735 2.73065C18.2545 2.78165 18.8694 2.97175 19.4504 3.02739L19.4456 3.02275ZM16.9472 5.59144C16.8407 7.05661 16.7439 8.48469 16.4582 9.93131C16.4534 9.95913 16.4582 9.97768 16.4582 10.0009C15.7562 9.97768 15.0541 9.96377 14.3569 9.94522C14.5554 9.0179 14.7539 8.09521 14.9524 7.16789C15.1122 6.43067 15.5431 5.3967 15.485 4.6363C15.4657 4.36737 15.3398 4.20046 15.1558 4.09381C15.18 3.51424 16.4437 3.5096 16.831 3.79707C17.3007 4.14482 16.9811 5.11387 16.9472 5.5868V5.59144ZM12.1636 6.76914C12.2362 6.3333 12.2943 5.89745 12.3573 5.45698C12.3863 5.24369 12.3573 4.70585 12.488 4.53893C12.5897 4.41374 12.551 4.52038 12.8124 4.46938C13.0884 4.41374 13.9212 4.51111 14.1971 4.5992C14.9573 4.84031 14.6184 5.49871 14.4876 6.11074C14.2165 7.3719 13.9502 8.62842 13.6791 9.88958C13.6791 9.90349 13.6791 9.9174 13.6791 9.93595C12.9625 9.92204 12.2411 9.91277 11.5245 9.90349C11.7714 8.86489 11.9942 7.82165 12.1636 6.77378V6.76914ZM14.9476 1.57613C15.1606 1.98879 15.2575 2.49418 15.3543 2.94857C15.1945 2.94393 15.0444 2.93466 14.904 2.91611C14.7733 2.9022 14.599 3.02739 14.5796 3.15258C14.5215 3.50032 14.5022 3.63942 14.4876 3.92226C14.1294 3.89444 13.742 3.92226 13.4515 3.8898C13.0545 3.85271 12.7204 3.78316 12.4493 3.81561C12.4009 3.48178 12.3476 3.10621 12.1636 2.84656C12.1636 2.81874 12.1685 2.79092 12.1636 2.75847C12.0958 2.47563 12.0668 2.1928 12.0474 1.90533C12.6381 1.73841 13.224 1.69204 13.8534 1.66422C14.2068 1.65031 14.5942 1.57149 14.9573 1.56685L14.9476 1.57613ZM11.8295 4.22827C11.8344 4.26073 11.8489 4.28391 11.8634 4.3071C11.8392 4.37665 11.815 4.44619 11.7956 4.53429C11.3889 6.27766 11.2679 8.08594 10.8515 9.83858C10.8515 9.85713 10.8515 9.87567 10.8515 9.89422C10.5997 9.89422 10.348 9.88958 10.0962 9.88958C9.95094 8.31313 9.74275 6.74596 9.4813 5.18342C9.43288 4.88667 9.16658 4.04281 9.26341 3.81561C9.38446 3.52814 9.64592 3.57451 9.99452 3.5096C11.0452 3.31022 11.6213 3.05521 11.8344 4.23291L11.8295 4.22827ZM6.44554 2.90684C6.48912 2.55445 6.58111 2.62864 6.88129 2.61937C7.11854 2.6101 7.36546 2.63791 7.60271 2.64719C7.97068 2.6611 8.36286 2.7121 8.73084 2.69355C8.73084 2.7121 8.73084 2.72601 8.73084 2.74456C8.67758 2.91611 8.70179 3.1433 8.67274 3.3195C8.44518 3.76461 8.67273 4.44619 8.74051 4.85885C9.02618 6.52803 9.26343 8.20649 9.41352 9.89422C8.98745 9.89422 8.56137 9.89422 8.1353 9.89422C8.18372 8.9669 8.22246 8.03494 8.23214 7.10298C8.24182 6.38894 8.4597 5.2947 8.16919 4.65021C7.94163 4.14945 7.1137 4.03817 6.39712 4.0799C6.39228 3.69042 6.39711 3.30095 6.45037 2.91147L6.44554 2.90684ZM5.75801 8.64697C5.84032 7.8912 5.84033 7.14007 5.85485 6.37967C5.86938 5.63317 5.70475 4.4972 6.8474 4.80321C7.46714 4.97013 7.47198 5.14632 7.55913 5.75836C7.62207 6.18493 7.55913 6.6625 7.55913 7.09834C7.54945 8.0303 7.51072 8.95762 7.46231 9.88958C6.97813 9.88958 6.49395 9.90349 6.01462 9.90813C5.91779 9.52792 5.82095 9.15236 5.72411 8.77216C5.74348 8.73506 5.75801 8.69334 5.76286 8.64697H5.75801ZM1.98147 7.0937C1.904 6.72277 1.73938 6.20811 1.74906 5.83254C1.76843 4.97941 2.24292 4.89131 2.99339 4.86813C4.04889 4.83567 4.09246 5.22978 4.29581 6.00873C4.40717 6.4353 4.51853 6.86187 4.62989 7.28844C4.85746 8.16476 5.08502 9.04108 5.31258 9.9174C4.46528 9.93131 3.62281 9.94986 2.77551 9.97768C2.46079 9.02717 2.18482 8.07203 1.98147 7.0937ZM24.2147 16.1166C23.9145 19.1304 23.7208 22.8304 22.37 25.6216C21.2225 27.9909 17.2958 27.1517 15.0638 27.1517C12.1878 27.1517 9.34089 27.3882 6.46974 27.0729C5.55466 26.9709 4.60568 27.0683 3.97626 26.1919C3.60829 25.6819 3.50662 24.6572 3.34684 24.0591C2.98371 22.6866 2.69804 21.2957 2.4608 19.8954C2.1945 18.3329 1.99599 16.7611 1.83621 15.1892C1.77327 14.5772 1.10512 11.1415 1.68129 10.6593C7.93195 10.446 14.1778 10.5016 20.4236 10.803C21.2806 10.8447 22.1424 10.8911 22.9994 10.9375C24.1614 11.0024 24.4374 10.8169 24.5536 11.9251C24.694 13.2465 24.3454 14.7905 24.2098 16.1166H24.2147ZM24.6311 8.13694C24.418 8.8788 24.1856 9.61139 23.9435 10.3486C23.6385 10.3301 23.3286 10.3115 23.0236 10.2976C23.0284 9.33319 23.0381 8.36414 23.043 7.39972C23.043 7.09834 23.0623 6.77377 23.0817 6.44921C23.1543 5.97628 23.2366 5.24369 23.469 5.03041C23.7111 4.80785 24.2147 5.04432 24.4713 5.16487C24.9361 5.37815 25.1879 5.51725 25.1879 6.09219C25.1879 6.73205 24.8102 7.52954 24.6311 8.14621V8.13694Z" fill="#333333"/>
<path d="M13.1707 13.6629C11.4519 13.7231 9.67014 13.6814 8.24667 14.7432C7.02172 15.6566 6.24219 17.145 6.24219 18.6333C6.23735 22.746 11.8973 22.8712 14.9282 22.8063C16.5599 22.7692 18.2013 22.4956 19.2761 21.2159C20.1041 20.2329 20.8787 18.5684 20.5785 17.298C19.891 14.3444 15.7707 13.5748 13.1707 13.6629ZM19.1599 20.2237C18.24 21.7816 16.6761 22.1201 14.9282 22.1571C12.3379 22.2128 7.88354 22.3751 7.09919 19.3381C6.69732 17.7848 7.37031 16.2084 8.70663 15.244C10.0187 14.2981 11.6068 14.363 13.1707 14.3074C15.3204 14.2332 17.2474 14.5438 18.8888 16.009C20.2202 17.196 19.9975 18.8049 19.1599 20.2237Z" fill="#333333"/>
<path d="M8.76003 17.7121C8.81329 17.2994 8.13545 17.304 8.08219 17.7121C7.94662 18.746 8.08702 19.7475 8.81812 20.5543C9.10379 20.8696 9.58311 20.4106 9.29745 20.0953C8.69224 19.423 8.64867 18.5559 8.76003 17.7121Z" fill="#333333"/>
<path d="M8.74527 16.7976C9.18103 16.7976 9.18103 16.1484 8.74527 16.1484C8.30952 16.1484 8.30952 16.7976 8.74527 16.7976Z" fill="#333333"/>
</svg>
