<svg width="28" height="25" viewBox="0 0 28 25" fill="none" xmlns="http://www.w3.org/2000/svg">
<path d="M13.36 10.0272C14.1015 8.95971 13.6518 7.33331 12.518 6.67817C11.188 5.90392 9.79583 6.89808 9.2648 8.08008C8.86772 8.89099 8.92513 10.2333 9.8341 10.7098C10.7909 11.2092 12.7285 10.9297 13.3552 10.0318L13.36 10.0272ZM12.6854 9.81185C12.2022 10.2654 10.9392 10.4074 10.3364 10.2058C9.64274 9.9722 9.56141 8.97803 9.84367 8.40536C10.1833 7.64943 10.944 6.77439 11.9343 7.11341C12.9246 7.45243 13.4843 9.0605 12.6854 9.81643V9.81185Z" fill="#E14942"/>
<path d="M7.81037 14.7496C6.70526 14.887 6.14552 15.6292 6.01635 16.6188C5.99722 16.66 5.98765 16.7058 5.99243 16.7654C5.99243 16.8204 5.99243 16.8662 6.01157 16.9028C6.17423 17.9199 6.94446 18.9324 8.14526 18.7216C9.26472 18.5246 10.0924 17.306 9.97755 16.2431C9.86273 15.2215 8.82938 14.6213 7.81037 14.7496ZM8.44665 17.9474C7.51376 18.4651 6.75788 17.6084 6.66698 16.7608C6.72439 16.1194 6.97795 15.6384 7.63815 15.4414C8.22659 15.2673 9.02552 15.446 9.24559 16.0553C9.48001 16.7013 9.04945 17.6084 8.44187 17.9428L8.44665 17.9474Z" fill="#E14942"/>
<path d="M18.828 14.1367C19.2921 13.0555 18.8041 11.9514 17.6416 11.5574C16.393 11.1359 15.3261 11.8414 14.7951 12.9089C14.7903 12.9226 14.7903 12.9364 14.7855 12.9501C14.7807 12.9639 14.7664 12.973 14.7616 12.9868C13.8718 15.3874 17.9239 16.2579 18.8328 14.1413L18.828 14.1367ZM17.0197 12.0751C17.943 12.1529 18.5458 12.8906 18.2587 13.7564C17.7469 15.2958 14.8094 14.8605 15.3979 13.1792C15.7184 12.5561 16.2255 12.0063 17.0197 12.0751Z" fill="#E14942"/>
<path d="M15.9672 8.79038C16.3404 8.74456 16.9479 9.16605 16.8523 9.56463C16.7566 9.96779 17.4024 10.1373 17.4981 9.73414C17.6799 8.9553 16.7996 8.04361 15.9672 8.14898C15.7854 8.17189 15.6323 8.28184 15.6323 8.46968C15.6323 8.62545 15.7902 8.81328 15.9672 8.79038Z" fill="#E14942"/>
<path d="M12.2403 14.168C12.6278 14.3467 12.9675 13.7969 12.58 13.6137C12.4221 13.5404 12.2786 13.4808 12.2068 13.3159C12.1399 13.1556 12.159 12.9952 12.2929 12.8807C12.6135 12.6058 12.1399 12.1522 11.8193 12.4271C11.5371 12.6699 11.4366 13.0639 11.5323 13.4121C11.6375 13.7786 11.8911 14.0077 12.2355 14.168H12.2403Z" fill="#E14942"/>
<path d="M20.6984 13.302C21.0859 13.4761 21.4256 12.9263 21.0381 12.7477C20.5071 12.5094 20.4975 11.9642 20.8037 11.5428C21.0524 11.2037 20.4688 10.883 20.2248 11.2175C19.7225 11.9093 19.8564 12.9172 20.6984 13.2974V13.302Z" fill="#E14942"/>
<path d="M5.43717 19.2945C5.11663 19.3815 4.59039 19.2441 4.69563 18.8318C4.7961 18.4286 4.15025 18.2591 4.04978 18.6622C3.82493 19.551 4.78653 20.1466 5.61417 19.913C6.0256 19.7984 5.85338 19.1799 5.43717 19.2945Z" fill="#E14942"/>
<path d="M7.39376 11.6338C7.64253 11.6797 7.7717 11.7575 7.80519 12.0141C7.83389 12.2294 7.7717 12.4997 7.53728 12.5776C7.13064 12.7105 7.30765 13.329 7.71429 13.1961C8.24532 13.022 8.51323 12.5364 8.47495 12.0141C8.43668 11.4827 8.11137 11.1207 7.57077 11.0154C7.14977 10.9329 6.96798 11.5514 7.39376 11.6338Z" fill="#E14942"/>
<path d="M12.4651 15.9864C12.0058 16.1513 11.7044 16.5545 11.7379 17.031C11.7666 17.4387 12.4364 17.4433 12.4077 17.031C12.3933 16.7881 12.5033 16.6507 12.7425 16.5728C13.0009 16.4903 13.1587 16.5087 13.3549 16.7011C13.6563 16.9989 14.1299 16.5453 13.8285 16.2475C13.441 15.8627 12.9865 15.8031 12.4651 15.9864Z" fill="#E14942"/>
<path d="M27.2861 11.3964C26.9129 9.13318 25.339 7.68088 23.588 6.25606C21.6935 4.71214 19.8325 3.38353 17.5123 2.46267C15.6034 1.70674 12.6995 0.588884 10.5754 1.04244C9.23106 1.32649 8.69524 2.78337 9.12581 3.96537C8.27903 6.59509 6.66202 8.9316 5.54255 11.4514C4.25085 14.3605 2.92567 17.2377 1.48567 20.0827C1.16514 20.7195 0.184405 21.9702 0.490585 22.7949C0.490585 22.8132 0.49059 22.827 0.495374 22.8453C0.873314 23.899 1.94494 24.5679 3.08354 24.3388C5.37989 23.8807 7.76235 22.6391 9.89604 21.6724C9.9391 22.1031 9.80514 22.5383 10.2548 22.9048C11.0777 23.5783 11.58 22.7811 11.6853 22.0527C11.7236 21.7916 11.6853 21.448 11.6518 21.0998C11.6757 21.0998 11.6948 21.0998 11.7188 21.0906C12.1637 20.9257 12.6134 20.7607 13.0583 20.5912C13.0583 20.8066 13.0296 21.0265 13.0344 21.2189C13.0392 21.7595 13.0535 22.3001 13.1301 22.8361C13.2544 23.6974 13.7711 25.2322 14.9767 24.5358C16.4311 23.6928 15.7135 21.2097 15.6991 19.5833C18.5839 18.1265 21.5691 16.8391 24.4444 15.3685C26.3006 14.4155 27.798 13.5863 27.2861 11.401V11.3964ZM14.4744 2.15114C16.3067 2.6276 18.0911 3.29649 19.7273 4.22651C22.0141 5.52304 25.0137 7.64423 26.1905 10.1686C25.9083 10.0861 25.583 10.0861 25.2242 10.2144C24.5305 10.4618 24.1047 10.9932 23.9229 11.6117C22.7412 9.6692 20.5071 8.33144 18.5982 7.11279C15.8857 5.3856 12.9578 4.09365 9.71903 3.67674C8.63305 1.00579 13.0918 1.78921 14.4792 2.15114H14.4744ZM1.76315 23.3721C2.23677 23.2897 2.72474 23.0514 3.11703 22.9277C4.43743 22.5063 5.78175 22.0985 7.06866 21.5808C7.73843 21.3105 9.03491 20.4538 9.64727 21.0814C8.18335 21.7687 3.56195 24.2609 1.76315 23.3721ZM11.6087 20.4446C11.6087 20.1743 11.6279 19.9269 11.7283 19.7391C12.0537 19.1389 12.6469 19.5146 12.91 19.959C12.4746 20.1194 12.0393 20.2843 11.6087 20.4446ZM14.7997 23.7753C14.3835 23.9173 13.9386 23.2851 13.8333 23.0514C13.7233 22.7995 13.752 22.3917 13.7329 22.1168C13.6898 21.5167 13.7329 20.9119 13.7042 20.3118C13.6563 19.3084 13.1109 18.131 11.8288 18.6625C10.7332 19.1206 11.0681 20.3668 11.049 21.2876C11.0394 21.7274 10.9485 22.7582 10.4797 21.7961C10.3888 21.6129 10.5084 21.3288 10.4701 21.1273C10.3888 20.7333 10.2405 20.4263 9.84342 20.2522C8.7096 19.7528 6.77205 21.0173 5.7674 21.3655C4.75318 21.7183 2.61471 22.8499 1.61006 22.4101C0.954644 22.1214 1.21776 22.0802 1.51437 21.4938C1.74401 21.0448 1.96886 20.5912 2.1985 20.1423C3.52846 17.4988 4.78188 14.8324 5.96833 12.1248C7.12129 9.49053 8.78614 7.04406 9.70468 4.31813C12.6373 4.69381 15.3116 5.84832 17.7897 7.37392C19.9856 8.72544 22.8752 10.3656 23.7842 12.8441C21.6218 14.1819 19.378 15.2997 17.1439 16.5138C15.3355 17.4942 14.9767 18.6121 15.0915 20.5592C15.1154 20.9898 15.3977 23.5691 14.7997 23.7753ZM21.6696 15.964C19.6938 16.8941 17.7228 17.8424 15.7709 18.8228C15.7804 18.7908 15.7852 18.7587 15.7948 18.7266C16.2684 17.2468 18.2538 16.7337 19.5311 16.0786C21.1816 15.231 22.7652 14.2552 24.3295 13.2748C24.4826 13.2244 24.6022 13.0915 24.5496 12.8991C24.3343 12.1157 24.5353 11.2589 25.3342 10.8741C26.0375 10.5351 26.4489 10.9566 26.6355 11.5705C27.1952 13.9574 23.4493 15.1302 21.6648 15.9686L21.6696 15.964Z" fill="#E14942"/>
<path d="M12.8479 2.99049C14.5318 3.29745 16.0293 3.89303 17.498 4.72226C17.8711 4.933 18.206 4.37865 17.8376 4.16791C16.3115 3.30661 14.771 2.68812 13.0249 2.372C12.6039 2.29412 12.4221 2.91261 12.8479 2.99049Z" fill="#E14942"/>
<path d="M18.8708 5.48124C19.3013 5.48124 19.3013 4.83984 18.8708 4.83984C18.4402 4.83984 18.4402 5.48124 18.8708 5.48124Z" fill="#E14942"/>
</svg>
