<svg width="28" height="28" viewBox="0 0 28 28" fill="none" xmlns="http://www.w3.org/2000/svg">
<path d="M27.0774 1.16832C27.0774 1.16832 27.0388 1.13133 27.0112 1.12076C25.8853 0.602807 24.7705 0.528816 23.5452 0.676802C22.2483 0.0742859 20.1234 0.0795704 18.7658 0.560526C17.3143 -0.0631307 15.8131 -0.226971 14.3285 0.380831C14.2457 0.380831 14.1684 0.417823 14.1022 0.491816C14.0359 0.544668 14.0028 0.602804 13.9918 0.671512C13.0646 2.60591 11.6959 4.3289 10.4431 6.07831C8.93636 8.18183 7.7884 10.4281 6.54662 12.6743C4.2231 16.8708 1.88304 21.0355 0.0286403 25.4487C-0.0486261 25.6337 0.0396784 25.7711 0.183173 25.8398C0.194211 25.8504 0.19973 25.8556 0.210768 25.8662C1.27042 26.5956 2.93165 26.8017 4.18999 26.5586C4.20655 26.5586 4.21207 26.548 4.22862 26.5427C4.89091 26.7911 5.41522 26.9338 6.14925 26.9655C6.7729 26.992 7.40207 26.9867 8.03124 26.9655C8.95844 26.9814 9.85804 27.2087 10.7852 27.0871C10.7852 27.0871 10.7852 27.0871 10.7908 27.0871C14.3285 26.8334 17.8441 26.3683 21.3211 25.7077C22.8554 25.417 24.4172 25.1051 25.935 24.7616C26.5641 24.6189 26.7463 24.5872 26.9836 24.0005C27.1768 23.5196 26.967 22.6369 26.9836 22.1243C27.0057 21.2205 27.094 20.3167 27.1823 19.413C27.3368 17.838 27.4748 16.2735 27.5134 14.6932C27.5962 11.4904 27.7176 8.28753 27.8225 5.08468C27.839 4.50859 28.2364 1.30575 27.094 1.15776L27.0774 1.16832ZM0.878571 25.3958C2.77712 20.9351 5.18894 16.7281 7.52901 12.4734C8.72112 10.3118 9.85804 8.20298 11.2985 6.18402C12.4906 4.51917 13.7766 2.87545 14.6596 1.03619C15.8572 0.534097 17.1045 0.676804 18.2746 1.15776C18.0814 1.5383 17.8827 1.91884 17.662 2.28352C17.1763 1.55416 16.3319 1.26874 15.344 1.61228C15.0128 1.72856 14.8086 1.81841 14.6099 2.08268C14.1794 2.66934 14.5492 3.36699 14.0525 4.01707C13.7876 4.3659 13.2412 4.59844 12.8769 4.86799C11.6076 5.81933 12.3968 7.1565 11.3813 8.2664C10.8459 8.85306 10.6804 8.81077 10.4099 9.57713C10.5038 10.0264 10.4099 10.4545 10.145 10.8614C9.85252 11.0993 9.53793 11.3107 9.19575 11.4851C9.05226 11.612 8.84254 11.6489 8.72664 11.8075C8.34582 12.3413 8.58866 13.076 8.42861 13.6521C8.03676 15.0738 7.03229 14.7937 6.38657 15.7926C5.88985 16.5536 6.32586 17.431 5.69669 18.0864C5.20549 18.599 4.39419 18.7312 3.96371 19.3284C3.41733 20.0789 3.7871 20.9827 3.48907 21.8177C3.19105 22.6422 2.23073 23.0703 2.0762 23.9371C1.87752 25.0681 3.24624 25.38 4.24518 25.4223C4.18999 25.5544 4.12928 25.6812 4.07409 25.8081C4.06305 25.8134 4.05201 25.8239 4.04098 25.8345C4.0189 25.8345 3.99682 25.8345 3.97475 25.8345C3.01444 26.0195 1.76714 25.8662 0.878571 25.3853V25.3958ZM4.5708 24.6982C3.87541 24.7088 3.61601 24.7352 3.40077 24.0481C3.16345 23.287 3.38973 23.4456 3.83125 22.9752C4.17895 22.6052 4.36108 22.304 4.46042 21.8124C4.6867 20.692 4.22862 19.9203 5.40418 19.1698C5.79603 18.9214 6.27619 18.7153 6.55766 18.34C6.75634 18.0758 6.75082 17.8485 6.87224 17.5737C6.88328 17.3781 6.87224 17.1826 6.84465 16.9923C7.31376 16.4955 7.78288 15.9934 8.252 15.4966C8.37894 15.3803 8.62729 15.3328 8.73767 15.1848C9.42755 14.2651 8.84254 12.928 9.58761 12.1352C9.98498 11.7124 10.6141 11.6225 10.9563 11.094C11.1936 10.724 11.0888 10.4228 11.2157 10.0475C11.6296 8.78964 12.6231 8.54651 12.7831 7.18292C12.8825 6.332 12.8604 5.9039 13.5779 5.30138C13.9918 4.95255 14.5437 4.70944 14.8748 4.27077C15.1232 3.9378 15.1232 3.75809 15.1894 3.36698C15.2777 2.87017 15.1066 2.60063 15.5482 2.33108C16.1718 1.94526 16.95 2.35222 17.1763 2.99174C17.1763 3.00759 17.1928 3.01288 17.1984 3.02874C16.4533 4.17563 15.6144 5.27496 14.8196 6.38486C13.3074 8.49895 12.1484 10.7716 10.868 13.0178C8.67145 16.876 6.3976 20.6761 4.56528 24.7035L4.5708 24.6982ZM6.28722 26.2362C5.9616 26.2256 5.60286 26.2362 5.27724 26.1675C5.11719 26.1358 4.96817 26.0776 4.81916 26.0089C6.78394 21.416 9.411 17.1561 11.8725 12.7958C13.0922 10.6395 14.2291 8.50951 15.6806 6.48527C16.8948 4.78871 18.2083 3.11858 19.0914 1.23704C19.0914 1.23175 19.0914 1.22118 19.0914 1.21589C20.1179 0.856494 21.873 0.845928 22.9547 1.23704C22.7008 1.73385 22.4249 2.22009 22.1268 2.69576C21.6025 1.91884 20.5926 1.35331 19.6212 1.9294C19.2459 2.15138 19.2735 2.29408 19.1135 2.72218C18.843 3.44098 18.8817 3.89551 18.2304 4.42932C17.9324 4.67773 17.5295 4.84156 17.2535 5.11639C16.8782 5.49164 16.8838 5.58679 16.7899 6.0836C16.6851 6.60684 16.8838 7.30977 16.6078 7.79601C16.3981 8.16069 15.8848 8.27168 15.6199 8.55708C14.9411 9.29173 15.4267 10.0951 14.8583 10.8614C14.4388 11.427 13.6662 11.4481 13.3295 12.0665C12.6727 13.2662 13.622 13.8 12.2147 14.9786C11.591 15.4966 11.0391 15.5389 10.8294 16.4532C10.7632 16.7492 10.8956 17.1509 10.8183 17.4204C10.6141 18.1128 10.1285 18.2396 9.57105 18.6149C9.12401 18.9161 8.66041 19.191 8.45068 19.7036C8.29063 20.0947 8.41757 20.5017 8.38446 20.8981C8.29063 21.897 7.92638 22.3093 7.18131 22.8272C6.70667 23.1602 6.27067 23.4984 6.15477 24.0798C5.89537 25.343 6.96054 25.7129 7.99812 25.6865C7.91534 25.8662 7.83255 26.0406 7.75529 26.2256C7.26409 26.2415 6.7729 26.2467 6.2817 26.2256L6.28722 26.2362ZM8.35134 24.9413C8.35134 24.9413 8.32927 24.9413 8.31271 24.9413C7.63387 25.0047 7.76632 25.1157 7.66698 24.2331C7.5566 23.2765 7.61179 23.5143 8.22992 23.0756C8.56106 22.8378 8.90876 22.5947 9.07434 22.2194C9.37788 21.5429 9.04122 20.8082 9.31165 20.1106C9.63728 19.2861 10.2609 19.2333 10.9011 18.6836C11.1716 18.4563 11.3923 18.2608 11.5193 17.9384C11.5855 17.764 11.5413 17.5948 11.5965 17.4257C11.8559 16.6223 12.314 16.1308 13.0204 15.4702C13.9366 14.6087 13.749 14.2598 13.9532 13.0654C14.1518 11.8973 15.4157 11.6859 15.9124 10.6025C16.1001 10.1955 15.9566 9.95238 16.2104 9.47671C16.5195 8.90062 16.6906 9.04332 16.9776 8.6205C17.2039 8.28753 17.3418 8.07613 17.4357 7.65331C17.5461 7.17764 17.3805 6.52227 17.5626 6.0836C17.8551 5.39652 18.6388 5.12697 19.1686 4.65658C19.4612 4.3976 19.715 4.17035 19.8585 3.80567C19.9413 3.59426 19.8254 3.36698 19.8861 3.16614C19.9248 2.97059 19.9579 2.77504 19.9965 2.5742C20.6753 2.3575 21.2272 2.63762 21.6467 3.41455C20.9071 4.51388 20.1014 5.57093 19.3397 6.63854C17.8054 8.78963 16.652 11.1416 15.2612 13.3772C12.8769 17.2037 10.2885 20.8928 8.3403 24.936L8.35134 24.9413ZM8.58314 26.2626C10.6307 21.6327 13.6386 17.5155 16.2877 13.1975C17.5516 11.1363 18.6167 8.99576 20.0241 7.01908C21.3211 5.19567 22.7671 3.40399 23.7384 1.3956C24.5718 1.30575 25.361 1.32161 26.1447 1.5753C25.4603 2.24124 24.7208 3.70524 24.2958 4.29719C23.2031 5.82991 22.1268 7.37847 21.0672 8.93233C19.0803 11.8498 17.1487 14.7989 15.2722 17.7798C13.5337 20.5493 11.58 23.3029 10.4927 26.3789C9.86356 26.4423 9.22335 26.326 8.58314 26.2573V26.2626ZM27.0388 4.76757C27.0167 5.50221 26.9891 6.23687 26.967 6.97151C26.8787 9.43443 26.7849 11.8921 26.7297 14.355C26.669 17.0716 26.222 19.7671 26.1889 22.4784C26.1778 23.3504 26.4427 23.6411 25.3996 24.0851C25.0078 24.2542 24.4283 24.2701 23.9978 24.3705C22.6898 24.6718 21.3873 24.9572 20.0572 25.1897C17.1708 25.7024 14.2677 26.0723 11.3427 26.3049C12.2754 23.8261 13.7876 21.6116 15.1949 19.3548C16.6851 16.9606 18.2083 14.5875 19.7647 12.2356C21.3266 9.88367 22.9216 7.55817 24.5552 5.24852C24.9636 4.67243 25.372 4.09635 25.786 3.52555C26.1778 2.98117 26.4648 1.96639 27.0829 2.80146C27.3313 3.13443 27.0553 4.31304 27.0443 4.77286L27.0388 4.76757Z" fill="#333333"/>
<path d="M16.9668 23.0273C16.4701 23.0273 16.4701 23.7673 16.9668 23.7673C17.4635 23.7673 17.4635 23.0273 16.9668 23.0273Z" fill="#333333"/>
<path d="M18.1806 19.4492C17.6839 19.4492 17.6839 20.1892 18.1806 20.1892C18.6774 20.1892 18.6774 19.4492 18.1806 19.4492Z" fill="#333333"/>
<path d="M20.4546 21.2891C19.9579 21.2891 19.9579 22.029 20.4546 22.029C20.9513 22.029 20.9513 21.2891 20.4546 21.2891Z" fill="#333333"/>
<path d="M23.9922 19.0645C23.4955 19.0645 23.4955 19.8044 23.9922 19.8044C24.4889 19.8044 24.4889 19.0645 23.9922 19.0645Z" fill="#333333"/>
<path d="M21.2109 17.8535C20.7142 17.8535 20.7142 18.5934 21.2109 18.5934C21.7076 18.5934 21.7076 17.8535 21.2109 17.8535Z" fill="#333333"/>
<path d="M20.2007 14.6094C19.7039 14.6094 19.7039 15.3493 20.2007 15.3493C20.6974 15.3493 20.6974 14.6094 20.2007 14.6094Z" fill="#333333"/>
<path d="M23.6391 16.1247C24.1358 16.1247 24.1358 15.3848 23.6391 15.3848C23.1424 15.3848 23.1424 16.1247 23.6391 16.1247Z" fill="#333333"/>
<path d="M22.7783 12.2402C22.2816 12.2402 22.2816 12.9802 22.7783 12.9802C23.275 12.9802 23.275 12.2402 22.7783 12.2402Z" fill="#333333"/>
<path d="M24.7485 9.43359C24.2518 9.43359 24.2518 10.1735 24.7485 10.1735C25.2452 10.1735 25.2452 9.43359 24.7485 9.43359Z" fill="#333333"/>
<path d="M25.3056 13.3027C24.8089 13.3027 24.8089 14.0427 25.3056 14.0427C25.8024 14.0427 25.8024 13.3027 25.3056 13.3027Z" fill="#333333"/>
<path d="M23.6113 22.5098C23.1146 22.5098 23.1146 23.2497 23.6113 23.2497C24.108 23.2497 24.108 22.5098 23.6113 22.5098Z" fill="#333333"/>
</svg>
