<svg width="14" height="14" viewBox="0 0 14 14" fill="none" xmlns="http://www.w3.org/2000/svg">
<path d="M9.625 5.6875C9.625 5.57147 9.67109 5.46019 9.75314 5.37814C9.83519 5.29609 9.94647 5.25 10.0625 5.25H10.9375C11.0535 5.25 11.1648 5.29609 11.2469 5.37814C11.3289 5.46019 11.375 5.57147 11.375 5.6875V6.5625C11.375 6.67853 11.3289 6.78981 11.2469 6.87186C11.1648 6.95391 11.0535 7 10.9375 7H10.0625C9.94647 7 9.83519 6.95391 9.75314 6.87186C9.67109 6.78981 9.625 6.67853 9.625 6.5625V5.6875ZM7 5.6875C7 5.57147 7.04609 5.46019 7.12814 5.37814C7.21019 5.29609 7.32147 5.25 7.4375 5.25H8.3125C8.42853 5.25 8.53981 5.29609 8.62186 5.37814C8.70391 5.46019 8.75 5.57147 8.75 5.6875V6.5625C8.75 6.67853 8.70391 6.78981 8.62186 6.87186C8.53981 6.95391 8.42853 7 8.3125 7H7.4375C7.32147 7 7.21019 6.95391 7.12814 6.87186C7.04609 6.78981 7 6.67853 7 6.5625V5.6875ZM2.625 8.3125C2.625 8.19647 2.67109 8.08519 2.75314 8.00314C2.83519 7.92109 2.94647 7.875 3.0625 7.875H3.9375C4.05353 7.875 4.16481 7.92109 4.24686 8.00314C4.32891 8.08519 4.375 8.19647 4.375 8.3125V9.1875C4.375 9.30353 4.32891 9.41481 4.24686 9.49686C4.16481 9.57891 4.05353 9.625 3.9375 9.625H3.0625C2.94647 9.625 2.83519 9.57891 2.75314 9.49686C2.67109 9.41481 2.625 9.30353 2.625 9.1875V8.3125ZM5.25 8.3125C5.25 8.19647 5.29609 8.08519 5.37814 8.00314C5.46019 7.92109 5.57147 7.875 5.6875 7.875H6.5625C6.67853 7.875 6.78981 7.92109 6.87186 8.00314C6.95391 8.08519 7 8.19647 7 8.3125V9.1875C7 9.30353 6.95391 9.41481 6.87186 9.49686C6.78981 9.57891 6.67853 9.625 6.5625 9.625H5.6875C5.57147 9.625 5.46019 9.57891 5.37814 9.49686C5.29609 9.41481 5.25 9.30353 5.25 9.1875V8.3125Z" fill="#455A64"/>
<path d="M3.0625 0C3.17853 0 3.28981 0.0460936 3.37186 0.128141C3.45391 0.210188 3.5 0.321468 3.5 0.4375V0.875H10.5V0.4375C10.5 0.321468 10.5461 0.210188 10.6281 0.128141C10.7102 0.0460936 10.8215 0 10.9375 0C11.0535 0 11.1648 0.0460936 11.2469 0.128141C11.3289 0.210188 11.375 0.321468 11.375 0.4375V0.875H12.25C12.7141 0.875 13.1592 1.05937 13.4874 1.38756C13.8156 1.71575 14 2.16087 14 2.625V12.25C14 12.7141 13.8156 13.1592 13.4874 13.4874C13.1592 13.8156 12.7141 14 12.25 14H1.75C1.28587 14 0.840752 13.8156 0.512563 13.4874C0.184374 13.1592 0 12.7141 0 12.25V2.625C0 2.16087 0.184374 1.71575 0.512563 1.38756C0.840752 1.05937 1.28587 0.875 1.75 0.875H2.625V0.4375C2.625 0.321468 2.67109 0.210188 2.75314 0.128141C2.83519 0.0460936 2.94647 0 3.0625 0V0ZM0.875 3.5V12.25C0.875 12.4821 0.967187 12.7046 1.13128 12.8687C1.29538 13.0328 1.51794 13.125 1.75 13.125H12.25C12.4821 13.125 12.7046 13.0328 12.8687 12.8687C13.0328 12.7046 13.125 12.4821 13.125 12.25V3.5H0.875Z" fill="#455A64"/>
</svg>
