<svg width="17" height="17" viewBox="0 0 17 17" fill="none" xmlns="http://www.w3.org/2000/svg">
<path d="M14.9758 4.85733H6.07106M4.45201 4.85733H2.02344M2.02344 10.9049H4.45201M5.26153 3.23828C5.47623 3.23828 5.68214 3.32357 5.83395 3.47539C5.98577 3.6272 6.07106 3.83311 6.07106 4.04781V5.66685C6.07106 5.88155 5.98577 6.08746 5.83395 6.23927C5.68214 6.39109 5.47623 6.47638 5.26153 6.47638C5.04683 6.47638 4.84093 6.39109 4.68911 6.23927C4.5373 6.08746 4.45201 5.88155 4.45201 5.66685V4.04781C4.45201 3.83311 4.5373 3.6272 4.68911 3.47539C4.84093 3.32357 5.04683 3.23828 5.26153 3.23828ZM5.26153 9.2859C5.04683 9.2859 4.84093 9.37119 4.68911 9.523C4.5373 9.67482 4.45201 9.88072 4.45201 10.0954V11.7145C4.45201 11.9292 4.5373 12.1351 4.68911 12.2869C4.84093 12.4387 5.04683 12.524 5.26153 12.524C5.47623 12.524 5.68214 12.4387 5.83395 12.2869C5.98577 12.1351 6.07106 11.9292 6.07106 11.7145V10.0954C6.07106 9.88072 5.98577 9.67482 5.83395 9.523C5.68214 9.37119 5.47623 9.2859 5.26153 9.2859ZM6.07106 10.9049H14.9758H10.5234H6.07106Z" stroke="white" stroke-linecap="round" stroke-linejoin="round"/>
</svg>
