<svg width="20" height="20" viewBox="0 0 20 20" fill="none" xmlns="http://www.w3.org/2000/svg">
<path d="M18.6611 3.43935C18.5929 3.3839 18.5125 3.34542 18.4266 3.32707C18.3406 3.30872 18.2515 3.31103 18.1666 3.3338L12.8278 5.00046L7.47776 2.2838C7.40463 2.24995 7.32501 2.23242 7.24442 2.23242C7.16384 2.23242 7.08422 2.24995 7.01109 2.2838L1.45554 4.55602C1.3532 4.59806 1.26576 4.66969 1.20439 4.76174C1.14302 4.85379 1.11054 4.96206 1.11109 5.07269V16.4505C1.11154 16.5415 1.13434 16.6309 1.17747 16.7111C1.22061 16.7912 1.28276 16.8595 1.35847 16.9099C1.43418 16.9604 1.52113 16.9915 1.61168 17.0005C1.70222 17.0095 1.79359 16.9962 1.87776 16.9616L7.2222 14.7671L12.55 17.5005C12.6291 17.541 12.7167 17.5619 12.8055 17.5616C12.8608 17.57 12.917 17.57 12.9722 17.5616L18.5278 15.8282C18.6448 15.7916 18.7465 15.7172 18.8168 15.6167C18.8871 15.5162 18.9223 15.3952 18.9166 15.2727V3.88935C18.9138 3.79924 18.889 3.71118 18.8445 3.63278C18.7999 3.55438 18.737 3.48799 18.6611 3.43935ZM17.7778 14.8616L13.1555 16.306V15.0338H12.2666V16.1449L7.59998 13.7505V12.8116H6.71109V13.7671L2.2222 15.6171V5.43935L6.71109 3.58935V4.89491H7.59998V3.59491L12.2666 5.9838V7.15046H13.1555V6.11158L17.7778 4.64491V14.8616Z" fill="#EBEBEB"/>
<path d="M12.2666 8.36719H13.1555V10.4839H12.2666V8.36719Z" fill="#EBEBEB"/>
<path d="M12.2666 11.6992H13.1555V13.8159H12.2666V11.6992Z" fill="#EBEBEB"/>
<path d="M6.71118 6.14453H7.60007V8.2612H6.71118V6.14453Z" fill="#EBEBEB"/>
<path d="M6.71118 9.51758H7.60007V11.6009H6.71118V9.51758Z" fill="#EBEBEB"/>
</svg>
