<svg width="27" height="34" viewBox="0 0 27 34" fill="none" xmlns="http://www.w3.org/2000/svg">
<path d="M9.68285 16.6875H8.7754C8.52369 16.6875 8.31836 16.4879 8.31836 16.2432C8.31836 15.9985 8.52369 15.7988 8.7754 15.7988H9.68285C9.93455 15.7988 10.1399 15.9985 10.1399 16.2432C10.1399 16.4879 9.93455 16.6875 9.68285 16.6875Z" fill="white"/>
<path d="M7.12689 16.6875H6.02735C5.77565 16.6875 5.57031 16.4879 5.57031 16.2432C5.57031 15.9985 5.77565 15.7988 6.02735 15.7988H7.12689C7.37859 15.7988 7.58393 15.9985 7.58393 16.2432C7.58393 16.4879 7.37859 16.6875 7.12689 16.6875Z" fill="white"/>
<path d="M4.37111 16.6875H3.45704C3.20534 16.6875 3 16.4879 3 16.2432C3 15.9985 3.20534 15.7988 3.45704 15.7988H4.36449C4.61619 15.7988 4.82153 15.9985 4.82153 16.2432C4.82153 16.4879 4.61619 16.6875 4.36449 16.6875H4.37111Z" fill="white"/>
<path d="M11.1125 22.8887H10.2051C9.95338 22.8887 9.74805 22.6891 9.74805 22.4443C9.74805 22.1996 9.95338 22 10.2051 22H11.1125C11.3642 22 11.5696 22.1996 11.5696 22.4443C11.5696 22.6891 11.3642 22.8887 11.1125 22.8887Z" fill="white"/>
<path d="M8.55658 22.8887H7.45704C7.20534 22.8887 7 22.6891 7 22.4443C7 22.1996 7.20534 22 7.45704 22H8.55658C8.80828 22 9.01362 22.1996 9.01362 22.4443C9.01362 22.6891 8.80828 22.8887 8.55658 22.8887Z" fill="white"/>
<path d="M5.8008 22.8887H4.88673C4.63502 22.8887 4.42969 22.6891 4.42969 22.4443C4.42969 22.1996 4.63502 22 4.88673 22H5.79418C6.04588 22 6.25121 22.1996 6.25121 22.4443C6.25121 22.6891 6.04588 22.8887 5.79418 22.8887H5.8008Z" fill="white"/>
<path d="M6.68285 10.6875H5.7754C5.52369 10.6875 5.31836 10.4879 5.31836 10.2432C5.31836 9.99846 5.52369 9.79883 5.7754 9.79883H6.68285C6.93455 9.79883 7.13989 9.99846 7.13989 10.2432C7.13989 10.4879 6.93455 10.6875 6.68285 10.6875Z" fill="white"/>
<path d="M4.12689 10.6875H3.02735C2.77565 10.6875 2.57031 10.4879 2.57031 10.2432C2.57031 9.99846 2.77565 9.79883 3.02735 9.79883H4.12689C4.37859 9.79883 4.58393 9.99846 4.58393 10.2432C4.58393 10.4879 4.37859 10.6875 4.12689 10.6875Z" fill="white"/>
<path d="M1.37111 10.6875H0.457038C0.205336 10.6875 0 10.4879 0 10.2432C0 9.99846 0.205336 9.79883 0.457038 9.79883H1.36449C1.61619 9.79883 1.82153 9.99846 1.82153 10.2432C1.82153 10.4879 1.61619 10.6875 1.36449 10.6875H1.37111Z" fill="white"/>
<path d="M23.2409 30.2521C23.1488 30.2521 23.0505 30.2208 22.9706 30.152C22.7924 30.0018 22.7679 29.7327 22.9153 29.5449L23.4437 28.8941C23.8123 28.4373 24.0212 27.8615 24.0212 27.267V20.6022C24.0212 20.308 23.7877 20.0702 23.499 20.0702C23.2102 20.0702 22.9768 20.308 22.9768 20.6022C22.9768 20.84 22.7863 21.034 22.5528 21.034C22.3194 21.034 22.1289 20.84 22.1289 20.6022V20.1954C22.1289 20.0202 22.2334 19.87 22.3808 19.8011C22.6266 19.4444 23.0382 19.2129 23.499 19.2129C24.2547 19.2129 24.8691 19.8387 24.8691 20.6084V27.2733C24.8691 28.0618 24.5987 28.8378 24.1011 29.4448L23.5727 30.0956C23.4867 30.1958 23.37 30.2521 23.2471 30.2521H23.2409Z" fill="white"/>
<path d="M22.5526 22.9485C22.3191 22.9485 22.1286 22.7545 22.1286 22.5167V19.7256C22.1286 19.4315 21.8952 19.1937 21.6064 19.1937C21.3176 19.1937 21.0842 19.4315 21.0842 19.7256V20.2263C21.0842 20.4641 20.8937 20.6581 20.6603 20.6581C20.4268 20.6581 20.2363 20.4641 20.2363 20.2263V19.7256C20.2363 18.9559 20.8507 18.3301 21.6064 18.3301C22.3621 18.3301 22.9765 18.9559 22.9765 19.7256V22.5167C22.9765 22.7545 22.786 22.9485 22.5526 22.9485V22.9485Z" fill="white"/>
<path d="M20.6658 22.4662C20.4324 22.4662 20.2419 22.2722 20.2419 22.0344V19.1495C20.2419 18.8553 20.0084 18.6175 19.7197 18.6175C19.4309 18.6175 19.1975 18.8553 19.1975 19.1495V21.7278C19.1975 21.9656 19.007 22.1596 18.7735 22.1596C18.5401 22.1596 18.3496 21.9656 18.3496 21.7278V19.1495C18.3496 18.3797 18.964 17.7539 19.7197 17.7539C20.4754 17.7539 21.0898 18.3797 21.0898 19.1495V22.0344C21.0898 22.2722 20.8993 22.4662 20.6658 22.4662V22.4662Z" fill="white"/>
<path d="M23.2403 34.001C23.0069 34.001 22.8164 33.807 22.8164 33.5692V29.8206C22.8164 29.7205 22.8533 29.6266 22.9147 29.5452L23.4431 28.8944C23.8117 28.4376 24.0206 27.8618 24.0206 27.2673V21.5412C24.0206 21.3034 24.2111 21.1094 24.4445 21.1094C24.678 21.1094 24.8684 21.3034 24.8684 21.5412V27.2673C24.8684 28.0558 24.5981 28.8318 24.1005 29.4388L23.6643 29.9708V33.5629C23.6643 33.8007 23.4738 33.9947 23.2403 33.9947V34.001Z" fill="white"/>
<path d="M15.4197 33.9992C15.1862 33.9992 14.9958 33.8052 14.9958 33.5674V30.0191L13.6441 28.8551C13.1403 28.4233 12.8516 27.7849 12.8516 27.1153V21.2703C12.8516 20.8322 13.0297 20.4129 13.3431 20.1126C13.6564 19.8059 14.068 19.6495 14.5043 19.6745C15.3398 19.7183 15.9911 20.4505 15.9911 21.3391V24.6747C15.9911 24.7998 16.0955 24.9 16.2245 24.9C16.3536 24.9 16.458 24.7998 16.458 24.6747V15.6005C16.458 15.2062 16.6239 14.8308 16.9065 14.5679C17.1953 14.3051 17.5762 14.1799 17.9632 14.2175C18.6513 14.2863 19.192 14.9184 19.192 15.6568V19.9186C19.192 20.1564 19.0015 20.3504 18.7681 20.3504C18.5346 20.3504 18.3442 20.1564 18.3442 19.9186V15.6568C18.3442 15.3564 18.1414 15.0999 17.8772 15.0686C17.7298 15.0561 17.5823 15.0999 17.4717 15.2062C17.3611 15.3064 17.2997 15.4503 17.2997 15.6005V24.6747C17.2997 25.2692 16.8205 25.7573 16.2245 25.7573C15.6286 25.7573 15.1494 25.2692 15.1494 24.6747V21.3391C15.1494 20.9136 14.8422 20.5569 14.4612 20.5319C14.2585 20.5193 14.068 20.5944 13.9206 20.7321C13.7731 20.876 13.6933 21.0638 13.6933 21.2703V27.1153C13.6933 27.5346 13.8714 27.9289 14.1848 28.198L15.6839 29.4934C15.776 29.5747 15.8313 29.6936 15.8313 29.8188V33.5674C15.8313 33.8052 15.6409 33.9992 15.4074 33.9992H15.4197Z" fill="white"/>
<path d="M23.2411 30.2523H15.42C15.1866 30.2523 14.9961 30.0583 14.9961 29.8205C14.9961 29.5827 15.1866 29.3887 15.42 29.3887H23.2473C23.4807 29.3887 23.6712 29.5827 23.6712 29.8205C23.6712 30.0583 23.4807 30.2523 23.2473 30.2523H23.2411Z" fill="white"/>
<path d="M23.2411 32.4613H16.9806C16.7471 32.4613 16.5566 32.2673 16.5566 32.0295C16.5566 31.7917 16.7471 31.5977 16.9806 31.5977H23.2411C23.4746 31.5977 23.6651 31.7917 23.6651 32.0295C23.6651 32.2673 23.4746 32.4613 23.2411 32.4613V32.4613Z" fill="white"/>
<path d="M15.4199 16.9093C15.3769 16.9093 15.3339 16.903 15.2909 16.8905C11.7828 15.7202 9.42969 12.416 9.42969 8.65489C9.42969 3.88625 13.245 0 17.9328 0C22.6205 0 26.4297 3.88625 26.4297 8.65489C26.4297 12.3346 24.138 15.6201 20.7343 16.8279C20.5132 16.903 20.2736 16.7904 20.1998 16.5651C20.1261 16.3398 20.2367 16.0957 20.4579 16.0206C23.5298 14.9317 25.588 11.9717 25.588 8.65489C25.588 4.3556 22.1536 0.857353 17.9328 0.857353C13.7119 0.857353 10.2714 4.3556 10.2714 8.65489C10.2714 12.0405 12.391 15.0193 15.549 16.0707C15.7701 16.1458 15.893 16.3898 15.8193 16.6151C15.764 16.7966 15.5981 16.9093 15.4199 16.9093Z" fill="white"/>
<path d="M20.7297 5L16.3897 9.77167L15.1297 8.815H14.4297L16.3897 12L18.9097 8.5L21.4297 5H20.7297Z" fill="white"/>
</svg>
