<svg width="36" height="21" viewBox="0 0 36 21" fill="none" xmlns="http://www.w3.org/2000/svg">
<path d="M27.0123 21H17.3947C16.4475 21 15.646 20.2787 15.5731 19.3579L15.189 14.4121C14.9306 14.4443 14.6789 14.4637 14.4272 14.4637C11.1087 14.4637 8.40625 11.8362 8.40625 8.60994C8.40625 5.38362 11.1087 2.75621 14.4272 2.75621C15.2486 2.75621 16.0633 2.92364 16.8184 3.23919C17.8318 1.25575 19.8984 0 22.2035 0C24.5086 0 26.5752 1.25575 27.5886 3.23919C28.3371 2.92364 29.1584 2.75621 29.9798 2.75621C33.2982 2.75621 36.0007 5.38362 36.0007 8.60994C36.0007 11.8362 33.2982 14.4637 29.9798 14.4637C29.7281 14.4637 29.4697 14.4443 29.218 14.4121L28.8339 19.3579C28.761 20.2787 27.9661 21 27.0123 21V21ZM15.6063 13.4526C15.7056 13.4526 15.7983 13.4848 15.8778 13.5428C15.9838 13.6201 16.05 13.736 16.0567 13.8648L16.4806 19.2935C16.5137 19.7571 16.9178 20.1178 17.3947 20.1178H27.0123C27.4892 20.1178 27.8867 19.7571 27.9264 19.2935L28.3503 13.8648C28.3569 13.736 28.4232 13.6201 28.5292 13.5428C28.6351 13.4655 28.7676 13.4397 28.9001 13.4655C29.2644 13.5428 29.6287 13.5814 29.9864 13.5814C32.8015 13.5814 35.0933 11.3533 35.0933 8.61638C35.0933 5.87948 32.8015 3.65133 29.9864 3.65133C29.1518 3.65133 28.3238 3.85097 27.5886 4.23091C27.476 4.28887 27.3435 4.30175 27.2177 4.25667C27.0984 4.21159 26.9991 4.12144 26.9527 4.00552C26.1711 2.11224 24.3098 0.895124 22.2101 0.895124C20.1104 0.895124 18.2557 2.11868 17.4675 4.00552C17.4212 4.12144 17.3218 4.21159 17.2026 4.25667C17.0833 4.30175 16.9442 4.28887 16.8316 4.23091C16.0964 3.85097 15.2684 3.65133 14.4339 3.65133C11.6188 3.65133 9.32695 5.87948 9.32695 8.61638C9.32695 11.3533 11.6188 13.5814 14.4339 13.5814C14.7915 13.5814 15.1558 13.5428 15.5135 13.4655C15.5466 13.4591 15.5798 13.4526 15.6129 13.4526H15.6063Z" fill="white"/>
<path d="M32.8876 11.2891C32.8213 11.2891 32.7617 11.2762 32.6955 11.2505C32.4703 11.1474 32.3643 10.8834 32.4703 10.6645C32.7087 10.1622 32.828 9.62121 32.828 9.06096C32.828 7.81809 32.2053 6.64605 31.1654 5.9248C30.9601 5.78313 30.9137 5.50622 31.0594 5.30659C31.2051 5.10695 31.49 5.06188 31.6953 5.20355C32.9737 6.09224 33.742 7.53474 33.742 9.06096C33.742 9.75001 33.5963 10.4133 33.3049 11.0315C33.2254 11.1925 33.0664 11.2891 32.8942 11.2891H32.8876Z" fill="white"/>
<path d="M29.9798 14.4637C28.8405 14.4637 27.7277 14.1481 26.7672 13.5621C26.5553 13.4333 26.489 13.1564 26.6281 12.9503C26.7606 12.7442 27.0454 12.6863 27.2574 12.8151C28.0721 13.3174 29.0127 13.5814 29.9864 13.5814C32.8015 13.5814 35.0933 11.3533 35.0933 8.61637C35.0933 5.87948 32.8015 3.65133 29.9864 3.65133C29.1518 3.65133 28.3238 3.85097 27.5886 4.23091C27.476 4.28887 27.3435 4.30175 27.2177 4.25667C27.0984 4.21159 26.9991 4.12143 26.9527 4.00552C26.1711 2.11224 24.3098 0.895124 22.2101 0.895124C20.1104 0.895124 18.2557 2.11867 17.4675 4.00552C17.4212 4.12143 17.3218 4.21159 17.2026 4.25667C17.0833 4.30175 16.9442 4.28887 16.8316 4.23091C16.0964 3.85097 15.2684 3.65133 14.4339 3.65133C11.6188 3.65133 9.32695 5.87948 9.32695 8.61637C9.32695 11.3533 11.6188 13.5814 14.4339 13.5814C15.8646 13.5814 17.1893 13.0212 18.163 12.0037C18.3352 11.8234 18.62 11.8169 18.8055 11.9844C18.991 12.1518 18.9976 12.4287 18.8254 12.609C17.6927 13.7875 16.0898 14.4637 14.4272 14.4637C11.1087 14.4637 8.40625 11.8362 8.40625 8.60993C8.40625 5.38362 11.1087 2.75621 14.4272 2.75621C15.2486 2.75621 16.0633 2.92364 16.8184 3.23919C17.8318 1.25575 19.8984 0 22.2035 0C24.5086 0 26.5752 1.25575 27.5886 3.23919C28.3371 2.92364 29.1584 2.75621 29.9798 2.75621C33.2982 2.75621 36.0007 5.38362 36.0007 8.60993C36.0007 11.8362 33.2982 14.4637 29.9798 14.4637V14.4637Z" fill="white"/>
<path d="M12.91 18.2051H11.3203C11.0686 18.2051 10.8633 18.0055 10.8633 17.7607C10.8633 17.516 11.0686 17.3164 11.3203 17.3164H12.91C13.1617 17.3164 13.3671 17.516 13.3671 17.7607C13.3671 18.0055 13.1617 18.2051 12.91 18.2051Z" fill="white"/>
<path d="M9.02229 18.2051H6.73047C6.47877 18.2051 6.27344 18.0055 6.27344 17.7607C6.27344 17.516 6.47877 17.3164 6.73047 17.3164H9.02229C9.27399 17.3164 9.47933 17.516 9.47933 17.7607C9.47933 18.0055 9.27399 18.2051 9.02229 18.2051V18.2051Z" fill="white"/>
<path d="M4.43736 18.2051H2.84766C2.59596 18.2051 2.39062 18.0055 2.39062 17.7607C2.39062 17.516 2.59596 17.3164 2.84766 17.3164H4.43736C4.68906 17.3164 4.8944 17.516 4.8944 17.7607C4.8944 18.0055 4.68906 18.2051 4.43736 18.2051V18.2051Z" fill="white"/>
<path d="M7.25316 11.6875H6.34571C6.09401 11.6875 5.88867 11.4879 5.88867 11.2432C5.88867 10.9985 6.09401 10.7988 6.34571 10.7988H7.25316C7.50486 10.7988 7.7102 10.9985 7.7102 11.2432C7.7102 11.4879 7.50486 11.6875 7.25316 11.6875Z" fill="white"/>
<path d="M4.6972 11.6875H3.59766C3.34596 11.6875 3.14062 11.4879 3.14062 11.2432C3.14062 10.9985 3.34596 10.7988 3.59766 10.7988H4.6972C4.94891 10.7988 5.15424 10.9985 5.15424 11.2432C5.15424 11.4879 4.94891 11.6875 4.6972 11.6875Z" fill="white"/>
<path d="M1.94143 11.6875H1.02735C0.775648 11.6875 0.570312 11.4879 0.570312 11.2432C0.570312 10.9985 0.775648 10.7988 1.02735 10.7988H1.9348C2.1865 10.7988 2.39184 10.9985 2.39184 11.2432C2.39184 11.4879 2.1865 11.6875 1.9348 11.6875H1.94143Z" fill="white"/>
<path d="M7.25316 5.16408H6.34571C6.09401 5.16408 5.88867 4.96444 5.88867 4.71973C5.88867 4.47502 6.09401 4.27539 6.34571 4.27539H7.25316C7.50486 4.27539 7.7102 4.47502 7.7102 4.71973C7.7102 4.96444 7.50486 5.16408 7.25316 5.16408Z" fill="white"/>
<path d="M4.47769 5.16408H3.23243C2.98073 5.16408 2.77539 4.96444 2.77539 4.71973C2.77539 4.47502 2.98073 4.27539 3.23243 4.27539H4.47769C4.72939 4.27539 4.93473 4.47502 4.93473 4.71973C4.93473 4.96444 4.72939 5.16408 4.47769 5.16408Z" fill="white"/>
<path d="M1.36449 5.16408H0.457038C0.205336 5.16408 0 4.96444 0 4.71973C0 4.47502 0.205336 4.27539 0.457038 4.27539H1.36449C1.61619 4.27539 1.82153 4.47502 1.82153 4.71973C1.82153 4.96444 1.61619 5.16408 1.36449 5.16408Z" fill="white"/>
<path d="M23.5082 17.2461H15.8379C15.5862 17.2461 15.3809 17.0465 15.3809 16.8018C15.3809 16.5571 15.5862 16.3574 15.8379 16.3574H23.5082C23.7599 16.3574 23.9652 16.5571 23.9652 16.8018C23.9652 17.0465 23.7599 17.2461 23.5082 17.2461Z" fill="white"/>
</svg>
