<svg width="31" height="33" viewBox="0 0 31 33" fill="none" xmlns="http://www.w3.org/2000/svg">
<path d="M7.25316 23.6875H6.34571C6.09401 23.6875 5.88867 23.4879 5.88867 23.2432C5.88867 22.9985 6.09401 22.7988 6.34571 22.7988H7.25316C7.50486 22.7988 7.7102 22.9985 7.7102 23.2432C7.7102 23.4879 7.50486 23.6875 7.25316 23.6875Z" fill="white"/>
<path d="M4.6972 23.6875H3.59766C3.34596 23.6875 3.14062 23.4879 3.14062 23.2432C3.14062 22.9985 3.34596 22.7988 3.59766 22.7988H4.6972C4.9489 22.7988 5.15424 22.9985 5.15424 23.2432C5.15424 23.4879 4.9489 23.6875 4.6972 23.6875Z" fill="white"/>
<path d="M1.94143 23.6875H1.02735C0.775648 23.6875 0.570312 23.4879 0.570312 23.2432C0.570312 22.9985 0.775648 22.7988 1.02735 22.7988H1.9348C2.1865 22.7988 2.39184 22.9985 2.39184 23.2432C2.39184 23.4879 2.1865 23.6875 1.9348 23.6875H1.94143Z" fill="white"/>
<path d="M7.25316 9.68751H6.34571C6.09401 9.68751 5.88867 9.48788 5.88867 9.24317C5.88867 8.99846 6.09401 8.79883 6.34571 8.79883H7.25316C7.50486 8.79883 7.7102 8.99846 7.7102 9.24317C7.7102 9.48788 7.50486 9.68751 7.25316 9.68751Z" fill="white"/>
<path d="M4.6972 9.68751H3.59766C3.34596 9.68751 3.14062 9.48788 3.14062 9.24317C3.14062 8.99846 3.34596 8.79883 3.59766 8.79883H4.6972C4.9489 8.79883 5.15424 8.99846 5.15424 9.24317C5.15424 9.48788 4.9489 9.68751 4.6972 9.68751Z" fill="white"/>
<path d="M1.94143 9.68751H1.02735C0.775648 9.68751 0.570312 9.48788 0.570312 9.24317C0.570312 8.99846 0.775648 8.79883 1.02735 8.79883H1.9348C2.1865 8.79883 2.39184 8.99846 2.39184 9.24317C2.39184 9.48788 2.1865 9.68751 1.9348 9.68751H1.94143Z" fill="white"/>
<path d="M10.2532 16.6875H9.34571C9.09401 16.6875 8.88867 16.4879 8.88867 16.2432C8.88867 15.9985 9.09401 15.7988 9.34571 15.7988H10.2532C10.5049 15.7988 10.7102 15.9985 10.7102 16.2432C10.7102 16.4879 10.5049 16.6875 10.2532 16.6875Z" fill="white"/>
<path d="M7.6972 16.6875H6.59766C6.34596 16.6875 6.14062 16.4879 6.14062 16.2432C6.14062 15.9985 6.34596 15.7988 6.59766 15.7988H7.6972C7.9489 15.7988 8.15424 15.9985 8.15424 16.2432C8.15424 16.4879 7.9489 16.6875 7.6972 16.6875Z" fill="white"/>
<path d="M4.94143 16.6875H4.02735C3.77565 16.6875 3.57031 16.4879 3.57031 16.2432C3.57031 15.9985 3.77565 15.7988 4.02735 15.7988H4.9348C5.1865 15.7988 5.39184 15.9985 5.39184 16.2432C5.39184 16.4879 5.1865 16.6875 4.9348 16.6875H4.94143Z" fill="white"/>
<path d="M28.3899 33H13.6101C12.172 33 11 31.8451 11 30.4279V2.57208C11 1.15494 12.172 0 13.6101 0H28.3899C29.828 0 31 1.15494 31 2.57208V30.4279C31 31.8451 29.828 33 28.3899 33ZM13.6101 0.855278C12.6535 0.855278 11.8679 1.62316 11.8679 2.57208V30.4279C11.8679 31.3706 12.6471 32.1447 13.6101 32.1447H28.3899C29.3465 32.1447 30.1321 31.3768 30.1321 30.4279V2.57208C30.1321 1.6294 29.3529 0.855278 28.3899 0.855278H13.6101Z" fill="white"/>
<path d="M27.9146 31.807H14.085C13.1474 31.807 12.3809 31.0516 12.3809 30.1276V4.00107C12.3809 3.76384 12.5772 3.57031 12.818 3.57031C13.0587 3.57031 13.2551 3.76384 13.2551 4.00107V30.1276C13.2551 30.5834 13.6289 30.9455 14.085 30.9455H27.9146C28.3771 30.9455 28.7445 30.5771 28.7445 30.1276V4.00107C28.7445 3.76384 28.9409 3.57031 29.1816 3.57031C29.4224 3.57031 29.6187 3.76384 29.6187 4.00107V30.1276C29.6187 31.0516 28.8522 31.807 27.9146 31.807Z" fill="white"/>
<path d="M24.8298 3.2588H17.1706C16.6892 3.2588 16.3027 2.87174 16.3027 2.40352V0.430761C16.3027 0.19353 16.4991 0 16.7399 0H25.2669C25.5077 0 25.7041 0.19353 25.7041 0.430761V2.40352C25.7041 2.87798 25.3113 3.2588 24.8362 3.2588H24.8298ZM17.1706 0.855278V2.40352H24.8298V0.855278H17.1706Z" fill="white"/>
<path d="M22.1237 14.4344H19.9508C19.7101 14.4344 19.5137 14.2409 19.5137 14.0037V8.71592C19.5137 8.47869 19.7101 8.28516 19.9508 8.28516H22.1237C22.3645 8.28516 22.5609 8.47869 22.5609 8.71592V14.0037C22.5609 14.2409 22.3645 14.4344 22.1237 14.4344ZM20.3816 13.5791H21.6866V9.14668H20.3816V13.5791Z" fill="white"/>
<path d="M22.1237 14.4344H19.9508C19.7101 14.4344 19.5137 14.2409 19.5137 14.0037V8.71592C19.5137 8.47869 19.7101 8.28516 19.9508 8.28516H22.1237C22.3645 8.28516 22.5609 8.47869 22.5609 8.71592V14.0037C22.5609 14.2409 22.3645 14.4344 22.1237 14.4344ZM20.3816 13.5791H21.6866V9.14668H20.3816V13.5791Z" fill="white"/>
<path d="M19.9519 14.4336H16.911C15.6567 14.4336 14.6367 13.4285 14.6367 12.1924C14.6367 10.9563 15.6567 9.95117 16.911 9.95117H19.9519C20.1926 9.95117 20.389 10.1447 20.389 10.3819V14.0028C20.389 14.24 20.1926 14.4336 19.9519 14.4336ZM16.911 10.8127C16.1381 10.8127 15.511 11.4307 15.511 12.1924C15.511 12.954 16.1381 13.5721 16.911 13.5721H19.5211V10.8064H16.911V10.8127Z" fill="white"/>
<path d="M25.0953 14.4336H22.1305C21.8897 14.4336 21.6934 14.24 21.6934 14.0028V10.3819C21.6934 10.1447 21.8897 9.95117 22.1305 9.95117H25.0953C26.3497 9.95117 27.3696 10.9563 27.3696 12.1924C27.3696 13.4285 26.3497 14.4336 25.0953 14.4336ZM22.5613 13.5783H25.0953C25.8682 13.5783 26.4954 12.9603 26.4954 12.1986C26.4954 11.437 25.8682 10.8189 25.0953 10.8189H22.5613V13.5845V13.5783Z" fill="white"/>
<path d="M15.0931 12.8733C15.0045 12.8733 14.9094 12.8483 14.8334 12.7922C14.1872 12.3239 13.8008 11.5748 13.8008 10.7882C13.8008 9.41474 14.9348 8.29102 16.3348 8.29102H19.9522C20.1929 8.29102 20.3893 8.48455 20.3893 8.72178V10.3886C20.3893 10.6259 20.1929 10.8194 19.9522 10.8194H16.9113C16.1384 10.8194 15.5113 11.4374 15.5113 12.1991C15.5113 12.2615 15.5176 12.3302 15.5239 12.3926C15.5493 12.5612 15.4669 12.7297 15.3149 12.8171C15.2452 12.8546 15.1692 12.8796 15.0931 12.8796V12.8733ZM16.3348 9.14629C15.4162 9.14629 14.675 9.88296 14.675 10.7819C14.675 10.9942 14.713 11.2002 14.7891 11.3875C15.1185 10.5509 15.9421 9.95163 16.9113 9.95163H19.5214V9.14629H16.3348Z" fill="white"/>
<path d="M26.9135 12.8737C26.8375 12.8737 26.7615 12.855 26.6918 12.8113C26.5397 12.7239 26.4574 12.5553 26.4827 12.3867C26.4891 12.3243 26.4954 12.2619 26.4954 12.1932C26.4954 11.4316 25.8682 10.8135 25.0953 10.8135H22.1305C21.8897 10.8135 21.6934 10.62 21.6934 10.3828V8.71592C21.6934 8.47869 21.8897 8.28516 22.1305 8.28516H25.6718C27.0655 8.28516 28.2059 9.40264 28.2059 10.7823C28.2059 11.5689 27.8194 12.3181 27.1732 12.7863C27.0972 12.8425 27.0085 12.8674 26.9135 12.8674V12.8737ZM22.5613 9.95201H25.0953C26.0583 9.95201 26.8882 10.5451 27.2176 11.3879C27.2936 11.2006 27.3316 10.9946 27.3316 10.7823C27.3316 9.8771 26.5841 9.14668 25.6718 9.14668H22.5613V9.95201Z" fill="white"/>
<path d="M16.6578 13.0533C16.4108 13.0533 16.2207 12.8535 16.2207 12.6163V12.2542C16.2334 12.017 16.4361 11.8484 16.6705 11.8359C16.9112 11.8359 17.1013 12.0357 17.095 12.2729V12.635C17.0823 12.866 16.8922 13.0533 16.6515 13.0533H16.6578Z" fill="white"/>
<path d="M23.7724 11.9553H23.4176C23.1769 11.9553 22.9805 11.7617 22.9805 11.5245C22.9805 11.2873 23.1769 11.0938 23.4176 11.0938H23.7724C24.0131 11.0938 24.2095 11.2873 24.2095 11.5245C24.2095 11.7617 24.0131 11.9553 23.7724 11.9553Z" fill="white"/>
<path d="M25.4195 12.7971C25.1788 12.7971 24.9824 12.6035 24.9824 12.3663V12.0167C24.9824 11.7795 25.1788 11.5859 25.4195 11.5859C25.6603 11.5859 25.8567 11.7795 25.8567 12.0167V12.3663C25.8567 12.6035 25.6603 12.7971 25.4195 12.7971Z" fill="white"/>
<path d="M24.1324 13.4475C23.8917 13.4475 23.6953 13.2539 23.6953 13.0167V12.6671C23.6953 12.4299 23.8917 12.2363 24.1324 12.2363C24.3732 12.2363 24.5696 12.4299 24.5696 12.6671V13.0167C24.5696 13.2539 24.3732 13.4475 24.1324 13.4475Z" fill="white"/>
<path d="M18.5582 13.51C18.3175 13.51 18.1211 13.3164 18.1211 13.0792V12.7296C18.1211 12.4924 18.3175 12.2988 18.5582 12.2988C18.799 12.2988 18.9953 12.4924 18.9953 12.7296V13.0792C18.9953 13.3164 18.799 13.51 18.5582 13.51Z" fill="white"/>
<path d="M18.5575 11.9553H18.2027C17.962 11.9553 17.7656 11.7617 17.7656 11.5245C17.7656 11.2873 17.962 11.0938 18.2027 11.0938H18.5575C18.7983 11.0938 18.9946 11.2873 18.9946 11.5245C18.9946 11.7617 18.7983 11.9553 18.5575 11.9553Z" fill="white"/>
<path d="M17.3102 10.8135C17.0694 10.8135 16.873 10.62 16.873 10.3828V8.71592C16.873 8.47869 17.0694 8.28516 17.3102 8.28516C17.5509 8.28516 17.7473 8.47869 17.7473 8.71592V10.3828C17.7473 10.62 17.5509 10.8135 17.3102 10.8135Z" fill="white"/>
<path d="M24.8356 10.8135C24.5948 10.8135 24.3984 10.62 24.3984 10.3828V8.71592C24.3984 8.47869 24.5948 8.28516 24.8356 8.28516C25.0763 8.28516 25.2727 8.47869 25.2727 8.71592V10.3828C25.2727 10.62 25.0763 10.8135 24.8356 10.8135Z" fill="white"/>
<path d="M22.5 21L19.4 24.4083L18.5 23.725H18L19.4 26L21.2 23.5L23 21H22.5Z" fill="white"/>
<rect x="15.5" y="17.5" width="11" height="11" rx="5.5" stroke="white"/>
</svg>
