<svg width="38" height="18" viewBox="0 0 38 18" fill="none" xmlns="http://www.w3.org/2000/svg">
<path d="M8.68285 9.88868H7.7754C7.52369 9.88868 7.31836 9.68905 7.31836 9.44434C7.31836 9.19963 7.52369 9 7.7754 9H8.68285C8.93455 9 9.13989 9.19963 9.13989 9.44434C9.13989 9.68905 8.93455 9.88868 8.68285 9.88868Z" fill="#455A64"/>
<path d="M6.12689 9.88868H5.02735C4.77565 9.88868 4.57031 9.68905 4.57031 9.44434C4.57031 9.19963 4.77565 9 5.02735 9H6.12689C6.37859 9 6.58393 9.19963 6.58393 9.44434C6.58393 9.68905 6.37859 9.88868 6.12689 9.88868Z" fill="#455A64"/>
<path d="M3.37111 9.88868H2.45704C2.20534 9.88868 2 9.68905 2 9.44434C2 9.19963 2.20534 9 2.45704 9H3.36449C3.61619 9 3.82153 9.19963 3.82153 9.44434C3.82153 9.68905 3.61619 9.88868 3.36449 9.88868H3.37111Z" fill="#455A64"/>
<path d="M11.6828 13.8887H10.7754C10.5237 13.8887 10.3184 13.6891 10.3184 13.4443C10.3184 13.1996 10.5237 13 10.7754 13H11.6828C11.9346 13 12.1399 13.1996 12.1399 13.4443C12.1399 13.6891 11.9346 13.8887 11.6828 13.8887Z" fill="#455A64"/>
<path d="M9.12689 13.8887H8.02735C7.77565 13.8887 7.57031 13.6891 7.57031 13.4443C7.57031 13.1996 7.77565 13 8.02735 13H9.12689C9.37859 13 9.58393 13.1996 9.58393 13.4443C9.58393 13.6891 9.37859 13.8887 9.12689 13.8887Z" fill="#455A64"/>
<path d="M6.37111 13.8887H5.45704C5.20534 13.8887 5 13.6891 5 13.4443C5 13.1996 5.20534 13 5.45704 13H6.36449C6.61619 13 6.82153 13.1996 6.82153 13.4443C6.82153 13.6891 6.61619 13.8887 6.36449 13.8887H6.37111Z" fill="#455A64"/>
<path d="M6.68285 5.88868H5.7754C5.52369 5.88868 5.31836 5.68905 5.31836 5.44434C5.31836 5.19963 5.52369 5 5.7754 5H6.68285C6.93455 5 7.13989 5.19963 7.13989 5.44434C7.13989 5.68905 6.93455 5.88868 6.68285 5.88868Z" fill="#455A64"/>
<path d="M4.12689 5.88868H3.02735C2.77565 5.88868 2.57031 5.68905 2.57031 5.44434C2.57031 5.19963 2.77565 5 3.02735 5H4.12689C4.37859 5 4.58393 5.19963 4.58393 5.44434C4.58393 5.68905 4.37859 5.88868 4.12689 5.88868Z" fill="#455A64"/>
<path d="M1.37111 5.88868H0.457038C0.205336 5.88868 0 5.68905 0 5.44434C0 5.19963 0.205336 5 0.457038 5H1.36449C1.61619 5 1.82153 5.19963 1.82153 5.44434C1.82153 5.68905 1.61619 5.88868 1.36449 5.88868H1.37111Z" fill="#455A64"/>
<path d="M34.0544 17.9994C31.8828 17.9994 30.1133 16.1554 30.1133 13.8923C30.1133 11.6292 31.8828 9.78516 34.0544 9.78516C36.226 9.78516 37.9955 11.6292 37.9955 13.8923C37.9955 16.1554 36.226 17.9994 34.0544 17.9994ZM34.0544 10.5029C32.2598 10.5029 30.802 12.0221 30.802 13.8923C30.802 15.7625 32.2598 17.2817 34.0544 17.2817C35.849 17.2817 37.3068 15.7625 37.3068 13.8923C37.3068 12.0221 35.849 10.5029 34.0544 10.5029Z" fill="#455A64"/>
<path d="M17.4138 17.9994C15.2421 17.9994 13.4727 16.1554 13.4727 13.8923C13.4727 11.6292 15.2421 9.78516 17.4138 9.78516C19.5854 9.78516 21.3549 11.6292 21.3549 13.8923C21.3549 16.1554 19.5854 17.9994 17.4138 17.9994ZM17.4138 10.5029C15.6192 10.5029 14.1613 12.0221 14.1613 13.8923C14.1613 15.7625 15.6192 17.2817 17.4138 17.2817C19.2084 17.2817 20.6662 15.7625 20.6662 13.8923C20.6662 12.0221 19.2084 10.5029 17.4138 10.5029Z" fill="#455A64"/>
<path d="M30.5507 4.81956C29.2738 4.81956 28.2383 3.7404 28.2383 2.40978C28.2383 1.07916 29.2738 0 30.5507 0C30.7417 0 30.8975 0.162398 30.8975 0.361467V4.46333C30.8975 4.6624 30.7417 4.8248 30.5507 4.8248V4.81956ZM30.2038 0.754366C29.4749 0.922002 28.927 1.59779 28.927 2.40454C28.927 3.21129 29.4749 3.89232 30.2038 4.05471V0.759604V0.754366Z" fill="#455A64"/>
<path d="M30.55 4.5686C30.359 4.5686 30.2031 4.4062 30.2031 4.20713V0.61342C30.2031 0.414351 30.359 0.251953 30.55 0.251953C31.6911 0.251953 32.6211 1.2211 32.6211 2.41028C32.6211 3.59945 31.6911 4.5686 30.55 4.5686ZM30.8968 1.02203V3.80376C31.49 3.64136 31.9324 3.08082 31.9324 2.41028C31.9324 1.73973 31.49 1.17919 30.8968 1.0168V1.02203Z" fill="#455A64"/>
<path d="M34.0544 17.9994C31.8828 17.9994 30.1133 16.1554 30.1133 13.8923C30.1133 11.6292 31.8828 9.78516 34.0544 9.78516C36.226 9.78516 37.9955 11.6292 37.9955 13.8923C37.9955 16.1554 36.226 17.9994 34.0544 17.9994ZM34.0544 10.5029C32.2598 10.5029 30.802 12.0221 30.802 13.8923C30.802 15.7625 32.2598 17.2817 34.0544 17.2817C35.849 17.2817 37.3068 15.7625 37.3068 13.8923C37.3068 12.0221 35.849 10.5029 34.0544 10.5029Z" fill="#455A64"/>
<path d="M34.0537 15.9095C32.9829 15.9095 32.1133 15.0032 32.1133 13.8874C32.1133 12.7715 32.9829 11.8652 34.0537 11.8652C35.1244 11.8652 35.9941 12.7715 35.9941 13.8874C35.9941 15.0032 35.1244 15.9095 34.0537 15.9095ZM34.0537 12.5829C33.365 12.5829 32.802 13.1697 32.802 13.8874C32.802 14.605 33.365 15.1918 34.0537 15.1918C34.7424 15.1918 35.3054 14.605 35.3054 13.8874C35.3054 13.1697 34.7424 12.5829 34.0537 12.5829Z" fill="#455A64"/>
<path d="M34.0537 15.9095C32.9829 15.9095 32.1133 15.0032 32.1133 13.8874C32.1133 12.7715 32.9829 11.8652 34.0537 11.8652C35.1244 11.8652 35.9941 12.7715 35.9941 13.8874C35.9941 15.0032 35.1244 15.9095 34.0537 15.9095ZM34.0537 12.5829C33.365 12.5829 32.802 13.1697 32.802 13.8874C32.802 14.605 33.365 15.1918 34.0537 15.1918C34.7424 15.1918 35.3054 14.605 35.3054 13.8874C35.3054 13.1697 34.7424 12.5829 34.0537 12.5829Z" fill="#455A64"/>
<path d="M17.4502 15.9095C16.3794 15.9095 15.5098 15.0032 15.5098 13.8874C15.5098 12.7715 16.3794 11.8652 17.4502 11.8652C18.5209 11.8652 19.3906 12.7715 19.3906 13.8874C19.3906 15.0032 18.5209 15.9095 17.4502 15.9095ZM17.4502 12.5829C16.7615 12.5829 16.1985 13.1697 16.1985 13.8874C16.1985 14.605 16.7615 15.1918 17.4502 15.1918C18.1388 15.1918 18.7019 14.605 18.7019 13.8874C18.7019 13.1697 18.1388 12.5829 17.4502 12.5829Z" fill="#455A64"/>
<path d="M17.4138 17.9994C15.2421 17.9994 13.4727 16.1554 13.4727 13.8923C13.4727 11.6292 15.2421 9.78516 17.4138 9.78516C19.5854 9.78516 21.3549 11.6292 21.3549 13.8923C21.3549 16.1554 19.5854 17.9994 17.4138 17.9994ZM17.4138 10.5029C15.6192 10.5029 14.1613 12.0221 14.1613 13.8923C14.1613 15.7625 15.6192 17.2817 17.4138 17.2817C19.2084 17.2817 20.6662 15.7625 20.6662 13.8923C20.6662 12.0221 19.2084 10.5029 17.4138 10.5029Z" fill="#455A64"/>
<path d="M30.4602 14.3749H21.0095C20.914 14.3749 20.8286 14.333 20.7632 14.2649C20.6979 14.1968 20.6627 14.1025 20.6677 14.0029V13.8877C20.6677 12.0175 19.2099 10.4983 17.4203 10.4983C16.2792 10.4983 15.2085 11.1374 14.6203 12.1589C14.5499 12.2847 14.4142 12.3528 14.2785 12.3318C14.1427 12.3161 14.0271 12.2113 13.9919 12.0751L13.6752 10.9436C13.6652 10.9121 13.6602 10.8755 13.6602 10.844V6.92553C13.6602 6.72647 13.816 6.56407 14.007 6.56407H22.7488C22.9399 6.56407 23.0957 6.72647 23.0957 6.92553V10.6031C23.0957 11.2527 23.6034 11.7818 24.2268 11.7818H28.3137C28.6354 11.7818 28.937 11.6456 29.1532 11.3941C29.3693 11.1426 29.4698 10.8231 29.4397 10.4878L28.7912 3.86616C28.7761 3.71424 28.8566 3.56756 28.9873 3.5047C29.123 3.44183 29.2788 3.47326 29.3794 3.58328C29.691 3.91855 30.1032 4.10714 30.5506 4.10714H30.6663C31.6264 4.10714 32.491 4.66244 32.9234 5.55301L35.1101 10.0635C35.1704 10.1892 35.1553 10.3359 35.0749 10.4459C34.9944 10.5559 34.8587 10.6083 34.728 10.5769C34.5068 10.5297 34.2756 10.5035 34.0494 10.5035C32.2548 10.5035 30.797 12.0227 30.797 13.8929V13.982C30.802 14.0815 30.7668 14.1863 30.7015 14.2596C30.6361 14.333 30.5456 14.3854 30.4551 14.3854L30.4602 14.3749ZM21.3463 13.6572H30.1183C30.239 11.4465 32.0537 9.70726 34.2052 9.78584L32.3101 5.87257C31.9934 5.22297 31.365 4.8196 30.6663 4.8196H30.5506C30.1988 4.8196 29.862 4.74102 29.5503 4.58386L30.1183 10.4145C30.1686 10.9488 30.0027 11.4779 29.6558 11.8761C29.314 12.2742 28.8214 12.4995 28.3036 12.4995H24.2167C23.2113 12.4995 22.397 11.6508 22.397 10.6031V7.28176H14.3438V10.7864L14.4544 11.1688C15.1984 10.294 16.2792 9.77012 17.4153 9.77012C19.5165 9.77012 21.2357 11.4884 21.3514 13.6467L21.3463 13.6572Z" fill="#455A64"/>
<path d="M24.1163 7.28721H19.0291C18.4862 7.28721 18.0488 6.82621 18.0488 6.26568C18.0488 5.70514 18.4912 5.24414 19.0291 5.24414H24.1163C24.6592 5.24414 25.0966 5.70514 25.0966 6.26568C25.0966 6.82621 24.6542 7.28721 24.1163 7.28721ZM19.0291 5.96184C18.8682 5.96184 18.7375 6.09804 18.7375 6.26568C18.7375 6.43331 18.8682 6.56952 19.0291 6.56952H24.1163C24.2772 6.56952 24.4079 6.43331 24.4079 6.26568C24.4079 6.09804 24.2772 5.96184 24.1163 5.96184H19.0291Z" fill="#455A64"/>
<path d="M26.7898 3.41612C26.6691 3.41612 26.5485 3.34802 26.4881 3.22753C26.3977 3.05465 26.463 2.83463 26.6289 2.74034L28.4587 1.71356C28.6246 1.61926 28.8357 1.68213 28.9262 1.86024C29.0167 2.03312 28.9513 2.25314 28.7854 2.34744L26.9556 3.37421C26.9054 3.40564 26.8501 3.41612 26.7948 3.41612H26.7898Z" fill="#455A64"/>
<path d="M31.8973 9.83737C31.7566 9.83737 31.6309 9.74832 31.5756 9.60687L30.6255 7.05565C30.5551 6.8723 30.6456 6.66275 30.8216 6.58941C30.9975 6.51607 31.1986 6.61037 31.269 6.79372L32.219 9.34494C32.2894 9.52829 32.1989 9.73784 32.023 9.81118C31.9828 9.8269 31.9375 9.83737 31.8973 9.83737Z" fill="#455A64"/>
<path d="M22.7486 8.93192H18.5461C18.3551 8.93192 18.1992 8.76952 18.1992 8.57045C18.1992 8.37138 18.3551 8.20898 18.5461 8.20898H22.7486C22.9396 8.20898 23.0954 8.37138 23.0954 8.57045C23.0954 8.76952 22.9396 8.93192 22.7486 8.93192Z" fill="#455A64"/>
<path d="M16.782 7.28739H11.7551C11.564 7.28739 11.4082 7.12499 11.4082 6.92592C11.4082 6.72685 11.564 6.56445 11.7551 6.56445H16.782C16.973 6.56445 17.1288 6.72685 17.1288 6.92592C17.1288 7.12499 16.973 7.28739 16.782 7.28739Z" fill="#455A64"/>
<path d="M17.2689 7.28764H10.3469C10.1558 7.28764 10 7.12524 10 6.92617V5.75795C10 5.55888 10.1558 5.39648 10.3469 5.39648H17.2689C17.46 5.39648 17.6158 5.55888 17.6158 5.75795V6.92617C17.6158 7.12524 17.46 7.28764 17.2689 7.28764ZM10.6887 6.56994H16.9271V6.11942H10.6887V6.56994Z" fill="#455A64"/>
<path d="M17.5853 6.11967H10.6633C10.4722 6.11967 10.3164 5.95727 10.3164 5.7582V4.58998C10.3164 4.39091 10.4722 4.22852 10.6633 4.22852H17.5853C17.7764 4.22852 17.9322 4.39091 17.9322 4.58998V5.7582C17.9322 5.95727 17.7764 6.11967 17.5853 6.11967ZM11.0051 5.40197H17.2435V4.95145H11.0051V5.40197Z" fill="#455A64"/>
<path d="M17.2689 4.94975H10.3469C10.1558 4.94975 10 4.78735 10 4.58828V3.42006C10 3.22099 10.1558 3.05859 10.3469 3.05859H17.2689C17.46 3.05859 17.6158 3.22099 17.6158 3.42006V4.58828C17.6158 4.78735 17.46 4.94975 17.2689 4.94975ZM10.6887 4.23205H16.9271V3.78153H10.6887V4.23205Z" fill="#455A64"/>
<path d="M17.5853 3.78178H10.6633C10.4722 3.78178 10.3164 3.61938 10.3164 3.42031V2.25209C10.3164 2.05302 10.4722 1.89062 10.6633 1.89062H17.5853C17.7764 1.89062 17.9322 2.05302 17.9322 2.25209V3.42031C17.9322 3.61938 17.7764 3.78178 17.5853 3.78178ZM11.0051 3.06408H17.2435V2.61356H11.0051V3.06408Z" fill="#455A64"/>
<path d="M17.2689 2.61443H10.3469C10.1558 2.61443 10 2.45203 10 2.25296V1.08998C10 0.890914 10.1558 0.728516 10.3469 0.728516H17.2689C17.46 0.728516 17.6158 0.890914 17.6158 1.08998V2.2582C17.6158 2.45727 17.46 2.61967 17.2689 2.61967V2.61443ZM10.6887 1.89673H16.9271V1.44621H10.6887V1.89673Z" fill="#455A64"/>
<path d="M37.2959 18.0003H10.6633C10.4722 18.0003 10.3164 17.8379 10.3164 17.6388C10.3164 17.4397 10.4722 17.2773 10.6633 17.2773H37.2959C37.487 17.2773 37.6428 17.4397 37.6428 17.6388C37.6428 17.8379 37.487 18.0003 37.2959 18.0003Z" fill="#455A64"/>
</svg>
