<svg width="14" height="14" viewBox="0 0 14 14" fill="none" xmlns="http://www.w3.org/2000/svg">
<path d="M13.2919 0.708098C13.0674 0.483603 12.8009 0.305524 12.5076 0.184029C12.2142 0.0625331 11.8998 0 11.5824 0C11.2649 0 10.9505 0.0625331 10.6572 0.184029C10.3638 0.305524 10.0973 0.483603 9.87283 0.708098L1.4134 9.16911C1.14674 9.43573 0.956691 9.76916 0.863163 10.1345L0.01365 13.454C-0.00516966 13.5276 -0.00451861 13.6048 0.0155392 13.678C0.0355971 13.7513 0.0743712 13.818 0.128049 13.8718C0.181726 13.9255 0.248459 13.9643 0.321685 13.9844C0.394911 14.0045 0.47211 14.0052 0.54569 13.9864L3.86639 13.1376C4.23195 13.0442 4.56564 12.8542 4.83246 12.5874L13.2919 4.12708C13.5164 3.90259 13.6945 3.63608 13.816 3.34276C13.9375 3.04945 14 2.73507 14 2.41759C14 2.10011 13.9375 1.78574 13.816 1.49242C13.6945 1.1991 13.5164 0.932591 13.2919 0.708098ZM10.4917 1.32693C10.7809 1.03762 11.1733 0.875075 11.5824 0.875042C11.9915 0.875009 12.3839 1.0375 12.6732 1.32676C12.9625 1.61602 13.1251 2.00836 13.1251 2.41747C13.1251 2.82658 12.9627 3.21894 12.6734 3.50825L11.9009 4.28074L9.71952 2.09942L10.4917 1.32693ZM9.10068 2.71826L11.282 4.89958L4.21361 11.9686C4.05788 12.1243 3.86311 12.2353 3.64972 12.2899L1.04448 12.956L1.71093 10.3511C1.76553 10.1376 1.87649 9.943 2.0319 9.78759L9.10068 2.71826Z" fill="black"/>
</svg>
