<svg width="14" height="14" viewBox="0 0 14 14" fill="none" xmlns="http://www.w3.org/2000/svg">
<path d="M7.04395 3.9375C5.3377 3.9375 3.98145 5.29375 3.98145 7C3.98145 8.70625 5.3377 10.0625 7.04395 10.0625C8.7502 10.0625 10.1064 8.70625 10.1064 7C10.1064 5.29375 8.7502 3.9375 7.04395 3.9375ZM7.04395 9.1875C5.81895 9.1875 4.85645 8.225 4.85645 7C4.85645 5.775 5.81895 4.8125 7.04395 4.8125C8.26895 4.8125 9.23145 5.775 9.23145 7C9.23145 8.225 8.26895 9.1875 7.04395 9.1875Z" fill="white"/>
<path d="M13.475 5.55625L12.25 5.1625L11.9875 4.50625L12.6 3.36875C12.7312 3.10625 12.6875 2.75625 12.4688 2.5375L11.4187 1.4875C11.2 1.26875 10.85 1.225 10.5875 1.35625L9.45 1.96875L8.79375 1.70625L8.4 0.48125C8.3125 0.21875 8.05 0 7.74375 0H6.25625C5.95 0 5.6875 0.21875 5.64375 0.525L5.25 1.75C4.9875 1.79375 4.76875 1.88125 4.55 2.0125L3.4125 1.4C3.15 1.26875 2.8 1.3125 2.58125 1.53125L1.53125 2.58125C1.3125 2.8 1.26875 3.15 1.4 3.4125L1.96875 4.50625C1.88125 4.725 1.79375 4.9875 1.70625 5.20625L0.48125 5.6C0.21875 5.6875 0 5.95 0 6.25625V7.74375C0 8.05 0.21875 8.3125 0.525 8.4L1.75 8.79375L2.0125 9.45L1.4 10.5875C1.26875 10.85 1.3125 11.2 1.53125 11.4187L2.58125 12.4688C2.8 12.6875 3.15 12.7312 3.4125 12.6L4.55 11.9875L5.20625 12.25L5.6 13.5188C5.6875 13.7813 5.95 14 6.25625 14H7.74375C8.05 14 8.3125 13.7813 8.4 13.5188L8.79375 12.25L9.45 11.9875L10.5875 12.6C10.85 12.7312 11.2 12.6875 11.4187 12.4688L12.4688 11.4187C12.6875 11.2 12.7312 10.85 12.6 10.5875L11.9875 9.45L12.25 8.79375L13.5188 8.4C13.7813 8.3125 14 8.05 14 7.74375V6.25625C14 5.95 13.7812 5.64375 13.475 5.55625ZM13.125 7.6125L11.55 8.09375L11.5062 8.3125L11.1125 9.23125L10.9812 9.45L11.7688 10.8938L10.8938 11.7688L9.45 10.9812L9.23125 11.1125C8.925 11.2875 8.61875 11.4187 8.3125 11.5062L8.09375 11.55L7.6125 13.125H6.3875L5.90625 11.55L5.6875 11.5062L4.76875 11.1125L4.55 10.9812L3.10625 11.7688L2.23125 10.8938L3.01875 9.45L2.8875 9.23125C2.7125 8.925 2.58125 8.61875 2.49375 8.3125L2.45 8.09375L0.875 7.6125V6.3875L2.3625 5.95L2.45 5.73125C2.5375 5.38125 2.66875 5.075 2.84375 4.76875L2.975 4.55L2.23125 3.10625L3.10625 2.23125L4.50625 3.01875L4.725 2.8875C5.03125 2.7125 5.3375 2.58125 5.6875 2.49375L5.90625 2.40625L6.3875 0.875H7.6125L8.09375 2.40625L8.3125 2.49375C8.61875 2.58125 8.925 2.7125 9.23125 2.8875L9.45 3.01875L10.8938 2.23125L11.7688 3.10625L10.9812 4.55L11.1125 4.76875C11.2875 5.075 11.4187 5.38125 11.5062 5.6875L11.55 5.90625L13.125 6.3875V7.6125Z" fill="white"/>
</svg>
